<?xml version="1.0" standalone="no"?>
<!DOCTYPE svg PUBLIC "-//W3C//DTD SVG 1.1//EN" "http://www.w3.org/Graphics/SVG/1.1/DTD/svg11.dtd" >
<svg>
<metadata>
Created by FontForge 20090622 at Wed Jan 13 09:14:17 2016
 By deploy user
&#194;&#169; 1989, 1992, 1994, 1996, 1998, 1999, 2000, 2001 Adobe Systems Incorporated. All rights reserved.
</metadata>
<defs>
<font id="AGaramondPro-BoldItalic" horiz-adv-x="400" >
  <font-face 
    font-family="Adobe Garamond Pro Bold"
    font-weight="700"
    font-style="italic"
    font-stretch="normal"
    units-per-em="1000"
    panose-1="2 2 7 2 6 5 6 9 4 3"
    ascent="725"
    descent="-275"
    x-height="409"
    cap-height="663"
    bbox="-183.074 -301 1184 894"
    underline-thickness="50"
    underline-position="-50"
    slope="-18.5"
    unicode-range="U+0020-U+FB04"
  />
<missing-glyph horiz-adv-x="500" 
d="M0 0v700h500v-700h-500zM250 395l170 255h-340zM280 350l170 -255v510zM80 50h340l-170 255zM50 605v-510l170 255z" />
    <glyph glyph-name="T_h" unicode="Th" horiz-adv-x="1040" 
d="M321 660h389q57 0 65 10l4 11q10 9 53 20.5t67 13.5q8 -1 11 -10l-48 -130l-111 -312h2q39 53 89 92q72 59 130 59q35 0 55.5 -24t20.5 -65q0 -57 -30 -127.5t-69 -124.5q-28 -37 -68.5 -62t-83.5 -25q-22 0 -38 11t-16 30t12.5 32t23.5 13t20 -11q18 -21 24 -21
q7 0 19 30q28 66 53.5 142.5t25.5 110.5q0 27 -18 27q-16 0 -47 -27t-69 -77q-14 -18 -29.5 -43t-28 -48l-26 -49.5t-21.5 -44l-17 -36.5l-10 -21q-9 -18 -50 -18q-25 0 -42.5 9.5t-10.5 30.5l176 508q18 47 3 63.5t-81 16.5h-66q-22 0 -27.5 -4t-12.5 -25l-153 -441
q-15 -42 -17.5 -62.5t7 -30.5t35.5 -14l37 -5q5 -4 3 -17.5t-9 -17.5q-83 3 -152 3q-50 0 -161 -3q-5 4 -4 18t11 17l35 5q31 4 41.5 19.5t36.5 87.5l161 441q6 19 1 24t-30 5h-54q-54 0 -84 -23q-42 -33 -71 -84q-7 -5 -22 -1t-15 13q56 116 75 167q11 11 28 1
q0 -16 14.5 -21.5t63.5 -5.5z" />
    <glyph glyph-name="Tcaron_h" unicode="&#x164;h" horiz-adv-x="1040" 
d="M321 660h389q57 0 65 10l4 11q10 9 53 20.5t67 13.5q8 -1 11 -10l-48 -130l-111 -312h2q39 53 89 92q72 59 130 59q35 0 55.5 -24t20.5 -65q0 -57 -30 -127.5t-69 -124.5q-28 -37 -68.5 -62t-83.5 -25q-22 0 -38 11t-16 30t12.5 32t23.5 13t20 -11q18 -21 24 -21
q7 0 19 30q28 66 53.5 142.5t25.5 110.5q0 27 -18 27q-16 0 -47 -27t-69 -77q-14 -18 -29.5 -43t-28 -48l-26 -49.5t-21.5 -44l-17 -36.5l-10 -21q-9 -18 -50 -18q-25 0 -42.5 9.5t-10.5 30.5l176 508q18 47 3 63.5t-81 16.5h-66q-22 0 -27.5 -4t-12.5 -25l-153 -441
q-15 -42 -17.5 -62.5t7 -30.5t35.5 -14l37 -5q5 -4 3 -17.5t-9 -17.5q-83 3 -152 3q-50 0 -161 -3q-5 4 -4 18t11 17l35 5q31 4 41.5 19.5t36.5 87.5l161 441q6 19 1 24t-30 5h-54q-54 0 -84 -23q-42 -33 -71 -84q-7 -5 -22 -1t-15 13q56 116 75 167q11 11 28 1
q0 -16 14.5 -21.5t63.5 -5.5zM381 877l119 -64q17 -9 38 0l142 64q8 0 13 -10.5t1 -20.5l-165 -127q-28 -22 -48 0l-118 129q0 10 6 19t12 10z" />
    <glyph glyph-name="uni021A_h" unicode="&#x21a;h" horiz-adv-x="1040" 
d="M321 660h389q57 0 65 10l4 11q10 9 53 20.5t67 13.5q8 -1 11 -10l-48 -130l-111 -312h2q39 53 89 92q72 59 130 59q35 0 55.5 -24t20.5 -65q0 -57 -30 -127.5t-69 -124.5q-28 -37 -68.5 -62t-83.5 -25q-22 0 -38 11t-16 30t12.5 32t23.5 13t20 -11q18 -21 24 -21
q7 0 19 30q28 66 53.5 142.5t25.5 110.5q0 27 -18 27q-16 0 -47 -27t-69 -77q-14 -18 -29.5 -43t-28 -48l-26 -49.5t-21.5 -44l-17 -36.5l-10 -21q-9 -18 -50 -18q-25 0 -42.5 9.5t-10.5 30.5l176 508q18 47 3 63.5t-81 16.5h-66q-22 0 -27.5 -4t-12.5 -25l-153 -441
q-15 -42 -17.5 -62.5t7 -30.5t35.5 -14l37 -5q5 -4 3 -17.5t-9 -17.5q-83 3 -152 3q-50 0 -161 -3q-5 4 -4 18t11 17l35 5q31 4 41.5 19.5t36.5 87.5l161 441q6 19 1 24t-30 5h-54q-54 0 -84 -23q-42 -33 -71 -84q-7 -5 -22 -1t-15 13q56 116 75 167q11 11 28 1
q0 -16 14.5 -21.5t63.5 -5.5zM269 -42q28 0 51.5 -24.5t23.5 -67.5q0 -53 -46 -95.5t-121 -61.5q-10 6 -12 16t4 17q36 11 62 35.5t26 49.5q0 27 -29 42q-16 9 -16 33q0 22 17 39t40 17z" />
    <glyph glyph-name="f_f_j" unicode="ffj" horiz-adv-x="796" 
d="M148 348h-97q-4 15 0.5 31.5t11.5 20.5h100q26 89 64 153q80 138 219 138q41 0 66 -17t32 -37q72 78 166 78q57 0 86.5 -26t29.5 -64q-1 -34 -23 -55t-41 -21q-22 0 -29 29q-23 93 -52 93q-22 0 -55 -74q-32 -71 -66 -197h114q24 0 66.5 6t59.5 6t26.5 -16.5t9.5 -36.5
q0 -41 -44 -178q-65 -194 -70 -208q-53 -141 -123 -189q-50 -33 -111 -33q-38 0 -68.5 20t-30.5 52q0 24 17 41.5t39 17.5q16 0 28 -17q41 -65 55 -65t30 40q25 63 95 293q51 160 52 176q2 18 -12 28.5t-39 10.5h-108q-15 -46 -48.5 -161.5t-53.5 -178.5q-41 -123 -71 -168
q-25 -37 -67.5 -63t-88.5 -26q-35 0 -63.5 20t-28.5 54q0 21 14.5 37.5t35.5 16.5q19 0 28 -19q14 -27 30 -43.5t25 -16.5q14 0 38 85l126 463h-148l-51.5 -174t-56.5 -186q-41 -123 -71 -168q-25 -37 -68 -63t-90 -26q-39 0 -70 20t-31 57q0 24 17.5 41.5t38.5 17.5t28 -21
q17 -31 34 -48.5t26 -17.5q14 0 38 85zM287 400h149q45 128 63 165q-19 82 -65 82q-49 0 -88 -77q-30 -58 -59 -170z" />
    <glyph glyph-name="f_j" unicode="fj" horiz-adv-x="540" 
d="M149 348h-94q-5 15 0.5 31.5t14.5 20.5h94q35 114 67 170q81 145 208 145q57 0 86.5 -26t29.5 -64q-1 -34 -23 -55t-41 -21q-22 0 -29 29q-23 93 -52 93q-22 0 -55 -74q-30 -65 -66 -197h99q38 0 90.5 5.5t65.5 6.5q17 1 26.5 -15t9.5 -35q0 -41 -44 -178
q-65 -194 -70 -208q-53 -141 -123 -189q-50 -33 -111 -33q-38 0 -68.5 20t-30.5 52q0 24 17 41.5t39 17.5q16 0 28 -17q41 -65 55 -65t30 40q25 63 95 293q51 160 52 176q3 36 -51 36h-124q-18 -57 -53 -177.5t-55 -182.5q-41 -123 -71 -168q-25 -37 -68 -63t-90 -26
q-39 0 -70 20t-31 57q0 24 17.5 41.5t38.5 17.5t28 -21q17 -31 34 -48.5t26 -17.5q14 0 38 85z" />
    <glyph glyph-name="f_f" unicode="ff" horiz-adv-x="570" 
d="M63 400h100q26 89 64 153q80 138 219 138q41 0 66 -17t32 -37q72 78 166 78q57 0 86.5 -26t29.5 -64q-1 -34 -23 -55t-41 -21q-22 0 -29 29q-23 93 -52 93q-22 0 -55 -74q-32 -71 -66 -197h112q6 -11 1 -29t-17 -23h-110q-15 -46 -48.5 -161.5t-53.5 -178.5
q-41 -123 -71 -168q-25 -37 -67.5 -63t-88.5 -26q-35 0 -63.5 20t-28.5 54q0 21 14.5 37.5t35.5 16.5q19 0 28 -19q14 -27 30 -43.5t25 -16.5q14 0 38 85l126 463h-148l-51.5 -174t-56.5 -186q-41 -123 -71 -168q-25 -37 -68 -63t-90 -26q-39 0 -70 20t-31 57
q0 24 17.5 41.5t38.5 17.5t28 -21q17 -31 34 -48.5t26 -17.5q14 0 38 85l130 483h-97q-4 15 0.5 31.5t11.5 20.5zM287 400h149q45 128 63 165q-19 82 -65 82q-49 0 -88 -77q-30 -58 -59 -170z" />
    <glyph glyph-name="f_f_i" unicode="ffi" horiz-adv-x="828" 
d="M63 400h100q26 89 64 153q80 138 222 138q43 0 68 -17.5t34 -42.5q78 84 190 84q63 0 102.5 -30t39.5 -69q-1 -35 -23 -53t-50 -18q-25 0 -36 11.5t-11 26.5q-1 88 -46 88q-38 0 -78 -70q-35 -60 -78 -201h70q41 0 96 7t63 7q15 0 23 -12t8 -26q0 -19 -13 -49l-97 -246
q-7 -15 4 -15q10 0 42 22t52 41q9 0 15 -7t4 -17q-33 -44 -92.5 -81.5t-115.5 -37.5q-18 0 -33 14.5t-15 25.5q0 13 12 43l92 236q9 27 3.5 35t-25.5 8h-108q-15 -46 -48.5 -161.5t-53.5 -178.5q-41 -123 -71 -168q-25 -37 -67.5 -63t-88.5 -26q-35 0 -63.5 20t-28.5 54
q0 21 14.5 37.5t35.5 16.5q19 0 28 -19q14 -27 30 -43.5t25 -16.5q14 0 38 85l126 463h-148l-51.5 -174t-56.5 -186q-41 -123 -71 -168q-25 -37 -68 -63t-90 -26q-39 0 -70 20t-31 57q0 24 17.5 41.5t38.5 17.5t28 -21q17 -31 34 -48.5t26 -17.5q14 0 38 85l130 483h-97
q-4 15 0.5 31.5t11.5 20.5zM287 400h149q41 118 69 165q-5 36 -22 59t-46 23q-53 0 -91 -77q-30 -58 -59 -170z" />
    <glyph glyph-name="f_f_l" unicode="ffl" horiz-adv-x="829" 
d="M63 400h100q26 89 64 153q80 138 217 138q45 0 73 -18t35 -40q31 34 79 58t104 24q71 0 106 -30q54 25 84 30q10 -1 10 -10q-4 -10 -20 -54.5l-27 -75.5l-165 -476q-16 -46 1 -46q15 0 46.5 29.5t57.5 59.5q8 1 14 -5.5t5 -16.5q-69 -134 -197 -134q-65 0 -65 43
q0 21 14 60l90 259h-143q-15 -46 -48.5 -161.5t-53.5 -178.5q-41 -123 -71 -168q-25 -37 -67.5 -63t-88.5 -26q-35 0 -63.5 20t-28.5 54q0 21 14.5 37.5t35.5 16.5q19 0 28 -19q14 -27 30 -43.5t25 -16.5q14 0 38 85l126 463h-148l-51.5 -174t-56.5 -186q-41 -123 -71 -168
q-25 -37 -68 -63t-90 -26q-39 0 -70 20t-31 57q0 24 17.5 41.5t38.5 17.5t28 -21q17 -31 34 -48.5t26 -17.5q14 0 38 85l130 483h-97q-4 15 0.5 31.5t11.5 20.5zM287 400h149q34 105 68 165q-6 35 -24 58.5t-46 23.5q-49 0 -88 -77q-30 -58 -59 -170zM560 400h147l64 185
q13 37 1 61.5t-41 24.5q-23 0 -49 -19.5t-47 -56.5q-42 -75 -75 -195z" />
    <glyph glyph-name="f_i" unicode="fi" horiz-adv-x="556" 
d="M148 348h-95q-4 16 1.5 32t14.5 20h94q34 103 73 169q42 69 102 107.5t131 38.5q63 0 102.5 -30t39.5 -69q-1 -35 -23 -53t-50 -18q-25 0 -36 11.5t-11 26.5q-1 88 -46 88q-38 0 -78 -70q-35 -60 -78 -201h70q33 0 96 7q49 7 63 7q15 0 23 -12t8 -26q0 -19 -13 -49
l-97 -246q-7 -15 4 -15q10 0 42 22t52 41q9 0 15 -7t4 -17q-33 -44 -92.5 -81.5t-115.5 -37.5q-18 0 -33 14.5t-15 25.5q0 13 12 43l92 236q9 27 3.5 35t-25.5 8h-108l-51.5 -174t-56.5 -186q-41 -123 -71 -168q-25 -37 -68 -63t-90 -26q-39 0 -70 20t-31 57q0 24 17.5 41.5
t38.5 17.5t28 -21q17 -31 34 -48.5t26 -17.5q14 0 38 85z" />
    <glyph glyph-name="f_l" unicode="fl" horiz-adv-x="557" 
d="M149 348h-94q-5 15 0.5 31.5t14.5 20.5h94q30 99 69 164q92 151 238 151q63 0 98 -30q54 25 84 30q10 -1 10 -10q-4 -10 -20 -54.5l-27 -75.5l-165 -476q-16 -46 1 -46q15 0 46.5 29.5t57.5 59.5q8 1 14 -5.5t5 -16.5q-69 -134 -197 -134q-65 0 -65 43q0 21 14 60l90 259
h-143q-18 -57 -53 -177.5t-55 -182.5q-41 -123 -71 -168q-25 -37 -68 -63t-90 -26q-39 0 -70 20t-31 57q0 24 17.5 41.5t38.5 17.5t28 -21q17 -31 34 -48.5t26 -17.5q14 0 38 85zM288 400h147l64 185q13 37 1 61.5t-41 24.5q-49 0 -95 -77q-43 -71 -76 -194z" />
    <glyph glyph-name=".notdef" horiz-adv-x="500" 
d="M0 0v700h500v-700h-500zM250 395l170 255h-340zM280 350l170 -255v510zM80 50h340l-170 255zM50 605v-510l170 255z" />
    <glyph glyph-name=".null" horiz-adv-x="0" 
 />
    <glyph glyph-name="nonmarkingreturn" horiz-adv-x="333" 
 />
    <glyph glyph-name="space" unicode=" " horiz-adv-x="240" 
 />
    <glyph glyph-name="exclam" unicode="!" horiz-adv-x="247" 
d="M251 646q33 0 48.5 -10t11.5 -31q-2 -11 -44 -117l-112 -283q-7 -5 -19.5 -5t-20.5 5l36 281q13 99 18 119q12 41 82 41zM109 150q30 0 48.5 -20t18.5 -54q0 -38 -24.5 -64t-60.5 -26q-30 0 -49.5 19t-19.5 51q0 37 24.5 65.5t62.5 28.5z" />
    <glyph glyph-name="quotedbl" unicode="&#x22;" horiz-adv-x="480" 
d="M336 609l-94 -205q-22 -14 -38 0l20 205q5 45 8 57q6 22 20 28t46 6q37 0 52.5 -6t9.5 -28q-4 -13 -24 -57zM536 609l-94 -205q-22 -14 -38 0l20 205q5 45 8 57q6 22 20 28t46 6q37 0 52.5 -6t9.5 -28q-4 -13 -24 -57z" />
    <glyph glyph-name="numbersign" unicode="#" horiz-adv-x="520" 
d="M403 396h-96l-63 -146h97zM565 396h-99l-63 -146h88l-21 -65h-94l-79 -185h-61l78 185h-97l-80 -185h-61l80 185h-98l21 65h102l63 146h-98l22 65h104l70 165h64l-71 -165h96l70 165h64l-71 -165h90z" />
    <glyph glyph-name="dollar" unicode="$" horiz-adv-x="520" 
d="M314 254l-67 -207q2 -1 8 -1q48 0 83 28.5t35 74.5q0 38 -15 62t-44 43zM313 401l58 179q-53 -1 -81 -30.5t-28 -67.5q0 -48 51 -81zM417 574l-64 -197q67 -34 103.5 -76.5t36.5 -109.5q0 -85 -68.5 -138t-183.5 -53q-5 0 -9 1l-30 -93q-10 -8 -25.5 -8t-22.5 8l31 97
q-56 9 -96 31.5t-49 46.5q-6 22 -2.5 66.5t14.5 78.5q5 6 16 6t17 -6q6 -65 37.5 -110.5t79.5 -61.5l71 222l-46.5 31.5t-35.5 30.5t-30.5 44.5t-8.5 53.5q0 85 64.5 136.5t169.5 51.5l25 78q7 8 23.5 8t24.5 -8l-26 -81q39 -6 118 -34q2 -72 -19 -144q-4 -5 -15.5 -5
t-17.5 5q-3 106 -82 129z" />
    <glyph glyph-name="percent" unicode="%" horiz-adv-x="886" 
d="M738 374q64 0 97.5 -37t33.5 -103q0 -55 -25 -111t-76 -96.5t-114 -40.5t-96.5 36t-33.5 97q0 94 62.5 174.5t151.5 80.5zM615 83q0 -59 39 -59q35 0 66 57q21 39 41 101.5t20 99.5q0 54 -39 54q-34 0 -65 -54q-24 -41 -43 -99.5t-19 -99.5zM350 640q64 0 97.5 -37
t33.5 -103q0 -55 -25 -111t-76 -96.5t-114 -40.5t-96.5 36t-33.5 97q0 94 62.5 174.5t151.5 80.5zM227 349q0 -59 39 -59q35 0 66 57q21 39 41 101.5t20 99.5q0 54 -39 54q-34 0 -65 -54q-24 -41 -43 -99.5t-19 -99.5zM769 630l-497 -670q-14 -3 -25.5 4t-14.5 20l497 670
q12 2 25.5 -5t14.5 -19z" />
    <glyph glyph-name="ampersand" unicode="&#x26;" horiz-adv-x="822" 
d="M346 485q33 0 47.5 -13.5t22.5 -35.5q29 24 61.5 59t49.5 60q31 47 31 77q0 18 -10 31q-13 15 -13 33q0 29 18.5 46.5t44.5 17.5q25 0 44 -20t19 -55q0 -43 -31 -89.5t-105 -117.5q-56 -55 -156 -137.5t-165 -131.5q12 -55 58 -88.5t109 -33.5q123 0 204 124
q54 83 52 155q-24 28 -64 28q-18 0 -30.5 -11.5t-12.5 -26.5q0 -18 12 -39q10 -17 10 -30q0 -16 -12.5 -28.5t-34.5 -12.5q-21 0 -34 16.5t-13 41.5q0 62 71 120q50 41 99 41q65 0 132 -73q33 -37 39 -37q17 0 17 22q0 12 -9 33q-5 15 -5 24q0 11 10.5 23t28.5 12
q24 0 40 -18.5t16 -49.5q0 -37 -25 -62q-8 -8 -26 -13q-47 -12 -91 -44q-17 -9 -28 5q-20 29 -52 54v-55q0 -28 -24 -85t-73 -107q-107 -108 -252 -108q-111 0 -166.5 59t-55.5 142q0 127 97 221q43 43 87.5 60t67.5 17zM326 391q0 14 -9 25t-21 11t-30.5 -13t-32.5 -36
q-35 -57 -35 -123l41.5 35l46 38t26.5 24q14 16 14 39z" />
    <glyph glyph-name="quotesingle" unicode="'" horiz-adv-x="262" 
d="M329 609l-94 -205q-22 -14 -38 0l20 205q5 45 8 57q6 22 20 28t46 6q37 0 52.5 -6t9.5 -28q-4 -13 -24 -57z" />
    <glyph glyph-name="parenleft" unicode="(" horiz-adv-x="340" 
d="M186 93q0 -148 57 -236q-2 -18 -22 -20q-57 53 -89.5 139.5t-32.5 175.5q0 117 44 225.5t123 188.5q84 84 199 137q10 -1 15.5 -7.5t3.5 -13.5q-101 -57 -177 -178q-121 -191 -121 -411z" />
    <glyph glyph-name="parenright" unicode=")" horiz-adv-x="340" 
d="M236 447q0 147 -57 236q2 18 22 20q57 -53 89.5 -139.5t32.5 -175.5q0 -117 -44 -225.5t-123 -188.5q-84 -84 -199 -137q-10 1 -15.5 7.5t-3.5 13.5q101 57 177 178q121 191 121 411z" />
    <glyph glyph-name="asterisk" unicode="*" 
d="M349 533l136 37q17 -10 8 -34l-129 -52l91 -102q0 -9 -6.5 -16.5t-16.5 -8.5l-103 89l-45 -126q-5 -3 -15.5 -1t-14.5 8l19 132l-138 -34q-7 5 -9 14t3 16l130 53l-95 99q0 10 6 18.5t14 10.5l109 -90l43 125q7 3 16.5 1.5t13.5 -6.5z" />
    <glyph glyph-name="plus" unicode="+" horiz-adv-x="520" 
d="M315 0h-88v177h-157v72h157v159h88v-159h156v-72h-156v-177z" />
    <glyph glyph-name="comma" unicode="," horiz-adv-x="260" 
d="M102 168q33 0 61 -28t28 -80q0 -62 -54.5 -111t-142.5 -70q-11 4 -14 15t3 20q43 12 73.5 40.5t30.5 59.5q0 30 -33 49q-20 10 -20 38q0 27 20 47t48 20z" />
    <glyph glyph-name="hyphen" unicode="-" horiz-adv-x="320" 
d="M63 237l239 22q14 -16 14 -42q0 -23 -13 -39l-240 -22q-15 15 -15 40q0 22 15 41z" />
    <glyph glyph-name="period" unicode="." horiz-adv-x="260" 
d="M119 150q30 0 48.5 -20t18.5 -54q0 -38 -24.5 -64t-60.5 -26q-30 0 -49.5 19t-19.5 51q0 37 24.5 65.5t62.5 28.5z" />
    <glyph glyph-name="slash" unicode="/" horiz-adv-x="300" 
d="M391 676l-308 -692h-92l308 692h92z" />
    <glyph glyph-name="zero" unicode="0" horiz-adv-x="520" 
d="M400 640q47 0 81.5 -17t53 -47.5t26.5 -64.5t8 -74q0 -82 -38.5 -182t-96.5 -169q-86 -100 -200 -100q-167 0 -167 197q0 89 37.5 187t94.5 162q96 108 201 108zM405 594q-21 0 -41.5 -16.5t-37 -40t-34 -60t-29 -65.5t-25.5 -69q-51 -139 -51 -232q0 -39 14 -59t36 -20
q49 0 98 100q45 91 79.5 203t34.5 178q0 17 -1 27t-4.5 25t-13 22t-25.5 7z" />
    <glyph glyph-name="one" unicode="1" horiz-adv-x="520" 
d="M288 542l-45 5q-8 4 -7 17.5t9 17.5q76 13 139 29q18 4 41 12t37.5 13.5t15.5 5.5q14 0 16 -14q-20 -48 -42 -116l-121 -382q-17 -57 -11 -72.5t44 -20.5l37 -5q8 -4 6 -18t-11 -17q-75 3 -168 3q-80 0 -149 -3q-8 7 -6.5 18.5t9.5 16.5l35 5q40 6 53.5 21t31.5 72
l100 315q18 56 18 72q1 11 -7.5 17t-24.5 8z" />
    <glyph glyph-name="two" unicode="2" horiz-adv-x="520" 
d="M231 100h116q49 0 67.5 9t46.5 44q7 6 19 1.5t15 -15.5q-14 -39 -37.5 -83.5t-39.5 -58.5q-58 3 -146 3h-166q-38 0 -122 -3q-11 9 -4 23q19 12 40.5 27.5t36 27l54 42.5l65.5 51q232 182 232 287q0 108 -105 108q-33 0 -72 -26t-63 -66q-10 -2 -21 4.5t-10 15.5
q37 70 99.5 109.5t136.5 39.5q79 0 130 -43.5t51 -119.5q0 -32 -13.5 -63.5t-28.5 -52.5t-49.5 -50.5t-50.5 -41.5t-59 -41l-20 -14l-60 -42q-73 -51 -73 -61q0 -11 31 -11z" />
    <glyph glyph-name="three" unicode="3" horiz-adv-x="520" 
d="M253 327q-45 0 -94 -42q-16 2 -22.5 20t3.5 31q112 38 174 76q79 48 79 99q0 30 -20.5 48t-55.5 18q-31 0 -66 -23t-61 -61q-11 -3 -19 3.5t-10 16.5q36 60 94.5 93.5t125.5 33.5q60 0 104 -29t44 -83q0 -80 -150 -133q-13 -4 -5 -9q4 -3 10 -3q50 -4 86.5 -40.5
t36.5 -99.5q0 -65 -43.5 -124.5t-105.5 -99.5q-60 -38 -130 -56.5t-125 -18.5q-119 0 -119 70q0 23 17 39.5t41 16.5q8 0 16 -2.5t13.5 -6t12 -9.5t9 -9.5t8 -10t6.5 -8.5q25 -30 57 -30q76 0 132.5 66t57.5 157q1 50 -25 80t-76 30z" />
    <glyph glyph-name="four" unicode="4" horiz-adv-x="520" 
d="M512 186h-71q-16 0 -20 -4t-10 -20l-14 -41q-16 -52 -9 -67t45 -20l17 -2q8 -4 6 -18t-11 -17q-72 3 -148 3q-81 0 -147 -3q-8 7 -6.5 18.5t9.5 16.5l35 4q40 4 53 18t29 67l14 45q4 13 1 16.5t-18 3.5h-224q-17 10 -7 32l470 472q16 16 33 16h37q28 0 0 -28l-426 -418
q-6 -5 -7.5 -8.5t4 -6.5t20.5 -3h120q14 0 18 2.5t7 12.5l48 154q3 11 10 18.5t11.5 10.5t14.5 8q18 9 51 19.5t43 10.5q18 0 15 -17l-63 -199q-5 -13 -2.5 -16.5t18.5 -3.5h66q11 -5 6.5 -27.5t-18.5 -28.5z" />
    <glyph glyph-name="five" unicode="5" horiz-adv-x="520" 
d="M287 619l274 35q8 0 11.5 -5.5t1.5 -11.5q-17 -50 -67 -95l-243 -31q-24 -3 -36 -29l-9 -19q-11 -22 10 -24q52 -6 96 -20.5t83 -39.5t60 -66t19 -94q-6 -149 -183 -229q-118 -53 -294 -58q-14 4 -15.5 19.5t8.5 21.5q44 3 89 10.5t93.5 24.5t85.5 40.5t61 60.5t24 82
q0 74 -56 107.5t-160 44.5q-32 3 -15 35l106 211q8 16 18.5 21.5t37.5 8.5z" />
    <glyph glyph-name="six" unicode="6" horiz-adv-x="520" 
d="M528 243q0 -110 -76.5 -183.5t-183.5 -73.5q-101 0 -153.5 56t-52.5 150q0 96 58.5 201.5t164.5 178.5q76 52 175.5 85t185.5 36q9 -2 10.5 -15.5t-4.5 -18.5q-87 -15 -152.5 -47t-129.5 -87q-77 -67 -125.5 -170.5t-48.5 -200.5q0 -122 69 -122q40 0 69.5 37.5t41 80
t11.5 76.5q0 93 -55 104q-16 4 -43 1q-6 3 -7.5 12.5t4.5 14.5q51 38 100 38q64 0 103 -42t39 -111z" />
    <glyph glyph-name="seven" unicode="7" horiz-adv-x="520" 
d="M315 626h212q97 0 119 3q10 -4 7 -16q-43 -49 -133 -165l-395 -510q-15 -4 -28.5 7.5t-12.5 27.5l366 472q42 56 42 68q0 10 -28 10h-186q-46 0 -71.5 -9.5t-46.5 -44.5q-7 -5 -19 -1t-14 14q39 70 65 147q28 -3 123 -3z" />
    <glyph glyph-name="eight" unicode="8" horiz-adv-x="520" 
d="M246 -12q-90 0 -146 40t-56 115q0 123 171 191q-61 46 -61 115q0 83 62.5 137t148.5 54q81 0 134.5 -39t53.5 -114q0 -101 -143 -154q86 -60 86 -148q0 -89 -69 -143t-181 -54zM368 140q0 39 -20 72.5t-40 50.5t-53 38q-39 -23 -63 -64.5t-24 -89.5q0 -49 27 -81t73 -32
q42 0 71 29.5t29 76.5zM369 366q29 12 50.5 51t21.5 82q0 40 -21.5 67.5t-60.5 27.5q-37 0 -61.5 -28t-24.5 -67q0 -46 24.5 -75t71.5 -58z" />
    <glyph glyph-name="nine" unicode="9" horiz-adv-x="520" 
d="M370 640q94 0 145 -57t51 -155q0 -100 -61 -199t-158 -163q-73 -49 -177.5 -86.5t-166.5 -39.5q-8 4 -10.5 16t4.5 19q175 41 282 148q69 67 112 164t43 189q0 118 -71 118q-51 0 -85 -63.5t-34 -127.5q0 -78 50 -101q18 -8 54 -9q8 -8 0 -24q-36 -26 -91 -26
q-64 0 -103.5 41t-39.5 111q0 98 76 171.5t180 73.5z" />
    <glyph glyph-name="colon" unicode=":" horiz-adv-x="260" 
d="M119 150q30 0 48.5 -20t18.5 -54q0 -38 -24.5 -64t-60.5 -26q-30 0 -49.5 19t-19.5 51q0 37 24.5 65.5t62.5 28.5zM192 394q30 0 48.5 -20t18.5 -54q0 -38 -24.5 -64t-60.5 -26q-30 0 -49.5 19t-19.5 51q0 37 24.5 65.5t62.5 28.5z" />
    <glyph glyph-name="semicolon" unicode=";" horiz-adv-x="260" 
d="M102 168q33 0 61 -28t28 -80q0 -62 -54.5 -111t-142.5 -70q-11 4 -14 15t3 20q43 12 73.5 40.5t30.5 59.5q0 30 -33 49q-20 10 -20 38q0 27 20 47t48 20zM192 394q30 0 48.5 -20t18.5 -54q0 -38 -24.5 -64t-60.5 -26q-30 0 -49.5 19t-19.5 51q0 37 24.5 65.5t62.5 28.5z
" />
    <glyph glyph-name="less" unicode="&#x3c;" horiz-adv-x="520" 
d="M66 236l389 178v-83l-286 -123v-2l286 -124v-82l-389 177v59z" />
    <glyph glyph-name="equal" unicode="=" horiz-adv-x="520" 
d="M471 106h-401v72h401v-72zM471 250h-401v72h401v-72z" />
    <glyph glyph-name="greater" unicode="&#x3e;" horiz-adv-x="520" 
d="M101 414l389 -178v-59l-389 -177v82l286 124v2l-286 123v83z" />
    <glyph glyph-name="question" unicode="?" horiz-adv-x="350" 
d="M279 646q54 0 99 -50.5t45 -118.5q0 -42 -27.5 -77t-77.5 -56l-76 -31q-35 -14 -50 -27.5t-15 -30.5q0 -27 4 -47q-4 -6 -14 -7.5t-17 2.5q-33 46 -33 100q0 44 27.5 72t84.5 48l74 26q65 23 65 46q0 17 -17.5 28.5t-44.5 11.5q-31 0 -51 -4q-36 -6 -37 -6
q-17 0 -27.5 12t-10.5 29q0 31 26.5 55.5t72.5 24.5zM160 150q30 0 48.5 -20t18.5 -54q0 -38 -24.5 -64t-60.5 -26q-30 0 -49.5 19t-19.5 51q0 37 24.5 65.5t62.5 28.5z" />
    <glyph glyph-name="at" unicode="@" horiz-adv-x="775" 
d="M519 556q136 0 214.5 -78.5t78.5 -191.5q0 -101 -71 -165.5t-194 -64.5q-26 0 -42.5 5.5t-20.5 11.5t-4 11q0 7 9 32l21 55l-2 1q-38 -46 -93.5 -81t-87.5 -35q-21 0 -32.5 13t-11.5 31q0 19 19 63t57 93q40 50 93 87t104 37q26 0 34 -16l24 45q10 2 16 2q34 0 53 -14
q-5 -14 -55.5 -131.5t-57.5 -135.5q-7 -19 -4 -26.5t18 -7.5q66 0 120.5 52t54.5 136q0 101 -69 164t-171 63q-134 0 -220 -99.5t-86 -235.5q0 -35 8 -69.5t28 -71t50.5 -63.5t80 -44.5t112.5 -17.5q73 0 154 33q7 -3 10.5 -14t-1.5 -18q-84 -46 -195 -46q-68 0 -128 19.5
t-108.5 56.5t-77 98t-28.5 138q0 169 118 274t283 105zM457 154q29 27 65 83t45 85q-10 25 -30 25q-14 0 -49 -31q-38 -34 -69.5 -95t-31.5 -91q0 -14 10 -14q19 0 60 38z" />
    <glyph glyph-name="A" unicode="A" horiz-adv-x="600" 
d="M353 226h-124q-18 0 -23 -0.5t-10 -4.5t-11 -15l-66 -106q-19 -34 -19 -44q0 -12 33 -18l36 -5q8 -5 6 -18.5t-11 -17.5q-75 3 -135 3q-54 0 -96 -3q-10 4 -11 17.5t6 18.5l24 4q38 6 56.5 21t56.5 70l269 396q60 91 64 109q16 1 32 6t28.5 11t22.5 12t15 10l6 4h2
q18 0 18 -16q0 -88 -3.5 -266t-3.5 -266q0 -57 7 -73t41 -20l24 -3q6 -4 5 -18t-8 -17q-56 3 -141 3t-132 -3q-9 3 -9.5 16.5t4.5 18.5l23 3q32 4 41.5 13.5t10.5 29.5l4 127q1 15 -4 18t-28 3zM265 279h96q18 0 21.5 4t4.5 23l6 123q3 82 5 107h-2l-63 -98l-87 -137
q-9 -13 -5.5 -17.5t24.5 -4.5z" />
    <glyph glyph-name="B" unicode="B" horiz-adv-x="634" 
d="M121 144l118 377q17 51 15 69.5t-27 23.5l-29 6q-7 6 -5 18t11 16q99 9 197 9q154 0 214 -45q53 -40 53 -107q0 -57 -41 -93t-97 -46q-28 -5 -29 -10q-1 -2 3 -4t17 -7q42 -15 68 -51.5t26 -83.5q0 -80 -53.5 -135t-136.5 -71q-68 -14 -169 -14q-24 0 -64 2t-49 2
q-61 0 -137 -3q-7 4 -5.5 18.5t10.5 15.5l29 5q34 6 47 22.5t34 85.5zM383 580l-58 -180q-6 -19 -0.5 -23.5t35.5 -4.5q76 0 124 43t48 109q0 41 -26.5 67t-74.5 26q-26 0 -33 -5.5t-15 -31.5zM294 298l-52 -165q-29 -91 51 -91q71 0 124.5 48.5t53.5 125.5q0 53 -32 82.5
t-90 29.5q-32 0 -40 -4.5t-15 -25.5z" />
    <glyph glyph-name="C" unicode="C" horiz-adv-x="658" 
d="M97 247q1 92 41.5 175.5t101.5 137.5q130 116 324 116q108 0 200 -37q-20 -46 -49 -155q-5 -8 -20 -8t-18 8q7 76 -22.5 111t-99.5 35q-82 0 -154 -59.5t-112 -149t-40 -182.5q0 -112 45.5 -160.5t110.5 -48.5q59 0 107 34.5t103 108.5q8 6 21.5 4t15.5 -10
q-28 -88 -71 -158l-63 -13q-64 -12 -116 -12q-148 0 -227 73t-78 190z" />
    <glyph glyph-name="D" unicode="D" horiz-adv-x="771" 
d="M120 144l118 377q17 51 15 68.5t-27 23.5l-29 7q-7 6 -5 18t11 16q97 9 218 9q173 -2 262 -61q109 -74 109 -218q0 -145 -102 -250q-137 -140 -402 -140q-21 0 -67 3t-72 3q-68 0 -143 -3q-8 4 -6.5 18.5t11.5 15.5l29 5q33 5 46 22t34 86zM389 571l-131 -416
q-14 -43 -14 -70q-1 -21 16.5 -33t49.5 -12q105 0 196 76q68 56 102 138t34 160q0 25 -3 48t-15 53t-32 51t-57 36t-86 15q-32 0 -41 -7t-19 -39z" />
    <glyph glyph-name="E" unicode="E" horiz-adv-x="596" 
d="M336 660h222q114 0 136 3q-26 -64 -51 -157q-4 -8 -18.5 -9t-19.5 5q4 52 -4 77q-12 35 -84 35h-78q-26 0 -33 -6t-16 -34l-55 -174q-7 -21 -4 -25.5t23 -4.5h66q39 0 55.5 10t35.5 46l13 24q8 7 22 6.5t16 -7.5q-6 -16 -37 -106q-2 -5 -30 -106q-6 -6 -20.5 -6.5
t-17.5 5.5l3 25q4 36 -6.5 46t-49.5 10h-66q-20 0 -26 -5t-12 -25l-38 -122q-24 -74 -14 -95q7 -14 26.5 -19t71.5 -5q51 0 75.5 5t56.5 30t72 80q8 6 22 4.5t18 -10.5q-13 -39 -37 -88.5t-40 -69.5q-97 3 -241 3h-130q-70 0 -145 -3q-8 4 -6.5 18t11.5 17l34 5
q36 5 49.5 21.5t34.5 85.5l117 372q20 61 16.5 81.5t-37.5 26.5l-24 4q-7 5 -5 18t12 17q70 -3 137 -3z" />
    <glyph glyph-name="F" unicode="F" horiz-adv-x="558" 
d="M336 660h215q113 0 136 3q-27 -66 -50 -157q-4 -8 -19 -9t-20 5q4 52 -4 77q-12 35 -83 35h-74q-25 0 -31.5 -5.5t-15.5 -34.5l-58 -183q-7 -20 -4 -24.5t23 -4.5h78q40 0 56 9.5t35 45.5l13 24q8 7 22 6.5t16 -7.5q-6 -16 -37 -106q-8 -22 -18.5 -62.5t-11.5 -42.5
q-6 -7 -20.5 -7.5t-17.5 6.5l2 24q3 36 -7 46t-49 10h-78q-19 0 -25 -5t-12 -25l-42 -134q-20 -61 -16 -82.5t41 -25.5l33 -4q4 -4 2 -17.5t-9 -17.5q-84 3 -155 3q-68 0 -143 -3q-7 5 -7 18.5t8 16.5l31 5q33 5 46 22t34 85l117 372q20 61 16.5 81.5t-37.5 26.5l-24 4
q-7 4 -5 17.5t12 17.5q72 -3 137 -3z" />
    <glyph glyph-name="G" unicode="G" horiz-adv-x="756" 
d="M750 265l-24 -4q-23 -4 -32 -16.5t-21 -53.5l-22 -76q-15 -53 -10 -62q3 -5 10 -6q3 -3 0 -12.5t-10 -11.5q-32 -5 -67 -15q-74 -24 -164 -24q-153 0 -230.5 73t-77.5 197q0 89 39 168.5t101 133.5q138 120 345 120q111 0 204 -37q-26 -59 -50 -157q-5 -8 -19.5 -8
t-17.5 8q8 77 -23 112.5t-105 35.5q-86 0 -162 -59.5t-119 -151.5t-43 -190q0 -105 49.5 -152t123.5 -47q41 0 58.5 14.5t30.5 59.5l26 86q11 40 2.5 52.5t-45.5 17.5l-32 5q-9 5 -7.5 17.5t10.5 17.5q102 -3 166 -3q76 0 117 3q8 -5 7 -17.5t-8 -17.5z" />
    <glyph glyph-name="H" unicode="H" horiz-adv-x="778" 
d="M530 317h-160q-42 0 -52 -5t-18 -29l-45 -139q-21 -61 -16.5 -82.5t41.5 -25.5l33 -4q4 -4 3 -17.5t-8 -17.5q-87 3 -159 3q-71 0 -138 -3q-8 4 -6.5 18t11.5 17l24 4q33 5 46 22t34 86l117 372q20 61 16 82t-41 26l-31 4q-7 7 -4.5 19t12.5 16q84 -3 154 -3q67 0 139 3
q8 -4 6.5 -18t-11.5 -17l-29 -4q-29 -4 -41.5 -21.5t-34.5 -86.5l-35 -113q-8 -23 -2 -28t47 -5h162q40 0 50.5 5.5t18.5 30.5l35 110q21 61 17 82t-41 26l-28 4q-6 4 -3.5 17.5t12.5 17.5q76 -3 148 -3q67 0 143 3q7 -4 5.5 -18t-10.5 -17l-29 -5q-32 -5 -45 -22t-34 -85
l-116 -372q-20 -61 -16 -81t41 -26l31 -5q5 -4 2.5 -17.5t-9.5 -17.5q-86 3 -155 3q-70 0 -139 -3q-8 4 -6.5 18t11.5 17l24 4q34 5 47 22t34 86l45 147q5 18 -1 22t-46 4z" />
    <glyph glyph-name="I" unicode="I" horiz-adv-x="366" 
d="M280 37l28 -5q5 -4 2.5 -17.5t-9.5 -17.5q-79 3 -150 3q-70 0 -145 -3q-8 4 -6 18.5t13 16.5l27 5q33 6 46 22.5t34 84.5l117 372q20 61 16 80.5t-41 26.5l-28 5q-6 4 -4 17.5t11 17.5q84 -3 154 -3q66 0 141 3q8 -4 6.5 -18t-11.5 -17l-29 -5q-33 -5 -46 -22t-34 -85
l-117 -372q-14 -44 -16.5 -63t6.5 -29t35 -15z" />
    <glyph glyph-name="J" unicode="J" horiz-adv-x="368" 
d="M384 516l-128 -410q-33 -106 -73 -172q-82 -135 -232 -135q-83 0 -83 43q0 19 20 45q18 22 36 22q22 0 48 -28l8 -8l8 -8t6.5 -5.5t8 -5t7.5 -1.5q27 0 55 80l63 193l122 390q20 61 16 81.5t-41 26.5l-32 5q-7 4 -6 17t11 17q90 -3 158 -3t137 3q8 -4 6.5 -18t-11.5 -16
l-23 -5q-34 -7 -47 -23.5t-34 -84.5z" />
    <glyph glyph-name="K" unicode="K" horiz-adv-x="692" 
d="M120 144l117 372q20 61 16 80.5t-41 26.5l-27 5q-8 4 -6 17.5t11 17.5q83 -3 153 -3q69 0 142 3q8 -4 7 -18t-11 -17l-29 -4q-33 -5 -45.5 -22t-34.5 -86l-41 -130q-9 -29 4 -29q44 0 109 60l129 117l61 61q11 11 11 18t-17 11l-38 5q-7 6 -6 18t12 16q84 -3 133 -3
q79 0 122 3q9 -3 9.5 -16.5t-7.5 -18.5q-60 -11 -91 -22q-32 -12 -69 -38t-109 -87l-69 -59q-37 -30 -37 -43q0 -9 10 -37q31 -82 113 -265q16 -35 52 -41l27 -4q6 -6 4.5 -18t-7.5 -17q-69 3 -140 3q-61 0 -133 -3q-9 4 -10 17.5t7 17.5l31 6q29 5 22 28q-1 4 -36 94
l-32 79q-20 49 -29.5 63.5t-24.5 14.5q-16 0 -23.5 -13.5t-20.5 -54.5l-33 -105q-14 -44 -16.5 -63.5t6.5 -30t35 -14.5l26 -4q6 -4 4.5 -17.5t-8.5 -17.5q-81 3 -153 3q-68 0 -143 -3q-8 4 -6.5 18t11.5 17l29 5q33 5 46 22t34 85z" />
    <glyph glyph-name="L" unicode="L" horiz-adv-x="582" 
d="M373 516l-111 -351q-22 -68 -13 -94q5 -14 24 -19.5t68 -5.5q51 0 75.5 5t56.5 30t72 80q8 6 22 4.5t18 -10.5q-12 -37 -36 -87.5t-40 -70.5q-113 3 -242 3h-115q-66 0 -146 -3q-9 4 -8.5 18t10.5 17l33 5q33 5 46 22t34 85l117 372q20 61 16 81.5t-41 26.5l-26 4
q-8 4 -5.5 18t12.5 17q78 -3 152 -3q72 0 136 3q9 -4 8 -18t-11 -17l-26 -5q-33 -6 -46 -22.5t-34 -84.5z" />
    <glyph glyph-name="M" unicode="M" horiz-adv-x="884" 
d="M131 206l116 311q23 59 19.5 80.5t-39.5 26.5l-28 4q-7 4 -4.5 17.5t12.5 17.5q83 -3 154 -3q38 0 92 3q-4 -10 -6.5 -23t-3.5 -30t-1 -28.5t1.5 -33l2 -28.5t2.5 -30l3 -22l8 -82q13 -127 17 -150l87 119l115 163q52 74 80 145q33 -3 96 -3q66 0 141 3q9 -5 7.5 -18.5
t-11.5 -16.5l-28 -4q-24 -3 -36 -10.5t-25 -33t-27 -78.5l-97 -358q-18 -61 -15 -81t40 -26l28 -5q4 -4 1.5 -17.5t-9.5 -17.5q-79 3 -152 3q-67 0 -141 -3q-10 4 -9 18t11 17l29 5q34 6 48 22.5t35 84.5l88 289l34 117l-2 2q-26 -33 -79 -110l-143 -207q-63 -90 -142 -219
q-10 -6 -23.5 -5t-21.5 9q2 44 -10 204l-11 147q-4 61 -17 171h-2q-24 -60 -59 -158l-51 -145q-53 -152 -54 -174q-2 -19 24 -24l48 -9q4 -7 2.5 -19t-7.5 -16q-129 3 -132 3q-5 0 -110 -3q-6 6 -5.5 18.5t7.5 16.5l24 4q40 7 58 22q24 23 71 148z" />
    <glyph glyph-name="N" unicode="N" horiz-adv-x="722" 
d="M150 251l82 265q20 61 16.5 82t-40.5 26l-28 4q-7 4 -4.5 17.5t11.5 17.5q78 -3 126 -3q47 0 80 3q-2 -14 2.5 -33.5t18.5 -55t23.5 -57.5l33.5 -76l47 -104q43 -96 63 -134q8 12 23 62l43 144q30 103 39 143q9 37 2 52t-44 20l-30 4q-7 7 -5 18.5t12 16.5q79 -3 124 -3
q47 0 116 3q6 -4 5.5 -17t-7.5 -18l-24 -5q-34 -7 -50 -20.5t-29 -49.5q-31 -87 -48 -144l-73 -239q-13 -43 -47 -167q-13 -11 -63 -11q-1 0 -9 20.5l-22 56.5t-26 63l-107 243q-60 139 -65 149q-7 -16 -25 -78l-59 -195q-33 -108 -39 -143q-8 -37 -1 -51t43 -20l30 -5
q4 -6 3.5 -18t-8.5 -17q-81 3 -126 3q-48 0 -115 -3q-7 4 -7 17t9 18l23 5q35 8 50.5 21.5t28.5 48.5q22 64 47 144z" />
    <glyph glyph-name="O" unicode="O" horiz-adv-x="758" 
d="M99 251q0 95 43 184.5t117 150.5q110 90 247 90q39 0 75.5 -8.5t73.5 -29t64.5 -51.5t44.5 -81t17 -112q0 -78 -33.5 -158.5t-89.5 -137.5q-45 -46 -117.5 -80t-156.5 -34q-81 0 -140 25.5t-89 68t-43 85t-13 88.5zM517 630q-52 0 -107 -43q-65 -52 -116.5 -163
t-51.5 -227q0 -75 33.5 -121t94.5 -46q74 0 137 72q66 76 98.5 171.5t32.5 191.5q0 84 -32.5 124.5t-88.5 40.5z" />
    <glyph glyph-name="P" unicode="P" horiz-adv-x="612" 
d="M120 144l120 377q17 51 15.5 68.5t-27.5 23.5l-32 7q-7 6 -5 18t11 16q99 9 195 9q132 0 196 -35q83 -46 83 -142q0 -70 -44 -120t-105.5 -71t-131.5 -21q-23 0 -32 1q-12 12 0 28q80 13 125.5 70.5t45.5 139.5q0 47 -24.5 75.5t-70.5 28.5q-24 0 -30.5 -5t-13.5 -26
l-139 -442q-14 -44 -16.5 -63.5t6.5 -30t35 -14.5l31 -5q5 -4 2.5 -17t-9.5 -17q-87 3 -154 3q-68 0 -143 -3q-8 4 -7.5 18.5t10.5 15.5l29 5q33 5 45.5 22t34.5 86z" />
    <glyph glyph-name="Q" unicode="Q" horiz-adv-x="758" 
d="M689 -219q-192 0 -349 178q-29 32 -41 34q-73 15 -120 61t-63.5 95t-16.5 102q0 95 43 184.5t117 150.5q110 90 247 90q39 0 75.5 -8.5t73.5 -29t64.5 -51.5t44.5 -81t17 -112q0 -78 -33.5 -158.5t-89.5 -137.5q-70 -71 -166 -97q-16 -5 -3 -17q126 -118 216 -142
q32 -8 73 -8q24 0 40 8q8 -3 10.5 -10t0.5 -14q-51 -37 -140 -37zM517 630q-52 0 -107 -43q-65 -52 -116.5 -163t-51.5 -227q0 -75 33.5 -121t94.5 -46q74 0 137 72q66 76 98.5 171.5t32.5 191.5q0 84 -32.5 124.5t-88.5 40.5z" />
    <glyph glyph-name="R" unicode="R" horiz-adv-x="626" 
d="M119 144l120 377q12 36 14.5 53t-3 25.5t-21.5 12.5l-32 8q-7 6 -5 18t11 16q106 9 198 9q128 0 195 -32q37 -18 60 -53.5t23 -81.5q0 -68 -47.5 -111t-114.5 -60q-13 -3 -15.5 -8t-0.5 -15q39 -216 66 -245q13 -14 60 -24q7 -5 5.5 -15.5t-8.5 -15.5q-24 -6 -92 -6
q-55 0 -79 15q-36 24 -49 91l-28 146q-5 25 -15.5 34.5t-33.5 9.5q-18 0 -24 -4t-11 -19l-41 -125q-21 -61 -17 -81t42 -27l26 -5q7 -4 5 -17t-10 -17q-73 3 -147 3q-68 0 -143 -3q-8 5 -8 19t9 15l31 5q33 5 45.5 22t34.5 86zM533 511q0 45 -22 75.5t-72 30.5
q-27 0 -34.5 -5.5t-14.5 -27.5l-68 -215q-7 -22 1 -27.5t43 -5.5q69 0 118 53.5t49 121.5z" />
    <glyph glyph-name="S" unicode="S" horiz-adv-x="528" 
d="M245 -16q-72 0 -127 26.5t-74 60.5q-2 72 19 145q4 6 19 5.5t20 -7.5q4 -63 29 -105q45 -79 130 -79q49 0 84 32t35 89q0 72 -84 132l-25 18q-109 79 -109 167q0 94 69.5 151.5t175.5 56.5q113 -2 183 -54q-25 -55 -44 -133q-6 -9 -20 -8t-19 8q10 58 -18 99.5t-88 41.5
q-54 0 -87 -33.5t-33 -74.5q0 -60 85 -117l31 -21q114 -77 114 -186q0 -95 -70 -154.5t-196 -59.5z" />
    <glyph glyph-name="T" unicode="T" horiz-adv-x="645" 
d="M321 660h374q50 0 70 26q6 4 18 3t15 -6q-42 -87 -62 -173q-5 -8 -20.5 -8t-19.5 8q6 73 -9 86q-23 18 -72 18h-44q-23 0 -28 -3.5t-12 -24.5l-136 -442q-20 -61 -16 -81.5t41 -25.5l37 -5q5 -4 3 -17.5t-9 -17.5q-95 3 -160 3q-63 0 -153 -3q-8 4 -7.5 18t10.5 17l39 5
q33 5 46 21.5t34 85.5l139 442q6 19 2 23.5t-28 4.5h-41q-54 0 -84 -23q-42 -33 -71 -84q-7 -5 -22 -1t-15 13q56 116 75 167q11 11 28 1q0 -16 14.5 -21.5t63.5 -5.5z" />
    <glyph glyph-name="U" unicode="U" horiz-adv-x="731" 
d="M468 629l-25 -5q-32 -6 -45 -23t-34 -85l-72 -231q-19 -63 -21 -110q-2 -137 129 -137q82 0 131.5 62t82.5 168l44 141q26 85 39 143q9 37 2 51.5t-44 20.5l-30 5q-5 6 -4 17.5t9 16.5q81 -3 126 -3q47 0 116 3q7 -4 6.5 -16.5t-8.5 -17.5l-24 -6q-35 -9 -50.5 -22
t-28.5 -48q-20 -51 -49 -144l-46 -147q-24 -76 -48.5 -125t-66.5 -86q-35 -31 -89 -49t-112 -18q-223 0 -223 176q0 44 19 106l77 250q20 61 16 81.5t-41 27.5l-24 4q-8 4 -5 17t14 17q72 -3 145 -3q68 0 139 3q8 -4 6.5 -17.5t-11.5 -16.5z" />
    <glyph glyph-name="V" unicode="V" horiz-adv-x="652" 
d="M407 629l-36 -8q-26 -6 -27 -22q0 -21 7 -105l17 -205q5 -65 9 -111q57 76 71 97l62.5 90l75.5 109.5t60 93.5q16 25 16 35t-27 17l-35 9q-7 6 -5 18t12 16q98 -3 135 -3q58 0 100 3q7 -6 6 -17.5t-9 -16.5l-29 -6q-48 -10 -66 -30q-48 -52 -131 -172l-121 -172
l-173 -257q-13 -8 -35 -8q-16 0 -29 8q-2 13 -4 66.5t-6 96.5l-29 359q-5 66 -14 87t-36 25l-22 3q-6 7 -4.5 18.5t10.5 15.5q57 -3 130 -3q54 0 129 3q8 -4 7 -16.5t-9 -17.5z" />
    <glyph glyph-name="W" unicode="W" horiz-adv-x="966" 
d="M1153 629l-31 -7q-34 -8 -47 -23q-30 -33 -86 -109q-246 -335 -351 -498q-13 -8 -35 -8q-16 0 -26 8q-9 111 -35 264q-133 -181 -183 -264q-13 -8 -36 -8q-14 0 -27 8q-4 46 -28 207l-54 354q-7 44 -14.5 55t-31.5 16l-23 5q-8 8 -5.5 19t10.5 15q71 -3 124 -3
q68 0 113 3q7 -3 6.5 -16.5t-7.5 -17.5l-18 -3q-28 -4 -31 -15q-3 -12 7 -76l26 -174q23 -149 35 -211l61.5 83.5t65.5 90.5l-36 244q-5 36 -12.5 46t-30.5 13l-14 2q-6 6 -3.5 18.5t11.5 15.5q66 -3 125 -3q58 0 98 3q8 -2 8.5 -16t-8.5 -18l-18 -4q-33 -4 -36 -14
q-3 -14 0 -31l10 -69l13 -79l61 85q58 82 58 90q0 9 -19 14l-27 8q-7 7 -4.5 19.5t12.5 14.5q59 -3 106 -3q56 0 92 3q8 -4 7.5 -16.5t-7.5 -18.5l-30 -6q-27 -5 -42 -16t-54 -55q-29 -33 -77.5 -95t-65.5 -88q16 -115 34 -219l261 371q48 72 51 84q3 11 -16 17l-25 8
q-7 7 -4.5 18.5t11.5 15.5q55 -3 108 -3t87 3q7 -4 5.5 -16t-8.5 -18z" />
    <glyph glyph-name="X" unicode="X" horiz-adv-x="641" 
d="M190 620l-29 8q-6 9 -3.5 21t11.5 14q55 -3 147 -3q90 0 125 3q8 -5 8 -17.5t-8 -17.5l-31 -6q-35 -7 -35 -11q-1 -13 8 -41q13 -43 49 -144q87 82 146 152q17 21 17 30t-21 14l-32 6q-7 8 -4.5 19.5t11.5 15.5q60 -3 122 -3q66 0 111 3q8 -3 8 -16t-7 -19l-33 -7
q-52 -12 -101 -54q-80 -69 -202 -193q40 -134 88 -271q13 -36 25.5 -48.5t48.5 -18.5l26 -4q6 -6 4 -19t-9 -16q-48 3 -144 3q-86 0 -144 -3q-10 4 -10 18t10 17l30 4q35 5 35 17q0 23 -10 55l-27 86.5l-26 84.5q-109 -115 -171 -191q-20 -23 -20 -32q0 -11 42 -20l20 -4
q7 -5 4.5 -18.5t-11.5 -16.5q-74 3 -141 3q-69 0 -114 -3q-7 6 -6 18.5t9 16.5l28 4q25 5 42 13q50 25 97 72q160 160 204 211l-8 26q-32 102 -68 201q-9 25 -20.5 38.5t-18 16t-22.5 6.5z" />
    <glyph glyph-name="Y" unicode="Y" horiz-adv-x="594" 
d="M398 37l37 -5q5 -4 3 -17.5t-9 -17.5q-95 3 -162 3q-61 0 -151 -3q-8 4 -7 18t9 17l40 6q33 5 45.5 21t34.5 85l14 44q19 61 9 125l-41 227q-8 48 -17.5 65t-37.5 20l-22 3q-6 7 -4 19.5t11 15.5q80 -3 134 -3q62 0 131 3q9 -3 8.5 -17t-7.5 -18l-37 -7q-32 -6 -32 -22
q0 -15 6 -57q17 -118 39 -217l140 174q75 93 75 104t-21 16l-36 9q-8 5 -6 18t11 17q84 -3 125 -3q58 0 96 3q8 -3 7.5 -16.5t-8.5 -18.5l-25 -4q-27 -4 -43.5 -15t-50.5 -47q-76 -81 -188 -218q-33 -40 -46.5 -64t-25.5 -63l-23 -73q-14 -44 -16.5 -63.5t6.5 -29.5t35 -14z
" />
    <glyph glyph-name="Z" unicode="Z" horiz-adv-x="643" 
d="M513 614h-122q-62 0 -96 -23q-42 -28 -85 -91q-10 -5 -23.5 -1.5t-14.5 13.5q68 152 77 176q4 3 13 3t15 -2q0 -17 13.5 -23t63.5 -6h303q77 0 101 3q6 -2 7 -9.5t-4 -13.5q-20 -14 -87.5 -80t-119.5 -122l-161 -174q-181 -196 -181 -205q0 -13 91 -13h85q76 0 111 19
q56 31 107 107q6 6 21 4t17 -11q-16 -45 -41 -97.5t-42 -70.5q-174 3 -211 3h-259q-77 0 -93 -3q-16 4 -10 21q52 42 133 129l401 432q16 18 16 28q0 7 -25 7z" />
    <glyph glyph-name="bracketleft" unicode="[" horiz-adv-x="340" 
d="M44 -152l249 840q22 1 77 1q79 0 107 -4q4 -5 2.5 -15.5t-6.5 -13.5l-72 -11q-20 -3 -28 -10q-21 -21 -60 -152l-127 -430q-40 -135 -34 -152q2 -7 23 -10l60 -11q4 -6 3 -15t-6 -14q-32 -4 -111 -4q-55 0 -77 1z" />
    <glyph glyph-name="backslash" unicode="\" 
d="M198 676l191 -692h-91l-191 692h91z" />
    <glyph glyph-name="bracketright" unicode="]" horiz-adv-x="340" 
d="M376 688l-249 -840q-22 -1 -77 -1q-79 0 -107 4q-4 5 -2.5 15.5t6.5 13.5l72 11q20 3 28 10q21 21 60 152l127 430q40 135 34 152q-2 7 -23 10l-60 11q-4 6 -3 15t6 14q32 4 111 4q55 0 77 -1z" />
    <glyph glyph-name="asciicircum" unicode="^" horiz-adv-x="520" 
d="M501 244h-89l-111 263l-111 -263h-90l167 382h68z" />
    <glyph glyph-name="underscore" unicode="_" horiz-adv-x="500" 
d="M500 -75v-50h-500v50h500z" />
    <glyph glyph-name="grave" unicode="`" horiz-adv-x="380" 
d="M294 649l53 -176q-2 -20 -26 -16l-108 135q-16 21 -15 37q0 15 30 34q22 15 40 15q17 0 26 -29z" />
    <glyph glyph-name="a" unicode="a" horiz-adv-x="505" 
d="M347 400q21 0 44 -23l23 47q10 7 27 7q19 0 37 -6q28 -8 37 -26q-77 -191 -120 -316q-6 -21 2 -21q11 0 41.5 19.5t52.5 42.5q8 0 14 -6t5 -16q-34 -48 -91.5 -82.5t-108.5 -34.5q-18 0 -28.5 12.5t-10.5 26.5q0 13 11 42l30 77h-4q-48 -64 -112 -110.5t-116 -46.5
q-24 0 -42.5 19t-18.5 43q0 48 43 128t107 138q96 86 178 86zM367 318q-16 38 -42 38t-67 -52q-39 -49 -69 -113t-30 -105v-9q2 -16 14 -16q15 0 48 32t59 67q25 33 51 81.5t36 76.5z" />
    <glyph glyph-name="b" unicode="b" horiz-adv-x="512" 
d="M171 -14q-54 0 -84 27t-30 73q0 49 38 153l129 353q7 21 5 31t-16 19l-23 15q-6 15 5 24q23 10 84 21.5t100 12.5q10 -1 10 -10l-51 -130l-114 -296h2q41 56 91.5 95.5t98.5 39.5q53 0 76 -32t23 -69q0 -105 -79 -195q-113 -132 -265 -132zM393 317q0 18 -8.5 27.5
t-19.5 9.5q-21 0 -57.5 -30t-71.5 -84q-65 -98 -65 -168q0 -19 8 -30.5t18 -11.5q31 0 80 59q51 61 83 128t33 100z" />
    <glyph glyph-name="c" unicode="c" horiz-adv-x="379" 
d="M141 -14q-49 0 -75 31t-26 85q0 49 24.5 110t65.5 107q85 95 180 95q45 0 73.5 -20.5t28.5 -56.5q0 -28 -20 -45.5t-48 -17.5q-38 0 -40 37q-3 59 -20 59q-28 0 -62 -63q-49 -92 -49 -182q0 -66 42 -66q44 0 104 64q10 0 16 -6.5t5 -15.5q-28 -44 -83.5 -79.5
t-115.5 -35.5z" />
    <glyph glyph-name="d" unicode="d" horiz-adv-x="528" 
d="M352 414q36 0 54 -25l65 195q9 27 7.5 38.5t-14.5 18.5l-28 16q-6 15 5 24q23 10 84 21t97 13q10 -1 10 -10q-17 -45 -46 -130l-145 -435q-15 -43 -17 -64q0 -12 9 -12t39 20t52 43q19 -2 16 -23q-25 -37 -81.5 -77.5t-121.5 -40.5q-38 0 -38 42q0 14 20 72l23 66h-2
q-23 -35 -42.5 -59.5t-50 -55.5t-67 -48t-75.5 -17q-33 0 -53 26.5t-19 68.5q2 62 36 131t91 119q94 83 192 83zM232 247q-35 -50 -60 -105.5t-25 -76.5q0 -22 15 -22q14 0 57.5 35t75.5 77q59 76 82 147q9 28 5 48t-17 20q-14 0 -37 -17q-46 -34 -96 -106z" />
    <glyph glyph-name="e" unicode="e" horiz-adv-x="401" 
d="M332 414q43 0 70 -23t27 -57q0 -107 -252 -172q-5 -15 -5 -48q0 -22 11 -38.5t32 -16.5q60 0 130 70q8 0 14.5 -6.5t5.5 -16.5q-36 -57 -93.5 -88.5t-124.5 -31.5q-52 0 -79.5 32t-27.5 83q0 67 38 138.5t97 116.5q76 58 157 58zM297 370q-20 0 -43 -26q-48 -52 -69 -138
q55 16 95 57q15 15 25 40t11 44q0 9 -5 16t-14 7z" />
    <glyph glyph-name="f" unicode="f" horiz-adv-x="299" 
d="M387 348h-113l-48.5 -169.5t-56.5 -190.5q-39 -122 -73 -169q-26 -37 -69.5 -62.5t-94.5 -25.5q-42 0 -71.5 20t-29.5 57q0 24 20 44t41 20q19 0 28 -16q18 -33 34.5 -52t25.5 -19q16 0 38 80l131 483h-94q-5 15 0.5 31.5t14.5 20.5h94q33 106 69 170q81 145 216 145
q54 0 80 -22.5t26 -59.5q-1 -33 -23 -53.5t-41 -20.5q-20 0 -29 29q-12 44 -26 63.5t-26 19.5q-22 0 -55 -74q-30 -65 -66 -197h114q6 -10 1 -28t-17 -24z" />
    <glyph glyph-name="g" unicode="g" horiz-adv-x="416" 
d="M280 370q-25 0 -56 -41q-23 -31 -42.5 -80.5t-19.5 -82.5q0 -29 27 -29q32 0 72 74q16 28 30 67.5t14 59.5q0 15 -7.5 23.5t-17.5 8.5zM138 -269q-30 0 -59.5 4.5t-59.5 15t-49 31.5t-19 49q0 22 13 42t29 33t43 25.5t42.5 18t38.5 12.5q-39 27 -39 54q0 17 20.5 40
t42.5 39v2q-38 9 -63 37t-24 78q0 28 13.5 61t39.5 65.5t72.5 54t104.5 21.5q22 0 49 -10q7 -2 20 -9t18 -7q17 0 41 8q32 12 49 12q34 0 34 -41q0 -22 -10.5 -31.5t-22.5 -9.5t-28 6q-18 6 -25 6q-9 0 -7 -11q3 -24 3 -28q0 -84 -62 -143t-156 -63q-15 -13 -15 -24
q0 -17 70 -52q27 -13 38.5 -19t37 -23t38 -30.5t24 -34.5t11.5 -44q0 -37 -27 -65t-69 -42.5t-82 -21t-75 -6.5zM161 -64q-26 0 -54 -23q-32 -26 -32 -61q0 -33 33.5 -52.5t83.5 -19.5q42 0 69 14t27 37q0 35 -49 67q-60 38 -78 38z" />
    <glyph glyph-name="h" unicode="h" horiz-adv-x="510" 
d="M22 26l193 558q9 27 8 38.5t-14 18.5l-28 16q-6 15 5 24q24 10 85 21.5t98 12.5q8 -1 11 -10l-48 -130l-111 -312h2q39 53 89 92q72 59 130 59q35 0 55.5 -24t20.5 -65q0 -57 -30 -127.5t-69 -124.5q-28 -37 -68.5 -62t-83.5 -25q-22 0 -38 11t-16 30t12.5 32t23.5 13
t20 -11q18 -21 24 -21q7 0 19 30q28 66 53.5 142.5t25.5 110.5q0 27 -18 27q-16 0 -47 -27t-69 -77q-14 -18 -29.5 -43t-28 -48l-26 -49.5t-21.5 -44l-17 -36.5l-10 -21q-9 -18 -50 -18q-25 0 -42.5 9.5t-10.5 30.5z" />
    <glyph glyph-name="i" unicode="i" horiz-adv-x="309" 
d="M294 326l-104 -245q-7 -15 4 -15q10 0 42 22t52 41q9 0 15 -7t4 -17q-33 -44 -93 -81.5t-117 -37.5q-18 0 -32 14.5t-14 25.5q0 13 12 43l104 249q5 14 -2 14q-11 0 -42 -21t-47 -36q-9 1 -14 9t-2 15q39 48 99.5 81.5t101.5 33.5q17 0 31.5 -14t14.5 -30q0 -11 -13 -44z
M225 550q0 34 22.5 58.5t56.5 24.5q26 0 41 -15.5t15 -43.5q0 -34 -21 -57.5t-55 -23.5q-27 0 -43 16t-16 41z" />
    <glyph glyph-name="j" unicode="j" horiz-adv-x="300" 
d="M250 414q19 0 32 -14t13 -32q0 -41 -44 -178q-48 -148 -80 -237q-51 -140 -123 -189q-50 -33 -111 -33q-38 0 -68.5 20t-30.5 52q0 24 17 41.5t39 17.5q16 0 28 -17q41 -65 55 -65t30 40q20 47 105 322q49 156 50 171q0 15 -9 15q-13 0 -43 -23.5t-47 -40.5
q-9 1 -14.5 10t-2.5 17q38 44 94.5 83.5t109.5 39.5zM205 550q0 34 22.5 58.5t56.5 24.5q26 0 41 -15.5t15 -43.5q0 -34 -21 -57.5t-55 -23.5q-27 0 -43 16t-16 41z" />
    <glyph glyph-name="k" unicode="k" horiz-adv-x="493" 
d="M440 414q41 0 63 -21.5t22 -52.5q0 -56 -56 -103q-41 -34 -123 -56q-10 -3 -6 -17l3.5 -17.5t4.5 -20l5 -18.5t6 -18t7 -13.5t9 -10t11 -3.5q22 0 72 52q7 2 13.5 -3.5t8.5 -13.5q-21 -42 -65.5 -77t-96.5 -35q-42 0 -61 39q-15 30 -29 93q-6 28 -20 28q-15 0 -22 -7.5
t-15 -28.5l-41 -106q-7 -18 -47 -18q-25 0 -45 9.5t-13 30.5l189 558q9 27 7.5 38t-15.5 19l-28 16q-6 15 5 24q24 10 85.5 21t98.5 13q10 -1 10 -10l-48 -130l-99 -282h3q40 50 85 81q57 40 122 40zM361 343q-53 0 -140 -112q-21 -26 -21 -40q0 -7 16 -7q45 0 106 41
q71 49 71 86q0 15 -9 23.5t-23 8.5z" />
    <glyph glyph-name="l" unicode="l" horiz-adv-x="275" 
d="M96 -14q-64 0 -64 43q0 21 14 60l171 495q9 27 7.5 38.5t-14.5 18.5l-28 16q-6 15 5 24q24 10 85.5 21.5t98.5 12.5q10 -1 10 -10q-2 -5 -19 -52.5l-28 -78.5l-164 -475q-16 -46 1 -46q15 0 46.5 29.5t57.5 59.5q8 1 14 -5.5t5 -16.5q-69 -134 -198 -134z" />
    <glyph glyph-name="m" unicode="m" horiz-adv-x="774" 
d="M230 414q33 0 41.5 -21.5t-2.5 -41.5l-45 -118h2q125 181 223 181q55 0 55 -58q0 -20 -43 -123h3q53 83 111.5 132t111.5 49q32 0 49 -19t17 -42q0 -34 -20 -86l-74 -179q-9 -22 4 -22q23 0 89 68q8 2 14.5 -3.5t5.5 -15.5q-26 -46 -84.5 -87.5t-126.5 -41.5
q-17 0 -30 12.5t-13 26.5q0 18 15 54q62 145 85 209q13 35 13 47q0 14 -14 14q-23 0 -73 -64q-54 -67 -152 -277q-10 -22 -41 -22q-35 0 -54.5 8.5t-14.5 23.5q8 25 104 270q14 34 14 47q0 14 -14 14q-28 0 -82 -68q-58 -73 -145 -277q-8 -18 -39 -18q-34 0 -53.5 8.5
t-14.5 23.5q2 6 23 65.5l45.5 128l30.5 85.5q8 25 6.5 33t-13.5 8q-7 0 -14 -2t-14 -6.5l-12 -7.5t-12.5 -10.5l-10 -10t-10.5 -11.5l-8 -9q-8 -1 -14.5 5t-7.5 14q23 51 71.5 82.5t117.5 31.5z" />
    <glyph glyph-name="n" unicode="n" horiz-adv-x="544" 
d="M236 414q21 0 30.5 -11.5t8.5 -24.5t-6 -27l-47 -123h4q29 40 49 65t51.5 57t65 48t68.5 16q31 0 47 -18t16 -40q0 -37 -20 -89l-74 -179q-9 -22 4 -22q11 0 39.5 22.5t49.5 45.5q8 2 14.5 -3.5t5.5 -15.5q-26 -46 -84.5 -87.5t-125.5 -41.5q-17 0 -30 12.5t-13 26.5
q0 18 15 54q62 145 85 209q13 35 13 47q0 14 -13 14q-26 0 -76 -64q-59 -75 -155 -281q-9 -18 -48 -18q-25 0 -43 9.5t-11 30.5l96 271q13 36 -4 36q-29 0 -85 -54q-16 0 -18 16q21 43 77.5 81t113.5 38z" />
    <glyph glyph-name="o" unicode="o" horiz-adv-x="468" 
d="M317 370q-23 0 -54 -38q-33 -42 -66 -119t-33 -142q0 -41 31 -41q33 0 74 67q26 43 51 111.5t25 119.5q0 42 -28 42zM310 414q75 0 111 -42.5t36 -103.5q0 -55 -25 -113t-68 -99q-73 -70 -170 -70q-72 0 -109 40.5t-36 98.5q1 60 28.5 122t76.5 104q73 63 156 63z" />
    <glyph glyph-name="p" unicode="p" horiz-adv-x="508" 
d="M321 454l-20 -57q18 3 28 3q88 0 127.5 -40.5t39.5 -106.5q0 -42 -21 -91.5t-54 -82.5q-91 -93 -206 -93q-19 0 -41 10q-9 -1 -14 -17l-45 -133q-6 -19 -7 -30.5t6.5 -20.5t25.5 -11l42 -4q9 -4 7.5 -17.5t-12.5 -16.5h-71q-76 0 -206 -11q-9 4 -10.5 16.5t5.5 18.5l32 5
q31 5 44 21.5t31 68.5l158 464q-39 -8 -104 -43q-9 1 -13 11.5t1 17.5q13 15 58.5 38t74.5 31l29 75q16 14 48 14q58 0 67 -19zM286 346l-89 -259q-9 -27 5 -41q15 -16 31 -16q26 0 59 40q33 39 54.5 93t21.5 103q0 41 -19 61.5t-47 20.5q-4 0 -16 -2z" />
    <glyph glyph-name="q" unicode="q" horiz-adv-x="508" 
d="M360 414q43 0 66 -49q27 41 54 73q13 5 31 1t24 -17l-61 -195l-116 -381q-11 -41 -4 -53.5t37 -14.5l25 -2q6 -7 5 -17.5t-6 -14.5q-133 -3 -284 -29q-8 6 -8 17t7 16l33 8q35 9 48 24t27 60l98 309h-2l-28 -39t-35 -41.5t-46.5 -42.5t-54 -27.5t-65.5 -12.5
q-35 0 -53 30t-18 63q0 101 88 209q53 65 116.5 95.5t121.5 30.5zM373 328q0 19 -7.5 32t-17.5 13q-8 0 -21 -7.5t-38 -35t-52 -71.5q-41 -67 -61 -120t-20 -73q0 -23 17 -23q14 0 50.5 28.5t72.5 76.5q77 102 77 180z" />
    <glyph glyph-name="r" unicode="r" horiz-adv-x="397" 
d="M397 414q49 0 49 -60q0 -40 -22 -69t-44 -29q-9 0 -15 7t-8.5 14.5t-5.5 24.5q-4 23 -16 23q-20 0 -69 -87q-13 -23 -24.5 -46t-23.5 -50.5l-18.5 -43l-20.5 -49.5t-18 -45q-8 -18 -48 -18q-25 0 -43.5 9.5t-11.5 30.5q16 52 49.5 151.5l44.5 131.5q10 32 -4 32
q-13 0 -37.5 -18t-45.5 -43q-9 1 -14.5 8t-3.5 15q19 38 63.5 74.5t93.5 36.5q75 0 43 -96l-36 -106h5q52 93 83 133q51 69 98 69z" />
    <glyph glyph-name="s" unicode="s" horiz-adv-x="324" 
d="M254 414q41 0 69.5 -23t28.5 -57q0 -26 -15.5 -39t-30.5 -13q-11 0 -23 14q-50 57 -79 57q-10 0 -18 -8t-8 -18q0 -19 26 -45l38 -39q51 -52 51 -102q0 -62 -60 -111q-52 -44 -125 -44q-38 0 -68.5 21t-30.5 56q0 24 14.5 41t34.5 17q9 0 31 -22q49 -52 79 -52
q13 0 23.5 9t10.5 20q0 21 -29 51l-33 35q-49 51 -49 101q0 60 56 109q51 42 107 42z" />
    <glyph glyph-name="t" unicode="t" horiz-adv-x="321" 
d="M380 348h-101l-93 -259q-8 -23 6 -23q13 0 44 23t62 54q22 -1 20 -23q-30 -45 -96 -89.5t-122 -44.5q-20 0 -33 13t-13 30q0 21 11 54l91 265h-74q-7 6 -4 19.5t12 18.5l87 18l72 96q12 8 34 8q28 0 37 -17l-27 -91h92q11 -11 7.5 -28.5t-12.5 -23.5z" />
    <glyph glyph-name="u" unicode="u" horiz-adv-x="543" 
d="M258 414q17 0 31 -13.5t14 -28.5q0 -16 -5 -28l-99 -243q-11 -27 8 -27q13 0 38 21q87 74 200 311q18 8 37 8q42 0 70 -22l-114 -295q-9 -28 5 -28q11 0 40.5 22t50.5 43q18 -3 18 -23q-24 -42 -88 -83.5t-122 -41.5q-20 0 -31.5 15t-2.5 36l56 142h-2
q-50 -70 -119.5 -131.5t-123.5 -61.5q-25 0 -40 15t-15 37q0 20 15 59l83 209q4 10 3 18t-7 8q-7 0 -19 -7t-22 -14.5t-26 -21l-22 -18.5q-18 7 -17 24q32 43 92.5 81t113.5 38z" />
    <glyph glyph-name="v" unicode="v" horiz-adv-x="460" 
d="M243 414q22 0 35 -15.5t13 -34.5q0 -20 -16 -63l-55 -148q-16 -45 -16 -64q0 -10 5.5 -19t17.5 -9q15 0 41.5 19t51.5 55q20 29 35 74t15 71q0 52 -9 73q1 29 17.5 45t43.5 16q57 0 57 -75q0 -57 -52 -141.5t-122 -140.5q-88 -71 -163 -71q-29 0 -46.5 23.5t-17.5 45.5
q0 37 15 80l59 162q14 35 -2 35q-22 0 -83 -58q-7 0 -13 5t-7 11q22 44 79 84t117 40z" />
    <glyph glyph-name="w" unicode="w" horiz-adv-x="690" 
d="M242 414q22 0 35 -15.5t13 -34.5q0 -20 -16 -63l-55 -148q-22 -59 -24 -78q0 -14 11 -14q20 0 55 36q53 56 79 109t41 121q8 37 24 57.5t30 25t34 4.5t36 -12t16 -32q0 -28 -30 -83q-57 -107 -57 -181q0 -41 27 -41q18 0 44.5 23.5t46.5 59.5q42 77 42 156q0 33 -5 53
q2 27 19.5 42t43.5 15q58 0 58 -75q-2 -111 -120 -237q-52 -56 -111 -86t-95 -30q-24 0 -43 18t-19 44q0 17 18 74h-3q-2 -2 -22.5 -24.5t-31.5 -32.5q-88 -79 -155 -79q-29 0 -44.5 20t-15.5 39q0 29 23 90l61 162q13 35 -3 35q-22 0 -83 -58q-17 0 -19 16q22 44 79 84
t116 40z" />
    <glyph glyph-name="x" unicode="x" horiz-adv-x="453" 
d="M329 262l-33 -37l25 -79q23 -71 36 -71q17 0 54 62q6 6 16.5 5t14.5 -10q-18 -59 -53.5 -102.5t-80.5 -43.5q-52 0 -78 76l-22 67l-57 -69q-62 -74 -117 -74q-20 0 -33 13.5t-13 36.5q0 27 20 57t39 30q10 0 22 -30q8 -18 21 -18q14 0 70 67l32 38l-30 95q-12 38 -21 38
q-18 0 -52 -51q-8 -4 -17 0t-10 12q13 44 51 92t87 48q39 0 59 -65l23 -75l36 43q43 52 72.5 74.5t60.5 22.5q22 0 35 -16t13 -37q0 -34 -14.5 -59.5t-34.5 -25.5q-15 0 -22 22q-8 25 -24 25q-22 0 -75 -61z" />
    <glyph glyph-name="y" unicode="y" horiz-adv-x="425" 
d="M176 414q41 0 64 -41.5t25 -139.5q2 -115 -8 -205h3q66 128 91 283q9 51 10 61q5 42 34 42q25 0 43.5 -11.5t19.5 -33.5q0 -10 -10.5 -46t-35.5 -96t-56 -116q-117 -210 -190 -286q-89 -94 -175 -94q-30 0 -53 18.5t-24 49.5q-1 28 17 46.5t43 18.5q24 0 44 -29
q24 -34 46 -34q17 0 40 26q31 36 42 94q15 77 12 206q-5 198 -39 198q-14 0 -32 -26t-31 -55q-7 -6 -18.5 -3t-14.5 11q9 26 20.5 49.5t30 51.5t45 44.5t57.5 16.5z" />
    <glyph glyph-name="z" unicode="z" horiz-adv-x="442" 
d="M-1 25q0 25 51 69q49 41 131 104l109 84q13 11 -2 17q-69 25 -130 25q-10 0 -17 -5.5t-7 -13.5q0 -9 11.5 -23t11.5 -21q0 -12 -11 -21.5t-27 -10.5q-22 -1 -37 13t-15 34q0 43 54 91q47 40 111 40q33 0 85 -19q38 -13 57 -13q28 0 53 34q18 2 31.5 -13t7.5 -36
l-294 -236v-4q39 0 92 -29q67 -36 86 -36q29 0 29 20q0 11 -12 36t-12 38q0 11 8.5 19.5t22.5 8.5q27 0 45.5 -22.5t17.5 -46.5q-1 -51 -52 -90q-50 -39 -108 -39q-47 0 -106 32q-46 24 -72 24q-35 0 -53 -48q-30 -2 -44.5 10t-14.5 28z" />
    <glyph glyph-name="braceleft" unicode="{" horiz-adv-x="340" 
d="M97 -35q11 43 41 117.5t36 94.5l6 33t-14 29t-55 16q-3 6 -1.5 14.5t5.5 11.5q31 1 53 8.5t34 21.5t17.5 26t10.5 29q8 27 21 96.5t24 107.5q12 41 32 67.5t49 38.5t56 15.5t66 2.5q7 -4 6 -14.5t-8 -14.5q-60 -7 -84 -31t-36 -65q-9 -29 -19 -96.5t-19 -99.5
q-25 -85 -102 -103l-1 -4q70 -19 44 -104q-10 -32 -41 -100.5t-38 -95.5q-23 -86 55 -98q4 -5 2.5 -14t-6.5 -12q-71 -2 -111.5 26t-22.5 97z" />
    <glyph glyph-name="bar" unicode="|" horiz-adv-x="248" 
d="M198 750v-1000h-88v1000h88z" />
    <glyph glyph-name="braceright" unicode="}" horiz-adv-x="340" 
d="M322 571q-11 -43 -41 -117.5t-36 -94.5l-6 -33t14 -29t55 -16q3 -6 1.5 -14.5t-5.5 -11.5q-31 -1 -53 -8.5t-34 -21.5t-17.5 -26t-10.5 -29q-8 -27 -21 -96.5t-24 -107.5q-12 -41 -32 -67.5t-49 -38.5t-56 -15.5t-66 -2.5q-7 4 -6 14.5t8 14.5q60 7 84 31t36 65
q9 29 19 96.5t19 99.5q25 85 102 103l1 4q-70 19 -44 104q10 32 41 100.5t38 95.5q23 86 -55 98q-4 5 -2.5 14t6.5 12q71 2 111.5 -26t22.5 -97z" />
    <glyph glyph-name="asciitilde" unicode="~" horiz-adv-x="520" 
d="M206 249h127q34 0 52 16.5t33 57.5q12 8 30 3.5t26 -18.5q-17 -64 -55 -105q-22 -26 -76 -26h-138q-30 0 -49.5 -19.5t-35.5 -59.5q-11 -7 -30.5 -3.5t-23.5 16.5q2 19 17.5 52.5t32.5 55.5q16 19 36 24.5t54 5.5z" />
    <glyph glyph-name="uni00A0" unicode="&#xa0;" horiz-adv-x="240" 
 />
    <glyph glyph-name="exclamdown" unicode="&#xa1;" horiz-adv-x="247" 
d="M15 -266q-33 0 -48.5 10t-11.5 31q2 11 44 117l112 283q7 5 19.5 5t20.5 -5l-36 -281q-13 -99 -18 -119q-12 -41 -82 -41zM175 394q30 0 49.5 -19t19.5 -51q0 -37 -24.5 -65.5t-62.5 -28.5q-30 0 -48.5 20t-18.5 54q0 38 24.5 64t60.5 26z" />
    <glyph glyph-name="cent" unicode="&#xa2;" horiz-adv-x="520" 
d="M297 191l97 290q-71 -4 -111.5 -60t-40.5 -124q0 -82 55 -106zM438 471l-98 -294q7 -2 21 -2q65 0 120 46q9 0 14.5 -7t4.5 -16q-69 -90 -183 -91l-31 -95q-8 -8 -24.5 -8t-23.5 8l32 97q-80 11 -119 60.5t-39 110.5q0 114 85.5 181t202.5 67h9l26 78q7 8 23.5 8t24.5 -8
l-27 -82q50 -7 85 -23q10 -10 10 -34q0 -21 -13 -43t-28 -22q-7 0 -12 5q-2 2 -15 18.5t-25.5 30t-19.5 15.5z" />
    <glyph glyph-name="sterling" unicode="&#xa3;" horiz-adv-x="520" 
d="M315 340h122q5 -7 0 -22t-15 -23h-117q-13 0 -17.5 -2.5t-6.5 -11.5q-14 -62 -47.5 -98.5t-87.5 -64.5l1 -2q18 2 65 -6q24 -3 87 -35q50 -25 82 -25q20 0 24 16t-3 53q-3 20 8.5 31.5t27.5 11.5q19 0 31.5 -18t3.5 -58q-9 -39 -55 -82.5t-96 -43.5q-49 0 -114 45
q-68 46 -107 46q-29 0 -43 -38q-5 -10 -29 -18.5t-46 -8.5q-19 0 -14 18q5 25 62 65q99 70 118 214q1 5 1 7t-1 2.5t-5.5 1t-8.5 1.5h-81q-5 5 -0.5 20.5t15.5 24.5h76q10 0 12.5 1.5t3.5 7.5q3 15 9 37q27 118 94.5 186t165.5 68q55 0 83 -25q13 -11 9 -33
q-5 -14 -22 -30.5t-25 -16.5q-10 0 -21 10q-35 41 -70 41q-46 0 -69 -128q-11 -57 -17 -103q-2 -10 1 -12.5t16 -2.5z" />
    <glyph glyph-name="currency" unicode="&#xa4;" horiz-adv-x="520" 
d="M306 450q-51 0 -87.5 -38.5t-36.5 -98.5t36.5 -98.5t87.5 -38.5t87.5 39t36.5 98t-36.5 98t-87.5 39zM306 527q70 0 119 -36l37 49q22 -2 41.5 -19t23.5 -41l-46 -42q41 -48 41 -125t-41 -125l46 -42q-4 -24 -23.5 -41t-41.5 -19l-37 49q-49 -36 -119 -36t-119 36
l-37 -49q-22 2 -41.5 19t-23.5 41l46 42q-41 48 -41 125t41 125l-46 42q4 24 23.5 41t41.5 19l37 -49q49 36 119 36z" />
    <glyph glyph-name="yen" unicode="&#xa5;" horiz-adv-x="520" 
d="M334 243h145q6 -7 1 -22t-15 -23h-145l-24 -82q-13 -54 -9.5 -67t24.5 -16l25 -3q5 -4 1 -16.5t-12 -16.5q-63 3 -127 3q-59 0 -134 -3q-5 5 -1.5 16.5t10.5 16.5l25 3q28 3 42.5 19t30.5 64l26 82h-145q-5 8 0 23t15 22h144l24 76h-144q-5 7 -0.5 22.5t14.5 22.5h130
l-42 169q-6 27 -16 42t-32 18l-21 3q-5 5 -1.5 17.5t14.5 15.5q72 -3 139 -3q69 0 90 3q8 -2 8.5 -14.5t-7.5 -18.5l-28 -7q-24 -7 -27 -17q-2 -9 7 -56q11 -62 31 -133l93 111q56 71 59 78q2 6 -4 11t-18 8l-21 5q-5 6 -2.5 17.5t7.5 15.5q78 -3 105 -3q39 0 76 3
q8 -3 7 -15.5t-8 -17.5l-23 -6q-26 -7 -43 -20t-55 -56l-136 -150h130q6 -7 1 -22t-15 -23h-145z" />
    <glyph glyph-name="brokenbar" unicode="&#xa6;" horiz-adv-x="248" 
d="M198 675v-350h-88v350h88zM198 175v-350h-88v350h88z" />
    <glyph glyph-name="section" unicode="&#xa7;" horiz-adv-x="540" 
d="M470 676q28 0 48 -10t29 -25.5t13 -27t4 -20.5q0 -20 -15 -36.5t-31 -16.5t-29 24q-33 63 -80 63q-21 0 -38.5 -16t-18.5 -44q-2 -53 76 -142q89 -101 85 -215q-3 -69 -58 -148t-135 -132.5t-151 -53.5q-59 0 -90.5 29.5t-31.5 67.5q0 21 11.5 35.5t24.5 14.5
q11 0 24 -11t28 -28t25 -24q33 -23 60 -23q25 0 44 13t19 42q0 27 -16.5 61t-32 55.5t-52.5 68.5q-63 81 -63 171q0 80 58.5 158t140 124t152.5 46zM282 229q49 -66 62 -113q17 -56 -5 -112l2 -1q81 59 81 158q0 94 -67 177q-54 67 -68.5 115.5t2.5 102.5q-31 -13 -55.5 -55
t-26.5 -83q-2 -45 14 -87t61 -102z" />
    <glyph glyph-name="dieresis" unicode="&#xa8;" horiz-adv-x="380" 
d="M213 487q-27 0 -42.5 17t-11.5 45q4 27 22.5 44t45.5 17q26 0 42 -18t12 -46q-4 -26 -23 -42.5t-45 -16.5zM398 487q-27 0 -42.5 17t-11.5 45q4 27 23 44t46 17q26 0 41.5 -18t11.5 -46q-5 -26 -23 -42.5t-45 -16.5z" />
    <glyph glyph-name="copyright" unicode="&#xa9;" horiz-adv-x="820" 
d="M506 149q-60 0 -103.5 18t-65 47t-31 57.5t-9.5 57.5q0 82 56.5 135.5t152.5 53.5q25 0 47 -3t44.5 -8.5t24.5 -5.5q2 -15 9 -103q-4 -5 -13.5 -6t-13.5 3q-26 88 -94 88q-41 0 -73.5 -36t-32.5 -113q0 -74 33 -112t79 -38q58 0 103 83q4 5 13 4t13 -6q-5 -54 -26 -89
q-41 -27 -113 -27zM474 -16q-145 0 -247.5 101.5t-102.5 244.5t102.5 244.5t247.5 101.5t247.5 -101.5t102.5 -244.5t-102.5 -244.5t-247.5 -101.5zM756 331q0 125 -83 211.5t-199 86.5t-199 -86.5t-83 -211.5t83 -212.5t199 -87.5t199 87.5t83 212.5z" />
    <glyph glyph-name="ordfeminine" unicode="&#xaa;" horiz-adv-x="406" 
d="M339 530q16 0 34 -16l17 33q8 5 20 5q14 0 31 -5q26 -9 31 -18q-58 -132 -89 -217q-5 -14 3 -14q6 0 28.5 14t39.5 30q7 0 11.5 -6.5t2.5 -14.5q-26 -34 -70 -57.5t-87 -23.5q-15 0 -24.5 9t-9.5 18t9 29l19 46h-3q-33 -40 -80.5 -71t-87.5 -31q-20 0 -35 13t-15 31
q0 33 32.5 89t81.5 96q74 61 141 61zM200 312v-6q0 -8 7 -8q9 0 34 21t42 43q20 24 40 57t26 49q-10 26 -29 26q-20 0 -46 -31q-29 -34 -51.5 -79t-22.5 -72z" />
    <glyph glyph-name="guillemotleft" unicode="&#xab;" horiz-adv-x="470" 
d="M286 382l-110 -159q-9 -14 -5 -28l46 -163q-5 -18 -26 -16q-81 122 -119 174q-14 18 7 36l182 173q22 0 25 -17zM464 382l-110 -159q-9 -14 -5 -28l46 -163q-5 -18 -26 -16q-81 122 -119 174q-14 18 7 36l182 173q22 0 25 -17z" />
    <glyph glyph-name="logicalnot" unicode="&#xac;" horiz-adv-x="520" 
d="M393 67v183h-313v72h401v-255h-88z" />
    <glyph glyph-name="uni00AD" unicode="&#xad;" horiz-adv-x="320" 
d="M63 237l239 22q14 -16 14 -42q0 -23 -13 -39l-240 -22q-15 15 -15 40q0 22 15 41z" />
    <glyph glyph-name="registered" unicode="&#xae;" horiz-adv-x="350" 
d="M268 505v63q0 21 -13 22h-5q-2 3 -1.5 7t3.5 5q50 2 66 2q60 0 60 -37q0 -22 -22 -31q-3 -1 0 -8q18 -35 30 -44q9 -6 11 -6q1 0 1 -3.5t-1 -4.5q-6 -1 -17 -1q-28 0 -44 23q-2 3 -17 28q-3 6 -10 6q-5 0 -5 -5v-16q0 -13 2 -17.5t12 -5.5l4 -1q2 -1 2 -5.5t-2 -5.5
q-6 0 -17.5 0.5t-18.5 0.5t-18 -0.5t-16 -0.5q-3 1 -3.5 5.5t1.5 5.5l5 1q9 2 11 6t2 17zM304 580v-33q0 -6 2 -7t10 -1q20 0 20 22q0 28 -19 28q-9 0 -11 -1.5t-2 -7.5zM318 676q59 0 101 -41t42 -99t-42 -99t-101 -41t-101 41t-42 99t42 99t101 41zM318 652q-45 0 -77 -34
t-32 -82t32 -81.5t77 -33.5t77 33.5t32 81.5q0 49 -32 82.5t-77 33.5z" />
    <glyph glyph-name="macron" unicode="&#xaf;" horiz-adv-x="380" 
d="M408 506h-223q-7 12 -3 37.5t15 34.5h223q8 -12 4 -36t-16 -36z" />
    <glyph glyph-name="degree" unicode="&#xb0;" 
d="M301 640q62 0 104.5 -39.5t42.5 -102.5q0 -65 -42.5 -103.5t-104.5 -38.5t-104.5 38.5t-42.5 103.5q0 63 42.5 102.5t104.5 39.5zM379 498q0 43 -22 70.5t-56 27.5t-56 -27.5t-22 -70.5t22 -70.5t56 -27.5q37 0 57.5 27t20.5 71z" />
    <glyph glyph-name="plusminus" unicode="&#xb1;" horiz-adv-x="520" 
d="M305 110h-88v157h-157v72h157v149h88v-149h156v-72h-156v-157zM461 0h-401v72h401v-72z" />
    <glyph glyph-name="twosuperior" unicode="&#xb2;" 
d="M291 315h-118q-54 0 -76 -2q-10 8 -3 20q49 33 118 88l58.5 47.5t40.5 38t31 43.5t8 42q0 25 -14.5 41.5t-41.5 16.5q-48 0 -87 -59q-9 -2 -16 3t-9 14q23 46 67.5 73t93.5 27q53 0 90 -29.5t37 -80.5q0 -58 -69 -107q-19 -13 -79 -49l-59 -35q-12 -7 -10.5 -13t16.5 -6
h78q25 0 36.5 5t29.5 26q16 7 24 -8q-24 -70 -54 -98q-54 2 -92 2z" />
    <glyph glyph-name="threesuperior" unicode="&#xb3;" 
d="M351 708q38 0 68 -20t30 -57q0 -54 -93 -77q-8 -2 -2 -7q3 -2 7 -2q32 -4 56.5 -29.5t24.5 -64.5q0 -81 -103 -136q-77 -39 -169 -39q-35 0 -60 13.5t-24 41.5q0 18 12 30t31 12q9 0 17.5 -5t13 -10t10.5 -14t7 -10q13 -18 35 -18q46 0 77 37.5t31 88.5q0 26 -16 44.5
t-42 18.5q-34 0 -63 -25q-14 4 -18.5 17t3.5 23q73 18 121 48q40 24 40 53q0 16 -12 25.5t-32 9.5q-43 0 -82 -42q-9 -2 -15 3.5t-5 14.5q61 76 152 76z" />
    <glyph glyph-name="acute" unicode="&#xb4;" horiz-adv-x="380" 
d="M288 475l103 168q17 28 33 26q14 -1 36 -18q24 -24 23 -37q-2 -17 -24 -34l-148 -123q-21 -2 -23 18z" />
    <glyph glyph-name="mu" unicode="&#xb5;" horiz-adv-x="539" 
d="M256 414q17 0 31 -13.5t14 -28.5q0 -16 -5 -28l-99 -243q-11 -27 8 -27q13 0 38 21q90 81 200 311q18 8 37 8q42 0 70 -22l-114 -295q-9 -28 5 -28q11 0 40.5 22t50.5 43q18 -3 18 -23q-24 -42 -88 -83.5t-122 -41.5q-20 0 -31.5 15t-2.5 36l49 125h-2
q-44 -59 -111.5 -117.5t-114.5 -58.5q-10 0 -22 10q-10 -2 -16 -23l-12 -38q-11 -32 -9.5 -83.5t0.5 -54.5q-8 -24 -37.5 -41t-63.5 -17q-29 0 -18 31l211 536q4 10 3 18t-7 8q-7 0 -19 -7t-22 -14.5t-26 -21l-22 -18.5q-18 7 -17 24q32 43 92.5 81t113.5 38z" />
    <glyph glyph-name="paragraph" unicode="&#xb6;" horiz-adv-x="510" 
d="M494 433l-131 -441q-21 -69 -44 -114t-58 -69t-84 -24q-37 0 -67 20t-30 61q0 24 13 43.5t33 24.5q21 1 35.5 -9.5t16.5 -24.5q-18 -18 -18 -41q-1 -16 8.5 -25.5t24.5 -9.5q22 0 46 27t44 92l43 142q10 31 -11 31q-69 0 -130 45t-61 129q0 129 119 198q90 52 250 52
q87 0 117 -6q6 -4 3 -15t-11 -16l-36 -6q-41 -7 -50.5 -15.5t-21.5 -48.5z" />
    <glyph glyph-name="periodcentered" unicode="&#xb7;" horiz-adv-x="260" 
d="M162 292q30 0 48.5 -20t18.5 -54q0 -38 -24.5 -64t-60.5 -26q-30 0 -49.5 19t-19.5 51q0 37 24.5 65.5t62.5 28.5z" />
    <glyph glyph-name="cedilla" unicode="&#xb8;" horiz-adv-x="380" 
d="M161 0h53l-38 -52q-6 -8 -4.5 -11.5t12.5 -11.5q48 -38 48 -82q0 -40 -38 -66t-88 -26q-77 0 -77 44q0 14 9 23t23 9t35.5 -18t31.5 -18t18 6.5t8 18.5q0 46 -61 70l-4 9z" />
    <glyph glyph-name="onesuperior" unicode="&#xb9;" 
d="M153 340l29 4q21 3 30.5 14.5t23.5 53.5l54 160q10 26 8 38.5t-22 15.5l-26 4q-5 4 -3.5 14t8.5 14q105 16 179 50q7 0 10.5 -2t2.5 -6q-2 -8 -14 -39.5t-18 -48.5l-66 -200q-13 -38 -10.5 -51.5t21.5 -16.5l26 -4q3 -4 1.5 -14t-7.5 -13q-84 2 -120 2q-46 0 -108 -2
q-7 3 -6 12.5t7 14.5z" />
    <glyph glyph-name="ordmasculine" unicode="&#xba;" horiz-adv-x="380" 
d="M200 302q0 -26 24 -26t50 42q20 32 39 79t19 81q0 26 -20 26q-15 0 -36 -22q-26 -29 -51 -82.5t-25 -97.5zM104 345q0 37 20.5 78.5t56.5 70.5q57 46 123 46q63 0 92 -30t29 -74q0 -37 -18.5 -77t-50.5 -70q-55 -49 -134 -49q-61 0 -90 29.5t-28 75.5z" />
    <glyph glyph-name="guillemotright" unicode="&#xbb;" horiz-adv-x="470" 
d="M46 33l110 159q9 14 5 28l-46 163q5 18 26 16q81 -122 119 -174q14 -18 -7 -36l-182 -173q-22 0 -25 17zM224 33l110 159q9 14 5 28l-46 163q5 18 26 16q81 -122 119 -174q14 -18 -7 -36l-182 -173q-22 0 -25 17z" />
    <glyph glyph-name="onequarter" unicode="&#xbc;" horiz-adv-x="840" 
d="M533 146h71q10 0 13.5 3t6.5 14l22 75q4 16 25 23q45 17 87 17q11 0 8 -10l-31 -105q-2 -8 -2 -11t2.5 -4.5t9.5 -1.5h40q8 -3 5 -18t-13 -20h-44q-10 0 -13 -2.5t-7 -15.5l-4 -14q-9 -29 -6 -38.5t27 -11.5l13 -1q5 -4 4 -13.5t-8 -13.5q-88 2 -107 2q-41 0 -113 -2
q-6 3 -4.5 13t7.5 14l20 2q31 3 39.5 10.5t16.5 38.5l4 14q4 13 2.5 15.5t-12.5 2.5h-153q-9 6 1 23l300 283q14 12 23 12h29q14 0 5 -13q-2 -4 -8 -9l-269 -248q-7 -9 13 -10zM93 272l29 4q21 3 30.5 14.5t23.5 53.5l54 160q10 26 8 38.5t-22 15.5l-26 4q-5 4 -3.5 14
t8.5 14q105 16 179 50q7 0 10.5 -2t2.5 -6q-2 -8 -14 -39.5t-18 -48.5l-66 -200q-13 -38 -10.5 -51.5t21.5 -16.5l26 -4q3 -4 1.5 -14t-7.5 -13q-84 2 -120 2q-46 0 -108 -2q-7 3 -6 12.5t7 14.5zM749 624l-537 -664q-15 -3 -27.5 7t-11.5 27l533 660q40 2 43 -30z" />
    <glyph glyph-name="onehalf" unicode="&#xbd;" horiz-adv-x="840" 
d="M83 272l29 4q21 3 30.5 14.5t23.5 53.5l54 160q10 26 8 38.5t-22 15.5l-26 4q-5 4 -3.5 14t8.5 14q105 16 179 50q7 0 10.5 -2t2.5 -6q-2 -8 -14 -39.5t-18 -48.5l-66 -200q-13 -38 -10.5 -51.5t21.5 -16.5l26 -4q3 -4 1.5 -14t-7.5 -13q-84 2 -120 2q-46 0 -108 -2
q-7 3 -6 12.5t7 14.5zM741 624l-537 -664q-15 -3 -27.5 7t-11.5 27l533 660q40 2 43 -30zM648 0h-118q-54 0 -76 -2q-10 8 -3 20q49 33 118 88l58.5 47.5t40.5 38t31 43.5t8 42q0 25 -14.5 41.5t-41.5 16.5q-48 0 -87 -59q-9 -2 -16 3t-9 14q23 46 67.5 73t93.5 27
q53 0 90 -29.5t37 -80.5q0 -58 -69 -107q-19 -13 -79 -49l-59 -35q-12 -7 -10.5 -13t16.5 -6h78q25 0 36.5 5t29.5 26q16 7 24 -8q-24 -70 -54 -98q-54 2 -92 2z" />
    <glyph glyph-name="threequarters" unicode="&#xbe;" horiz-adv-x="840" 
d="M552 146h71q10 0 13.5 3t6.5 14l22 75q4 16 25 23q45 17 87 17q11 0 8 -10l-31 -105q-2 -8 -2 -11t2.5 -4.5t9.5 -1.5h40q8 -3 5 -18t-13 -20h-44q-10 0 -13 -2.5t-7 -15.5l-4 -14q-9 -29 -6 -38.5t27 -11.5l13 -1q5 -4 4 -13.5t-8 -13.5q-88 2 -107 2q-41 0 -113 -2
q-6 3 -4.5 13t7.5 14l20 2q31 3 39.5 10.5t16.5 38.5l4 14q4 13 2.5 15.5t-12.5 2.5h-153q-9 6 1 23l300 283q14 12 23 12h29q14 0 5 -13q-2 -4 -8 -9l-269 -248q-7 -9 13 -10zM326 640q38 0 68 -20t30 -57q0 -54 -93 -77q-8 -2 -2 -7q3 -2 7 -2q32 -4 56.5 -29.5
t24.5 -64.5q0 -81 -103 -136q-77 -39 -169 -39q-35 0 -60 13.5t-24 41.5q0 18 12 30t31 12q9 0 17.5 -5t13 -10t10.5 -14t7 -10q13 -18 35 -18q46 0 77 37.5t31 88.5q0 26 -16 44.5t-42 18.5q-34 0 -63 -25q-14 4 -18.5 17t3.5 23q73 18 121 48q40 24 40 53q0 16 -12 25.5
t-32 9.5q-43 0 -82 -42q-9 -2 -15 3.5t-5 14.5q61 76 152 76zM779 624l-537 -664q-15 -3 -27.5 7t-11.5 27l533 660q40 2 43 -30z" />
    <glyph glyph-name="questiondown" unicode="&#xbf;" horiz-adv-x="350" 
d="M104 -266q-54 0 -99 50.5t-45 118.5q0 42 27.5 77t77.5 56l76 31q35 14 50 27.5t15 30.5q0 27 -4 47q4 6 14 7.5t17 -2.5q33 -46 33 -100q0 -44 -27.5 -72t-84.5 -48l-74 -26q-65 -23 -65 -46q0 -17 17.5 -28.5t44.5 -11.5q31 0 51 4q36 6 37 6q17 0 27.5 -12t10.5 -29
q0 -31 -26.5 -55.5t-72.5 -24.5zM251 394q30 0 49.5 -19t19.5 -51q0 -37 -24.5 -65.5t-62.5 -28.5q-30 0 -48.5 20t-18.5 54q0 38 24.5 64t60.5 26z" />
    <glyph glyph-name="Agrave" unicode="&#xc0;" horiz-adv-x="600" 
d="M353 226h-124q-18 0 -23 -0.5t-10 -4.5t-11 -15l-66 -106q-19 -34 -19 -44q0 -12 33 -18l36 -5q8 -5 6 -18.5t-11 -17.5q-75 3 -135 3q-54 0 -96 -3q-10 4 -11 17.5t6 18.5l24 4q38 6 56.5 21t56.5 70l269 396q60 91 64 109q16 1 32 6t28.5 11t22.5 12t15 10l6 4h2
q18 0 18 -16q0 -88 -3.5 -266t-3.5 -266q0 -57 7 -73t41 -20l24 -3q6 -4 5 -18t-8 -17q-56 3 -141 3t-132 -3q-9 3 -9.5 16.5t4.5 18.5l23 3q32 4 41.5 13.5t10.5 29.5l4 127q1 15 -4 18t-28 3zM265 279h96q18 0 21.5 4t4.5 23l6 123q3 82 5 107h-2l-63 -98l-87 -137
q-9 -13 -5.5 -17.5t24.5 -4.5zM381 850l157 -115q5 -15 -11 -29l-190 62q-26 8 -31 24q-4 16 10 42q16 30 33 30q13 0 32 -14z" />
    <glyph glyph-name="Aacute" unicode="&#xc1;" horiz-adv-x="600" 
d="M353 226h-124q-18 0 -23 -0.5t-10 -4.5t-11 -15l-66 -106q-19 -34 -19 -44q0 -12 33 -18l36 -5q8 -5 6 -18.5t-11 -17.5q-75 3 -135 3q-54 0 -96 -3q-10 4 -11 17.5t6 18.5l24 4q38 6 56.5 21t56.5 70l269 396q60 91 64 109q16 1 32 6t28.5 11t22.5 12t15 10l6 4h2
q18 0 18 -16q0 -88 -3.5 -266t-3.5 -266q0 -57 7 -73t41 -20l24 -3q6 -4 5 -18t-8 -17q-56 3 -141 3t-132 -3q-9 3 -9.5 16.5t4.5 18.5l23 3q32 4 41.5 13.5t10.5 29.5l4 127q1 15 -4 18t-28 3zM265 279h96q18 0 21.5 4t4.5 23l6 123q3 82 5 107h-2l-63 -98l-87 -137
q-9 -13 -5.5 -17.5t24.5 -4.5zM412 730l157 118q21 16 32 16q17 0 33 -30q14 -26 10 -42q-5 -16 -31 -24l-190 -62q-16 6 -11 24z" />
    <glyph glyph-name="Acircumflex" unicode="&#xc2;" horiz-adv-x="600" 
d="M353 226h-124q-18 0 -23 -0.5t-10 -4.5t-11 -15l-66 -106q-19 -34 -19 -44q0 -12 33 -18l36 -5q8 -5 6 -18.5t-11 -17.5q-75 3 -135 3q-54 0 -96 -3q-10 4 -11 17.5t6 18.5l24 4q38 6 56.5 21t56.5 70l269 396q60 91 64 109q16 1 32 6t28.5 11t22.5 12t15 10l6 4h2
q18 0 18 -16q0 -88 -3.5 -266t-3.5 -266q0 -57 7 -73t41 -20l24 -3q6 -4 5 -18t-8 -17q-56 3 -141 3t-132 -3q-9 3 -9.5 16.5t4.5 18.5l23 3q32 4 41.5 13.5t10.5 29.5l4 127q1 15 -4 18t-28 3zM265 279h96q18 0 21.5 4t4.5 23l6 123q3 82 5 107h-2l-63 -98l-87 -137
q-9 -13 -5.5 -17.5t24.5 -4.5zM615 707l-119 61q-16 9 -35 0l-133 -61q-8 0 -12 8t1 17l148 124q27 24 49 0l117 -124q2 -8 -3.5 -16t-12.5 -9z" />
    <glyph glyph-name="Atilde" unicode="&#xc3;" horiz-adv-x="600" 
d="M353 226h-124q-18 0 -23 -0.5t-10 -4.5t-11 -15l-66 -106q-19 -34 -19 -44q0 -12 33 -18l36 -5q8 -5 6 -18.5t-11 -17.5q-75 3 -135 3q-54 0 -96 -3q-10 4 -11 17.5t6 18.5l24 4q38 6 56.5 21t56.5 70l269 396q60 91 64 109q16 1 32 6t28.5 11t22.5 12t15 10l6 4h2
q18 0 18 -16q0 -88 -3.5 -266t-3.5 -266q0 -57 7 -73t41 -20l24 -3q6 -4 5 -18t-8 -17q-56 3 -141 3t-132 -3q-9 3 -9.5 16.5t4.5 18.5l23 3q32 4 41.5 13.5t10.5 29.5l4 127q1 15 -4 18t-28 3zM265 279h96q18 0 21.5 4t4.5 23l6 123q3 82 5 107h-2l-63 -98l-87 -137
q-9 -13 -5.5 -17.5t24.5 -4.5zM523 746h-54q-38 0 -58.5 -11.5t-40.5 -42.5q-8 -3 -20.5 -1.5t-15.5 7.5q5 20 19.5 49t27.5 43q27 28 70 28h65q30 0 48 9t30 38q28 6 37 -5q-13 -53 -39 -86q-21 -28 -69 -28z" />
    <glyph glyph-name="Adieresis" unicode="&#xc4;" horiz-adv-x="600" 
d="M353 226h-124q-18 0 -23 -0.5t-10 -4.5t-11 -15l-66 -106q-19 -34 -19 -44q0 -12 33 -18l36 -5q8 -5 6 -18.5t-11 -17.5q-75 3 -135 3q-54 0 -96 -3q-10 4 -11 17.5t6 18.5l24 4q38 6 56.5 21t56.5 70l269 396q60 91 64 109q16 1 32 6t28.5 11t22.5 12t15 10l6 4h2
q18 0 18 -16q0 -88 -3.5 -266t-3.5 -266q0 -57 7 -73t41 -20l24 -3q6 -4 5 -18t-8 -17q-56 3 -141 3t-132 -3q-9 3 -9.5 16.5t4.5 18.5l23 3q32 4 41.5 13.5t10.5 29.5l4 127q1 15 -4 18t-28 3zM265 279h96q18 0 21.5 4t4.5 23l6 123q3 82 5 107h-2l-63 -98l-87 -137
q-9 -13 -5.5 -17.5t24.5 -4.5zM387 833q27 0 42.5 -17.5t11.5 -44.5q-4 -26 -22.5 -42.5t-45.5 -16.5q-25 0 -40 17.5t-11 43.5t22 43t43 17zM586 833q27 0 42.5 -17.5t11.5 -44.5q-4 -26 -22.5 -42.5t-45.5 -16.5q-25 0 -40 17.5t-11 43.5t22 43t43 17z" />
    <glyph glyph-name="Aring" unicode="&#xc5;" horiz-adv-x="600" 
d="M353 226h-124q-18 0 -23 -0.5t-10 -4.5t-11 -15l-66 -106q-19 -34 -19 -44q0 -12 33 -18l36 -5q8 -5 6 -18.5t-11 -17.5q-75 3 -135 3q-54 0 -96 -3q-10 4 -11 17.5t6 18.5l24 4q38 6 56.5 21t56.5 70l269 396q60 91 64 109q16 1 32 6t28.5 11t22.5 12t15 10l6 4h2
q18 0 18 -16q0 -88 -3.5 -266t-3.5 -266q0 -57 7 -73t41 -20l24 -3q6 -4 5 -18t-8 -17q-56 3 -141 3t-132 -3q-9 3 -9.5 16.5t4.5 18.5l23 3q32 4 41.5 13.5t10.5 29.5l4 127q1 15 -4 18t-28 3zM265 279h96q18 0 21.5 4t4.5 23l6 123q3 82 5 107h-2l-63 -98l-87 -137
q-9 -13 -5.5 -17.5t24.5 -4.5zM484 886q46 0 74.5 -29.5t28.5 -68.5q0 -40 -28.5 -69.5t-74.5 -29.5t-74.5 29.5t-28.5 69.5q0 39 28.5 68.5t74.5 29.5zM484 850q-21 -1 -33 -19t-12 -44t12 -44t33 -18t33 18t12 44t-12 44t-33 19z" />
    <glyph glyph-name="AE" unicode="&#xc6;" horiz-adv-x="848" 
d="M409 317h-112q-16 0 -24.5 -6t-25.5 -26q-4 -5 -6 -8q-108 -130 -158 -203q-18 -28 3 -31l52 -11q6 -6 5 -18t-10 -17q-65 3 -126 3q-55 0 -103 -3q-6 6 -6 17.5t7 17.5l27 5q25 4 47.5 19.5t64.5 66.5l358 426q17 21 25 32.5t10 20t-3.5 12.5t-18.5 6l-54 8
q-9 5 -7 17.5t13 17.5q74 -3 184 -3h259q114 0 136 3q-26 -64 -51 -157q-4 -8 -18.5 -9t-19.5 5q4 52 -4 77q-12 35 -84 35h-78q-26 0 -33 -6t-16 -34l-55 -174q-7 -21 -4 -25.5t23 -4.5h66q39 0 55.5 10t35.5 46l13 24q8 7 22 6.5t16 -7.5q-6 -16 -37 -106q-2 -5 -30 -106
q-6 -6 -20.5 -6.5t-17.5 5.5l3 25q4 36 -6.5 46t-49.5 10h-66q-20 0 -26 -5t-12 -25l-38 -122q-24 -74 -14 -94q7 -14 26 -19.5t72 -5.5q51 0 75.5 5t56.5 30t72 80q8 6 22 4.5t18 -10.5q-13 -39 -37 -88.5t-40 -69.5q-97 3 -241 3h-123q-70 0 -145 -3q-8 4 -6.5 18t11.5 17
l34 5q36 5 49 21.5t35 85.5l46 144q7 18 4 23.5t-20 5.5zM338 370h77q22 0 29.5 3.5t11.5 18.5l58 183q9 29 9 39h-5q-4 -2 -37 -41l-149 -187q-9 -10 -8 -13t14 -3z" />
    <glyph glyph-name="Ccedilla" unicode="&#xc7;" horiz-adv-x="658" 
d="M296 -105l63 92q-129 10 -196 81t-66 179q1 92 41.5 175.5t101.5 137.5q130 116 324 116q108 0 200 -37q-20 -46 -49 -155q-5 -8 -20 -8t-18 8q7 76 -22.5 111t-99.5 35q-82 0 -154 -59.5t-112 -149t-40 -182.5q0 -112 45.5 -160.5t110.5 -48.5q59 0 107 34.5t103 108.5
q8 6 21.5 4t15.5 -10q-28 -88 -71 -158q-2 0 -61.5 -12t-109.5 -13l-27 -36q-6 -8 -4.5 -11.5t12.5 -11.5q48 -38 48 -82q0 -40 -38 -66t-88 -26q-77 0 -77 44q0 14 9 23t23 9t35.5 -18t31.5 -18t18 6.5t8 18.5q0 46 -61 70z" />
    <glyph glyph-name="Egrave" unicode="&#xc8;" horiz-adv-x="596" 
d="M371 850l157 -115q5 -15 -11 -29l-190 62q-26 8 -31 24q-4 16 10 42q16 30 33 30q13 0 32 -14zM336 660h222q114 0 136 3q-26 -64 -51 -157q-4 -8 -18.5 -9t-19.5 5q4 52 -4 77q-12 35 -84 35h-78q-26 0 -33 -6t-16 -34l-55 -174q-7 -21 -4 -25.5t23 -4.5h66
q39 0 55.5 10t35.5 46l13 24q8 7 22 6.5t16 -7.5q-6 -16 -37 -106q-2 -5 -30 -106q-6 -6 -20.5 -6.5t-17.5 5.5l3 25q4 36 -6.5 46t-49.5 10h-66q-20 0 -26 -5t-12 -25l-38 -122q-24 -74 -14 -95q7 -14 26.5 -19t71.5 -5q51 0 75.5 5t56.5 30t72 80q8 6 22 4.5t18 -10.5
q-13 -39 -37 -88.5t-40 -69.5q-97 3 -241 3h-130q-70 0 -145 -3q-8 4 -6.5 18t11.5 17l34 5q36 5 49.5 21.5t34.5 85.5l117 372q20 61 16.5 81.5t-37.5 26.5l-24 4q-7 5 -5 18t12 17q70 -3 137 -3z" />
    <glyph glyph-name="Eacute" unicode="&#xc9;" horiz-adv-x="596" 
d="M410 730l157 118q21 16 32 16q17 0 33 -30q14 -26 10 -42q-5 -16 -31 -24l-190 -62q-16 6 -11 24zM336 660h222q114 0 136 3q-26 -64 -51 -157q-4 -8 -18.5 -9t-19.5 5q4 52 -4 77q-12 35 -84 35h-78q-26 0 -33 -6t-16 -34l-55 -174q-7 -21 -4 -25.5t23 -4.5h66
q39 0 55.5 10t35.5 46l13 24q8 7 22 6.5t16 -7.5q-6 -16 -37 -106q-2 -5 -30 -106q-6 -6 -20.5 -6.5t-17.5 5.5l3 25q4 36 -6.5 46t-49.5 10h-66q-20 0 -26 -5t-12 -25l-38 -122q-24 -74 -14 -95q7 -14 26.5 -19t71.5 -5q51 0 75.5 5t56.5 30t72 80q8 6 22 4.5t18 -10.5
q-13 -39 -37 -88.5t-40 -69.5q-97 3 -241 3h-130q-70 0 -145 -3q-8 4 -6.5 18t11.5 17l34 5q36 5 49.5 21.5t34.5 85.5l117 372q20 61 16.5 81.5t-37.5 26.5l-24 4q-7 5 -5 18t12 17q70 -3 137 -3z" />
    <glyph glyph-name="Ecircumflex" unicode="&#xca;" horiz-adv-x="596" 
d="M613 706l-119 62q-16 9 -35 0l-133 -62q-8 0 -12 8t1 17l149 125q26 23 48 0l118 -125q1 -8 -4.5 -16t-12.5 -9zM336 660h222q114 0 136 3q-26 -64 -51 -157q-4 -8 -18.5 -9t-19.5 5q4 52 -4 77q-12 35 -84 35h-78q-26 0 -33 -6t-16 -34l-55 -174q-7 -21 -4 -25.5
t23 -4.5h66q39 0 55.5 10t35.5 46l13 24q8 7 22 6.5t16 -7.5q-6 -16 -37 -106q-2 -5 -30 -106q-6 -6 -20.5 -6.5t-17.5 5.5l3 25q4 36 -6.5 46t-49.5 10h-66q-20 0 -26 -5t-12 -25l-38 -122q-24 -74 -14 -95q7 -14 26.5 -19t71.5 -5q51 0 75.5 5t56.5 30t72 80q8 6 22 4.5
t18 -10.5q-13 -39 -37 -88.5t-40 -69.5q-97 3 -241 3h-130q-70 0 -145 -3q-8 4 -6.5 18t11.5 17l34 5q36 5 49.5 21.5t34.5 85.5l117 372q20 61 16.5 81.5t-37.5 26.5l-24 4q-7 5 -5 18t12 17q70 -3 137 -3z" />
    <glyph glyph-name="Edieresis" unicode="&#xcb;" horiz-adv-x="596" 
d="M381 833q27 0 42.5 -17.5t11.5 -44.5q-4 -26 -22.5 -42.5t-45.5 -16.5q-25 0 -40 17.5t-11 43.5t22 43t43 17zM580 833q27 0 42.5 -17.5t11.5 -44.5q-4 -26 -22.5 -42.5t-45.5 -16.5q-25 0 -40 17.5t-11 43.5t22 43t43 17zM336 660h222q114 0 136 3q-26 -64 -51 -157
q-4 -8 -18.5 -9t-19.5 5q4 52 -4 77q-12 35 -84 35h-78q-26 0 -33 -6t-16 -34l-55 -174q-7 -21 -4 -25.5t23 -4.5h66q39 0 55.5 10t35.5 46l13 24q8 7 22 6.5t16 -7.5q-6 -16 -37 -106q-2 -5 -30 -106q-6 -6 -20.5 -6.5t-17.5 5.5l3 25q4 36 -6.5 46t-49.5 10h-66
q-20 0 -26 -5t-12 -25l-38 -122q-24 -74 -14 -95q7 -14 26.5 -19t71.5 -5q51 0 75.5 5t56.5 30t72 80q8 6 22 4.5t18 -10.5q-13 -39 -37 -88.5t-40 -69.5q-97 3 -241 3h-130q-70 0 -145 -3q-8 4 -6.5 18t11.5 17l34 5q36 5 49.5 21.5t34.5 85.5l117 372q20 61 16.5 81.5
t-37.5 26.5l-24 4q-7 5 -5 18t12 17q70 -3 137 -3z" />
    <glyph glyph-name="Igrave" unicode="&#xcc;" horiz-adv-x="366" 
d="M280 37l28 -5q5 -4 2.5 -17.5t-9.5 -17.5q-79 3 -150 3q-70 0 -145 -3q-8 4 -6 18.5t13 16.5l27 5q33 6 46 22.5t34 84.5l117 372q20 61 16 80.5t-41 26.5l-28 5q-6 4 -4 17.5t11 17.5q84 -3 154 -3q66 0 141 3q8 -4 6.5 -18t-11.5 -17l-29 -5q-33 -5 -46 -22t-34 -85
l-117 -372q-14 -44 -16.5 -63t6.5 -29t35 -15zM256 850l157 -115q5 -15 -11 -29l-190 62q-26 8 -31 24q-4 16 10 42q16 30 33 30q13 0 32 -14z" />
    <glyph glyph-name="Iacute" unicode="&#xcd;" horiz-adv-x="366" 
d="M280 37l28 -5q5 -4 2.5 -17.5t-9.5 -17.5q-79 3 -150 3q-70 0 -145 -3q-8 4 -6 18.5t13 16.5l27 5q33 6 46 22.5t34 84.5l117 372q20 61 16 80.5t-41 26.5l-28 5q-6 4 -4 17.5t11 17.5q84 -3 154 -3q66 0 141 3q8 -4 6.5 -18t-11.5 -17l-29 -5q-33 -5 -46 -22t-34 -85
l-117 -372q-14 -44 -16.5 -63t6.5 -29t35 -15zM295 730l157 118q21 16 32 16q17 0 33 -30q14 -26 10 -42q-5 -16 -31 -24l-190 -62q-16 6 -11 24z" />
    <glyph glyph-name="Icircumflex" unicode="&#xce;" horiz-adv-x="366" 
d="M280 37l28 -5q5 -4 2.5 -17.5t-9.5 -17.5q-79 3 -150 3q-70 0 -145 -3q-8 4 -6 18.5t13 16.5l27 5q33 6 46 22.5t34 84.5l117 372q20 61 16 80.5t-41 26.5l-28 5q-6 4 -4 17.5t11 17.5q84 -3 154 -3q66 0 141 3q8 -4 6.5 -18t-11.5 -17l-29 -5q-33 -5 -46 -22t-34 -85
l-117 -372q-14 -44 -16.5 -63t6.5 -29t35 -15zM501 706l-119 62q-16 9 -35 0l-133 -62q-8 0 -12 8t1 17l149 125q26 23 48 0l118 -125q1 -8 -4.5 -16t-12.5 -9z" />
    <glyph glyph-name="Idieresis" unicode="&#xcf;" horiz-adv-x="366" 
d="M280 37l28 -5q5 -4 2.5 -17.5t-9.5 -17.5q-79 3 -150 3q-70 0 -145 -3q-8 4 -6 18.5t13 16.5l27 5q33 6 46 22.5t34 84.5l117 372q20 61 16 80.5t-41 26.5l-28 5q-6 4 -4 17.5t11 17.5q84 -3 154 -3q66 0 141 3q8 -4 6.5 -18t-11.5 -17l-29 -5q-33 -5 -46 -22t-34 -85
l-117 -372q-14 -44 -16.5 -63t6.5 -29t35 -15zM266 833q27 0 42.5 -17.5t11.5 -44.5q-4 -26 -22.5 -42.5t-45.5 -16.5q-25 0 -40 17.5t-11 43.5t22 43t43 17zM465 833q27 0 42.5 -17.5t11.5 -44.5q-4 -26 -22.5 -42.5t-45.5 -16.5q-25 0 -40 17.5t-11 43.5t22 43t43 17z" />
    <glyph glyph-name="Eth" unicode="&#xd0;" horiz-adv-x="777" 
d="M92 370h105l47 151q17 51 15 68.5t-27 23.5l-29 7q-7 6 -5 18t11 16q97 9 220 9q173 -2 261 -61q108 -73 108 -218t-102 -250q-137 -140 -402 -140q-21 0 -67 3t-72 3q-68 0 -143 -3q-8 4 -6.5 18.5t11.5 15.5l29 5q33 5 46 22t34 86l54 173h-100q-6 9 -2 27.5t14 25.5z
M432 317h-117l-51 -162q-14 -43 -14 -70q-1 -21 16.5 -33t49.5 -12q105 0 196 76q68 56 102 138t34 160q0 25 -3 48t-15 53t-32 51t-57 36t-86 15q-32 0 -41 -7t-19 -39l-63 -201h112q5 -10 2 -28.5t-14 -24.5z" />
    <glyph glyph-name="Ntilde" unicode="&#xd1;" horiz-adv-x="722" 
d="M150 251l82 265q20 61 16.5 82t-40.5 26l-28 4q-7 4 -4.5 17.5t11.5 17.5q78 -3 126 -3q47 0 80 3q-2 -14 2.5 -33.5t18.5 -55t23.5 -57.5l33.5 -76l47 -104q43 -96 63 -134q8 12 23 62l43 144q30 103 39 143q9 37 2 52t-44 20l-30 4q-7 7 -5 18.5t12 16.5q79 -3 124 -3
q47 0 116 3q6 -4 5.5 -17t-7.5 -18l-24 -5q-34 -7 -50 -20.5t-29 -49.5q-31 -87 -48 -144l-73 -239q-13 -43 -47 -167q-13 -11 -63 -11q-1 0 -9 20.5l-22 56.5t-26 63l-107 243q-60 139 -65 149q-7 -16 -25 -78l-59 -195q-33 -108 -39 -143q-8 -37 -1 -51t43 -20l30 -5
q4 -6 3.5 -18t-8.5 -17q-81 3 -126 3q-48 0 -115 -3q-7 4 -7 17t9 18l23 5q35 8 50.5 21.5t28.5 48.5q22 64 47 144zM582 746h-54q-38 0 -58.5 -11.5t-40.5 -42.5q-8 -3 -20.5 -1.5t-15.5 7.5q5 20 19.5 49t27.5 43q27 28 70 28h65q30 0 48 9t30 38q28 6 37 -5
q-13 -53 -39 -86q-21 -28 -69 -28z" />
    <glyph glyph-name="Ograve" unicode="&#xd2;" horiz-adv-x="758" 
d="M99 251q0 95 43 184.5t117 150.5q110 90 247 90q39 0 75.5 -8.5t73.5 -29t64.5 -51.5t44.5 -81t17 -112q0 -78 -33.5 -158.5t-89.5 -137.5q-45 -46 -117.5 -80t-156.5 -34q-81 0 -140 25.5t-89 68t-43 85t-13 88.5zM517 630q-52 0 -107 -43q-65 -52 -116.5 -163
t-51.5 -227q0 -75 33.5 -121t94.5 -46q74 0 137 72q66 76 98.5 171.5t32.5 191.5q0 84 -32.5 124.5t-88.5 40.5zM452 850l157 -115q5 -15 -11 -29l-190 62q-26 8 -31 24q-4 16 10 42q16 30 33 30q13 0 32 -14z" />
    <glyph glyph-name="Oacute" unicode="&#xd3;" horiz-adv-x="758" 
d="M99 251q0 95 43 184.5t117 150.5q110 90 247 90q39 0 75.5 -8.5t73.5 -29t64.5 -51.5t44.5 -81t17 -112q0 -78 -33.5 -158.5t-89.5 -137.5q-45 -46 -117.5 -80t-156.5 -34q-81 0 -140 25.5t-89 68t-43 85t-13 88.5zM517 630q-52 0 -107 -43q-65 -52 -116.5 -163
t-51.5 -227q0 -75 33.5 -121t94.5 -46q74 0 137 72q66 76 98.5 171.5t32.5 191.5q0 84 -32.5 124.5t-88.5 40.5zM471 730l157 118q21 16 32 16q17 0 33 -30q14 -26 10 -42q-5 -16 -31 -24l-190 -62q-16 6 -11 24z" />
    <glyph glyph-name="Ocircumflex" unicode="&#xd4;" horiz-adv-x="758" 
d="M99 251q0 95 43 184.5t117 150.5q110 90 247 90q39 0 75.5 -8.5t73.5 -29t64.5 -51.5t44.5 -81t17 -112q0 -78 -33.5 -158.5t-89.5 -137.5q-45 -46 -117.5 -80t-156.5 -34q-81 0 -140 25.5t-89 68t-43 85t-13 88.5zM517 630q-52 0 -107 -43q-65 -52 -116.5 -163
t-51.5 -227q0 -75 33.5 -121t94.5 -46q74 0 137 72q66 76 98.5 171.5t32.5 191.5q0 84 -32.5 124.5t-88.5 40.5zM669 706l-119 62q-16 9 -35 0l-133 -62q-8 0 -12 8t1 17l149 125q26 23 48 0l118 -125q1 -8 -4.5 -16t-12.5 -9z" />
    <glyph glyph-name="Otilde" unicode="&#xd5;" horiz-adv-x="758" 
d="M99 251q0 95 43 184.5t117 150.5q110 90 247 90q39 0 75.5 -8.5t73.5 -29t64.5 -51.5t44.5 -81t17 -112q0 -78 -33.5 -158.5t-89.5 -137.5q-45 -46 -117.5 -80t-156.5 -34q-81 0 -140 25.5t-89 68t-43 85t-13 88.5zM517 630q-52 0 -107 -43q-65 -52 -116.5 -163
t-51.5 -227q0 -75 33.5 -121t94.5 -46q74 0 137 72q66 76 98.5 171.5t32.5 191.5q0 84 -32.5 124.5t-88.5 40.5zM580 746h-54q-38 0 -58.5 -11.5t-40.5 -42.5q-8 -3 -20.5 -1.5t-15.5 7.5q5 20 19.5 49t27.5 43q27 28 70 28h65q30 0 48 9t30 38q28 6 37 -5q-13 -53 -39 -86
q-21 -28 -69 -28z" />
    <glyph glyph-name="Odieresis" unicode="&#xd6;" horiz-adv-x="758" 
d="M99 251q0 95 43 184.5t117 150.5q110 90 247 90q39 0 75.5 -8.5t73.5 -29t64.5 -51.5t44.5 -81t17 -112q0 -78 -33.5 -158.5t-89.5 -137.5q-45 -46 -117.5 -80t-156.5 -34q-81 0 -140 25.5t-89 68t-43 85t-13 88.5zM517 630q-52 0 -107 -43q-65 -52 -116.5 -163
t-51.5 -227q0 -75 33.5 -121t94.5 -46q74 0 137 72q66 76 98.5 171.5t32.5 191.5q0 84 -32.5 124.5t-88.5 40.5zM442 833q27 0 42.5 -17.5t11.5 -44.5q-4 -26 -22.5 -42.5t-45.5 -16.5q-25 0 -40 17.5t-11 43.5t22 43t43 17zM641 833q27 0 42.5 -17.5t11.5 -44.5
q-4 -26 -22.5 -42.5t-45.5 -16.5q-25 0 -40 17.5t-11 43.5t22 43t43 17z" />
    <glyph glyph-name="multiply" unicode="&#xd7;" horiz-adv-x="520" 
d="M468 351l-146 -147l146 -146l-52 -54l-147 147l-145 -147l-51 54l144 145l-144 145l51 54l146 -146l146 148z" />
    <glyph glyph-name="Oslash" unicode="&#xd8;" horiz-adv-x="758" 
d="M634 525l-370 -433q33 -62 107 -62q78 0 139 71q65 76 97.5 172t32.5 192q0 36 -6 60zM245 149l368 431q-31 50 -96 50q-54 0 -109 -43q-65 -52 -116.5 -163t-51.5 -227q0 -29 5 -48zM753 665l-50 -59q78 -75 78 -210q0 -84 -33 -161.5t-90 -136.5q-45 -46 -117.5 -80
t-156.5 -34q-107 0 -175 44l-61 -72q-12 0 -24 11t-15 23l60 70q-70 73 -70 191q0 95 43 184.5t117 150.5q110 90 247 90q88 0 155 -39l51 60q12 1 24.5 -8t16.5 -24z" />
    <glyph glyph-name="Ugrave" unicode="&#xd9;" horiz-adv-x="731" 
d="M468 629l-25 -5q-32 -6 -45 -23t-34 -85l-72 -231q-19 -63 -21 -110q-2 -137 129 -137q82 0 131.5 62t82.5 168l44 141q26 85 39 143q9 37 2 51.5t-44 20.5l-30 5q-5 6 -4 17.5t9 16.5q81 -3 126 -3q47 0 116 3q7 -4 6.5 -16.5t-8.5 -17.5l-24 -6q-35 -9 -50.5 -22
t-28.5 -48q-20 -51 -49 -144l-46 -147q-24 -76 -48.5 -125t-66.5 -86q-35 -31 -89 -49t-112 -18q-223 0 -223 176q0 44 19 106l77 250q20 61 16 81.5t-41 27.5l-24 4q-8 4 -5 17t14 17q72 -3 145 -3q68 0 139 3q8 -4 6.5 -17.5t-11.5 -16.5zM449 850l157 -115q5 -15 -11 -29
l-190 62q-26 8 -31 24q-4 16 10 42q16 30 33 30q13 0 32 -14z" />
    <glyph glyph-name="Uacute" unicode="&#xda;" horiz-adv-x="731" 
d="M468 629l-25 -5q-32 -6 -45 -23t-34 -85l-72 -231q-19 -63 -21 -110q-2 -137 129 -137q82 0 131.5 62t82.5 168l44 141q26 85 39 143q9 37 2 51.5t-44 20.5l-30 5q-5 6 -4 17.5t9 16.5q81 -3 126 -3q47 0 116 3q7 -4 6.5 -16.5t-8.5 -17.5l-24 -6q-35 -9 -50.5 -22
t-28.5 -48q-20 -51 -49 -144l-46 -147q-24 -76 -48.5 -125t-66.5 -86q-35 -31 -89 -49t-112 -18q-223 0 -223 176q0 44 19 106l77 250q20 61 16 81.5t-41 27.5l-24 4q-8 4 -5 17t14 17q72 -3 145 -3q68 0 139 3q8 -4 6.5 -17.5t-11.5 -16.5zM478 730l157 118q21 16 32 16
q17 0 33 -30q14 -26 10 -42q-5 -16 -31 -24l-190 -62q-16 6 -11 24z" />
    <glyph glyph-name="Ucircumflex" unicode="&#xdb;" horiz-adv-x="731" 
d="M468 629l-25 -5q-32 -6 -45 -23t-34 -85l-72 -231q-19 -63 -21 -110q-2 -137 129 -137q82 0 131.5 62t82.5 168l44 141q26 85 39 143q9 37 2 51.5t-44 20.5l-30 5q-5 6 -4 17.5t9 16.5q81 -3 126 -3q47 0 116 3q7 -4 6.5 -16.5t-8.5 -17.5l-24 -6q-35 -9 -50.5 -22
t-28.5 -48q-20 -51 -49 -144l-46 -147q-24 -76 -48.5 -125t-66.5 -86q-35 -31 -89 -49t-112 -18q-223 0 -223 176q0 44 19 106l77 250q20 61 16 81.5t-41 27.5l-24 4q-8 4 -5 17t14 17q72 -3 145 -3q68 0 139 3q8 -4 6.5 -17.5t-11.5 -16.5zM691 706l-119 62q-16 9 -35 0
l-133 -62q-8 0 -12 8t1 17l149 125q26 23 48 0l118 -125q1 -8 -4.5 -16t-12.5 -9z" />
    <glyph glyph-name="Udieresis" unicode="&#xdc;" horiz-adv-x="731" 
d="M468 629l-25 -5q-32 -6 -45 -23t-34 -85l-72 -231q-19 -63 -21 -110q-2 -137 129 -137q82 0 131.5 62t82.5 168l44 141q26 85 39 143q9 37 2 51.5t-44 20.5l-30 5q-5 6 -4 17.5t9 16.5q81 -3 126 -3q47 0 116 3q7 -4 6.5 -16.5t-8.5 -17.5l-24 -6q-35 -9 -50.5 -22
t-28.5 -48q-20 -51 -49 -144l-46 -147q-24 -76 -48.5 -125t-66.5 -86q-35 -31 -89 -49t-112 -18q-223 0 -223 176q0 44 19 106l77 250q20 61 16 81.5t-41 27.5l-24 4q-8 4 -5 17t14 17q72 -3 145 -3q68 0 139 3q8 -4 6.5 -17.5t-11.5 -16.5zM459 833q27 0 42.5 -17.5
t11.5 -44.5q-4 -26 -22.5 -42.5t-45.5 -16.5q-25 0 -40 17.5t-11 43.5t22 43t43 17zM658 833q27 0 42.5 -17.5t11.5 -44.5q-4 -26 -22.5 -42.5t-45.5 -16.5q-25 0 -40 17.5t-11 43.5t22 43t43 17z" />
    <glyph glyph-name="Yacute" unicode="&#xdd;" horiz-adv-x="594" 
d="M398 37l37 -5q5 -4 3 -17.5t-9 -17.5q-95 3 -162 3q-61 0 -151 -3q-8 4 -7 18t9 17l40 6q33 5 45.5 21t34.5 85l14 44q19 61 9 125l-41 227q-8 48 -17.5 65t-37.5 20l-22 3q-6 7 -4 19.5t11 15.5q80 -3 134 -3q62 0 131 3q9 -3 8.5 -17t-7.5 -18l-37 -7q-32 -6 -32 -22
q0 -15 6 -57q17 -118 39 -217l140 174q75 93 75 104t-21 16l-36 9q-8 5 -6 18t11 17q84 -3 125 -3q58 0 96 3q8 -3 7.5 -16.5t-8.5 -18.5l-25 -4q-27 -4 -43.5 -15t-50.5 -47q-76 -81 -188 -218q-33 -40 -46.5 -64t-25.5 -63l-23 -73q-14 -44 -16.5 -63.5t6.5 -29.5t35 -14z
M409 730l157 118q21 16 32 16q17 0 33 -30q14 -26 10 -42q-5 -16 -31 -24l-190 -62q-16 6 -11 24z" />
    <glyph glyph-name="Thorn" unicode="&#xde;" horiz-adv-x="602" 
d="M376 526h41q97 0 154 -42q60 -43 60 -124q0 -92 -76 -143.5t-192 -51.5q-23 0 -29 1q-6 5 -7 13.5t6 14.5q27 7 50 19q50 27 77 72.5t27 93.5q0 51 -26.5 76t-66.5 25q-23 0 -29 -3.5t-12 -22.5l-98 -310q-14 -44 -16.5 -63t6.5 -29.5t35 -14.5l33 -5q4 -4 2 -17.5
t-9 -17.5q-87 3 -155 3q-70 0 -145 -3q-8 4 -7 18t10 17l31 5q33 5 46 22t34 85l117 372q20 61 16 81t-41 27l-24 4q-8 6 -5.5 19t12.5 16q78 -3 151 -3q68 0 136 3q8 -4 6.5 -18t-11.5 -17l-24 -4q-33 -5 -45.5 -21t-31.5 -77z" />
    <glyph glyph-name="germandbls" unicode="&#xdf;" horiz-adv-x="526" 
d="M524 715q78 0 118 -30t40 -83q0 -23 -11.5 -43.5t-37 -38.5t-42 -27.5t-51.5 -25.5t-40 -19q-56 -28 -56 -80q0 -24 32 -99q25 -57 25 -105q0 -76 -71 -135q-52 -43 -105 -43q-37 0 -57 20.5t-20 44.5q0 25 19 44q6 6 14 6.5t11 -2.5q42 -51 71 -51q40 0 40 34
q0 26 -42 110q-36 72 -36 120q0 52 30.5 87t99.5 73q53 29 75.5 65.5t22.5 69.5q0 30 -18.5 47t-39.5 17q-59 0 -116.5 -72t-102.5 -201q-34 -97 -80.5 -301t-68.5 -248q-28 -56 -75.5 -87t-102.5 -31q-40 0 -71.5 20t-31.5 56q0 25 17.5 42t40.5 17q15 0 27 -21
q36 -65 59 -65q6 0 10 6.5t11.5 31.5t17.5 73l27 133q49 249 95 376q64 178 195 264q79 51 178 51z" />
    <glyph glyph-name="agrave" unicode="&#xe0;" horiz-adv-x="505" 
d="M347 400q21 0 44 -23l23 47q10 7 27 7q19 0 37 -6q28 -8 37 -26q-77 -191 -120 -316q-6 -21 2 -21q11 0 41.5 19.5t52.5 42.5q8 0 14 -6t5 -16q-34 -48 -91.5 -82.5t-108.5 -34.5q-18 0 -28.5 12.5t-10.5 26.5q0 13 11 42l30 77h-4q-48 -64 -112 -110.5t-116 -46.5
q-24 0 -42.5 19t-18.5 43q0 48 43 128t107 138q96 86 178 86zM367 318q-16 38 -42 38t-67 -52q-39 -49 -69 -113t-30 -105v-9q2 -16 14 -16q15 0 48 32t59 67q25 33 51 81.5t36 76.5zM357 643l53 -176q-2 -20 -26 -16l-108 135q-16 21 -15 37q0 15 30 34q23 15 40 15t26 -29
z" />
    <glyph glyph-name="aacute" unicode="&#xe1;" horiz-adv-x="505" 
d="M347 400q21 0 44 -23l23 47q10 7 27 7q19 0 37 -6q28 -8 37 -26q-77 -191 -120 -316q-6 -21 2 -21q11 0 41.5 19.5t52.5 42.5q8 0 14 -6t5 -16q-34 -48 -91.5 -82.5t-108.5 -34.5q-18 0 -28.5 12.5t-10.5 26.5q0 13 11 42l30 77h-4q-48 -64 -112 -110.5t-116 -46.5
q-24 0 -42.5 19t-18.5 43q0 48 43 128t107 138q96 86 178 86zM367 318q-16 38 -42 38t-67 -52q-39 -49 -69 -113t-30 -105v-9q2 -16 14 -16q15 0 48 32t59 67q25 33 51 81.5t36 76.5zM351 470l103 168q17 28 33 26q14 -1 36 -18q24 -24 23 -37q-2 -17 -24 -34l-148 -123
q-21 -2 -23 18z" />
    <glyph glyph-name="acircumflex" unicode="&#xe2;" horiz-adv-x="505" 
d="M347 400q21 0 44 -23l23 47q10 7 27 7q19 0 37 -6q28 -8 37 -26q-77 -191 -120 -316q-6 -21 2 -21q11 0 41.5 19.5t52.5 42.5q8 0 14 -6t5 -16q-34 -48 -91.5 -82.5t-108.5 -34.5q-18 0 -28.5 12.5t-10.5 26.5q0 13 11 42l30 77h-4q-48 -64 -112 -110.5t-116 -46.5
q-24 0 -42.5 19t-18.5 43q0 48 43 128t107 138q96 86 178 86zM367 318q-16 38 -42 38t-67 -52q-39 -49 -69 -113t-30 -105v-9q2 -16 14 -16q15 0 48 32t59 67q25 33 51 81.5t36 76.5zM465 453l-53 84q-12 18 -18 18q-4 0 -26 -22l-83 -82q-23 0 -23 20l134 189q9 13 23 13
q16 0 20 -13l51 -189q-4 -16 -25 -18z" />
    <glyph glyph-name="atilde" unicode="&#xe3;" horiz-adv-x="505" 
d="M347 400q21 0 44 -23l23 47q10 7 27 7q19 0 37 -6q28 -8 37 -26q-77 -191 -120 -316q-6 -21 2 -21q11 0 41.5 19.5t52.5 42.5q8 0 14 -6t5 -16q-34 -48 -91.5 -82.5t-108.5 -34.5q-18 0 -28.5 12.5t-10.5 26.5q0 13 11 42l30 77h-4q-48 -64 -112 -110.5t-116 -46.5
q-24 0 -42.5 19t-18.5 43q0 48 43 128t107 138q96 86 178 86zM367 318q-16 38 -42 38t-67 -52q-39 -49 -69 -113t-30 -105v-9q2 -16 14 -16q15 0 48 32t59 67q25 33 51 81.5t36 76.5zM421 510h-56q-58 0 -86 -49q-4 -3 -16 -1.5t-15 7.5q19 59 41 87q23 28 61 28h56
q33 0 50 9t28 38q6 2 16.5 0.5t13.5 -5.5q-9 -50 -33 -86q-19 -28 -60 -28z" />
    <glyph glyph-name="adieresis" unicode="&#xe4;" horiz-adv-x="505" 
d="M347 400q21 0 44 -23l23 47q10 7 27 7q19 0 37 -6q28 -8 37 -26q-77 -191 -120 -316q-6 -21 2 -21q11 0 41.5 19.5t52.5 42.5q8 0 14 -6t5 -16q-34 -48 -91.5 -82.5t-108.5 -34.5q-18 0 -28.5 12.5t-10.5 26.5q0 13 11 42l30 77h-4q-48 -64 -112 -110.5t-116 -46.5
q-24 0 -42.5 19t-18.5 43q0 48 43 128t107 138q96 86 178 86zM367 318q-16 38 -42 38t-67 -52q-39 -49 -69 -113t-30 -105v-9q2 -16 14 -16q15 0 48 32t59 67q25 33 51 81.5t36 76.5zM283 487q-27 0 -42.5 17t-11.5 45q4 27 22.5 44t45.5 17q26 0 42 -18t12 -46
q-4 -26 -23 -42.5t-45 -16.5zM468 487q-27 0 -42.5 17t-11.5 45q4 27 23 44t46 17q26 0 41.5 -18t11.5 -46q-5 -26 -23 -42.5t-45 -16.5z" />
    <glyph glyph-name="aring" unicode="&#xe5;" horiz-adv-x="505" 
d="M347 400q21 0 44 -23l23 47q10 7 27 7q19 0 37 -6q28 -8 37 -26q-77 -191 -120 -316q-6 -21 2 -21q11 0 41.5 19.5t52.5 42.5q8 0 14 -6t5 -16q-34 -48 -91.5 -82.5t-108.5 -34.5q-18 0 -28.5 12.5t-10.5 26.5q0 13 11 42l30 77h-4q-48 -64 -112 -110.5t-116 -46.5
q-24 0 -42.5 19t-18.5 43q0 48 43 128t107 138q96 86 178 86zM367 318q-16 38 -42 38t-67 -52q-39 -49 -69 -113t-30 -105v-9q2 -16 14 -16q15 0 48 32t59 67q25 33 51 81.5t36 76.5zM383 462q-44 0 -70.5 28t-26.5 66t26.5 65.5t70.5 27.5t70.5 -27.5t26.5 -65.5t-26.5 -66
t-70.5 -28zM383 498q20 0 31.5 16.5t11.5 41.5t-11.5 42t-31.5 18q-20 -1 -31.5 -18t-11.5 -42t11.5 -41.5t31.5 -16.5z" />
    <glyph glyph-name="ae" unicode="&#xe6;" horiz-adv-x="583" 
d="M93 -14q-32 0 -53.5 19t-21.5 54q0 36 23 80.5t59 80.5q91 87 250 143q87 51 145 51q52 0 80 -26t28 -68q0 -51 -49 -92.5t-173 -100.5q1 -34 18 -53t37 -19q45 0 93 57q26 5 27 -17q-22 -44 -72.5 -76.5t-109.5 -32.5q-77 0 -101 75q-39 -30 -91.5 -52.5t-88.5 -22.5z
M176 57q30 0 88 42q2 56 16.5 103.5t51.5 108.5h-2q-73 -33 -124 -108t-51 -118q0 -13 6 -20.5t15 -7.5zM498 338q0 32 -25 32q-33 0 -62.5 -66.5t-31.5 -132.5q55 40 87 85t32 82z" />
    <glyph glyph-name="ccedilla" unicode="&#xe7;" horiz-adv-x="379" 
d="M207 -2l-36 -50q-4 -5 -4 -8t2.5 -6.5t9.5 -8.5q48 -38 48 -82q0 -40 -38 -66t-88 -26q-77 0 -77 44q0 14 9 23t23 9t35.5 -18t31.5 -18t18 6.5t8 18.5q0 46 -61 70l-4 9l63 92q-2 -1 -6 -1q-49 0 -75 31t-26 85q0 49 24.5 110t65.5 107q85 95 180 95q45 0 73.5 -20.5
t28.5 -56.5q0 -28 -20 -45.5t-48 -17.5q-38 0 -40 37q-3 59 -20 59q-28 0 -62 -63q-49 -92 -49 -182q0 -66 42 -66q44 0 104 64q10 0 16 -6.5t5 -15.5q-20 -31 -56.5 -60.5t-76.5 -42.5z" />
    <glyph glyph-name="egrave" unicode="&#xe8;" horiz-adv-x="401" 
d="M332 414q43 0 70 -23t27 -57q0 -107 -252 -172q-5 -15 -5 -48q0 -22 11 -38.5t32 -16.5q60 0 130 70q8 0 14.5 -6.5t5.5 -16.5q-36 -57 -93.5 -88.5t-124.5 -31.5q-52 0 -79.5 32t-27.5 83q0 67 38 138.5t97 116.5q76 58 157 58zM297 370q-20 0 -43 -26q-48 -52 -69 -138
q55 16 95 57q15 15 25 40t11 44q0 9 -5 16t-14 7zM305 643l53 -176q-2 -20 -26 -16l-108 135q-16 21 -15 37q0 15 30 34q23 15 40 15t26 -29z" />
    <glyph glyph-name="eacute" unicode="&#xe9;" horiz-adv-x="401" 
d="M332 414q43 0 70 -23t27 -57q0 -107 -252 -172q-5 -15 -5 -48q0 -22 11 -38.5t32 -16.5q60 0 130 70q8 0 14.5 -6.5t5.5 -16.5q-36 -57 -93.5 -88.5t-124.5 -31.5q-52 0 -79.5 32t-27.5 83q0 67 38 138.5t97 116.5q76 58 157 58zM297 370q-20 0 -43 -26q-48 -52 -69 -138
q55 16 95 57q15 15 25 40t11 44q0 9 -5 16t-14 7zM283 465l103 168q17 28 33 26q14 -1 36 -18q24 -24 23 -37q-2 -17 -24 -34l-148 -123q-21 -2 -23 18z" />
    <glyph glyph-name="ecircumflex" unicode="&#xea;" horiz-adv-x="401" 
d="M332 414q43 0 70 -23t27 -57q0 -107 -252 -172q-5 -15 -5 -48q0 -22 11 -38.5t32 -16.5q60 0 130 70q8 0 14.5 -6.5t5.5 -16.5q-36 -57 -93.5 -88.5t-124.5 -31.5q-52 0 -79.5 32t-27.5 83q0 67 38 138.5t97 116.5q76 58 157 58zM297 370q-20 0 -43 -26q-48 -52 -69 -138
q55 16 95 57q15 15 25 40t11 44q0 9 -5 16t-14 7zM413 465l-48 87q-11 20 -18 20q-4 0 -26 -22l-88 -87q-23 0 -23 20l134 189q9 13 23 13q16 0 20 -13l51 -189q-4 -16 -25 -18z" />
    <glyph glyph-name="edieresis" unicode="&#xeb;" horiz-adv-x="401" 
d="M332 414q43 0 70 -23t27 -57q0 -107 -252 -172q-5 -15 -5 -48q0 -22 11 -38.5t32 -16.5q60 0 130 70q8 0 14.5 -6.5t5.5 -16.5q-36 -57 -93.5 -88.5t-124.5 -31.5q-52 0 -79.5 32t-27.5 83q0 67 38 138.5t97 116.5q76 58 157 58zM297 370q-20 0 -43 -26q-48 -52 -69 -138
q55 16 95 57q15 15 25 40t11 44q0 9 -5 16t-14 7zM224 487q-27 0 -42.5 17t-11.5 45q4 27 22.5 44t45.5 17q26 0 42 -18t12 -46q-4 -26 -23 -42.5t-45 -16.5zM409 487q-27 0 -42.5 17t-11.5 45q4 27 23 44t46 17q26 0 41.5 -18t11.5 -46q-5 -26 -23 -42.5t-45 -16.5z" />
    <glyph glyph-name="igrave" unicode="&#xec;" horiz-adv-x="309" 
d="M294 326l-104 -245q-7 -15 4 -15q10 0 42 22t52 41q9 0 15 -7t4 -17q-33 -44 -93 -81.5t-117 -37.5q-18 0 -32 14.5t-14 25.5q0 13 12 43l104 249q5 14 -2 14q-11 0 -42 -21t-47 -36q-9 1 -14 9t-2 15q39 48 99.5 81.5t101.5 33.5q17 0 31.5 -14t14.5 -30q0 -11 -13 -44z
M256 649l53 -176q-2 -20 -26 -16l-108 135q-16 21 -15 37q0 15 30 34q23 15 40 15t26 -29z" />
    <glyph glyph-name="iacute" unicode="&#xed;" horiz-adv-x="309" 
d="M294 326l-104 -245q-7 -15 4 -15q10 0 42 22t52 41q9 0 15 -7t4 -17q-33 -44 -93 -81.5t-117 -37.5q-18 0 -32 14.5t-14 25.5q0 13 12 43l104 249q5 14 -2 14q-11 0 -42 -21t-47 -36q-9 1 -14 9t-2 15q39 48 99.5 81.5t101.5 33.5q17 0 31.5 -14t14.5 -30q0 -11 -13 -44z
M223 468l103 168q17 28 33 26q14 -1 36 -18q24 -24 23 -37q-2 -17 -24 -34l-148 -123q-21 -2 -23 18z" />
    <glyph glyph-name="icircumflex" unicode="&#xee;" horiz-adv-x="309" 
d="M294 326l-104 -245q-7 -15 4 -15q10 0 42 22t52 41q9 0 15 -7t4 -17q-33 -44 -93 -81.5t-117 -37.5q-18 0 -32 14.5t-14 25.5q0 13 12 43l104 249q5 14 -2 14q-11 0 -42 -21t-47 -36q-9 1 -14 9t-2 15q39 48 99.5 81.5t101.5 33.5q17 0 31.5 -14t14.5 -30q0 -11 -13 -44z
M338 442l-50 82q-12 20 -16 20q-6 0 -28 -22l-86 -82q-23 0 -23 20l134 189q9 13 23 13q16 0 20 -13l51 -189q-4 -16 -25 -18z" />
    <glyph glyph-name="idieresis" unicode="&#xef;" horiz-adv-x="309" 
d="M294 326l-104 -245q-7 -15 4 -15q10 0 42 22t52 41q9 0 15 -7t4 -17q-33 -44 -93 -81.5t-117 -37.5q-18 0 -32 14.5t-14 25.5q0 13 12 43l104 249q5 14 -2 14q-11 0 -42 -21t-47 -36q-9 1 -14 9t-2 15q39 48 99.5 81.5t101.5 33.5q17 0 31.5 -14t14.5 -30q0 -11 -13 -44z
M175 487q-27 0 -42.5 17t-11.5 45q4 27 22.5 44t45.5 17q26 0 42 -18t12 -46q-4 -26 -23 -42.5t-45 -16.5zM360 487q-27 0 -42.5 17t-11.5 45q4 27 23 44t46 17q26 0 41.5 -18t11.5 -46q-5 -26 -23 -42.5t-45 -16.5z" />
    <glyph glyph-name="eth" unicode="&#xf0;" horiz-adv-x="466" 
d="M526 613l-115 -49q52 -90 52 -216q0 -76 -25.5 -151t-72.5 -128q-74 -83 -172 -83q-73 0 -109 41.5t-35 106.5q1 54 28 115.5t73 102.5q70 62 152 62q24 0 40 -9q4 69 -21 122l-142 -61q-10 2 -15.5 20t2.5 26l137 59q-24 45 -49 70q-34 32 -83 43q-4 5 -1.5 16.5
t10.5 14.5q61 -3 105 -26q58 -31 98 -84l131 56q11 -4 15 -22.5t-3 -25.5zM199 30q19 0 35 16t37 51q23 38 46 107.5t23 121.5q0 19 -8 31.5t-23 12.5q-23 0 -54 -38q-29 -37 -60 -115t-31 -142q0 -45 35 -45z" />
    <glyph glyph-name="ntilde" unicode="&#xf1;" horiz-adv-x="544" 
d="M236 414q21 0 30.5 -11.5t8.5 -24.5t-6 -27l-47 -123h4q29 40 49 65t51.5 57t65 48t68.5 16q31 0 47 -18t16 -40q0 -37 -20 -89l-74 -179q-9 -22 4 -22q11 0 39.5 22.5t49.5 45.5q8 2 14.5 -3.5t5.5 -15.5q-26 -46 -84.5 -87.5t-125.5 -41.5q-17 0 -30 12.5t-13 26.5
q0 18 15 54q62 145 85 209q13 35 13 47q0 14 -13 14q-26 0 -76 -64q-59 -75 -155 -281q-9 -18 -48 -18q-25 0 -43 9.5t-11 30.5l96 271q13 36 -4 36q-29 0 -85 -54q-16 0 -18 16q21 43 77.5 81t113.5 38zM418 515h-56q-58 0 -86 -49q-4 -3 -16 -1.5t-15 7.5q19 59 41 87
q23 28 61 28h56q33 0 50 9t28 38q6 2 16.5 0.5t13.5 -5.5q-9 -50 -33 -86q-19 -28 -60 -28z" />
    <glyph glyph-name="ograve" unicode="&#xf2;" horiz-adv-x="468" 
d="M317 370q-23 0 -54 -38q-33 -42 -66 -119t-33 -142q0 -41 31 -41q33 0 74 67q26 43 51 111.5t25 119.5q0 42 -28 42zM310 414q75 0 111 -42.5t36 -103.5q0 -55 -25 -113t-68 -99q-73 -70 -170 -70q-72 0 -109 40.5t-36 98.5q1 60 28.5 122t76.5 104q73 63 156 63z
M334 642l53 -176q-2 -20 -26 -16l-108 135q-16 21 -15 37q0 14 30 34q23 15 40 15t26 -29z" />
    <glyph glyph-name="oacute" unicode="&#xf3;" horiz-adv-x="468" 
d="M317 370q-23 0 -54 -38q-33 -42 -66 -119t-33 -142q0 -41 31 -41q33 0 74 67q26 43 51 111.5t25 119.5q0 42 -28 42zM310 414q75 0 111 -42.5t36 -103.5q0 -55 -25 -113t-68 -99q-73 -70 -170 -70q-72 0 -109 40.5t-36 98.5q1 60 28.5 122t76.5 104q73 63 156 63z
M294 472l103 168q17 28 33 26q14 -1 36 -18q24 -24 23 -37q-2 -17 -24 -34l-148 -123q-21 -2 -23 18z" />
    <glyph glyph-name="ocircumflex" unicode="&#xf4;" horiz-adv-x="468" 
d="M317 370q-23 0 -54 -38q-33 -42 -66 -119t-33 -142q0 -41 31 -41q33 0 74 67q26 43 51 111.5t25 119.5q0 42 -28 42zM310 414q75 0 111 -42.5t36 -103.5q0 -55 -25 -113t-68 -99q-73 -70 -170 -70q-72 0 -109 40.5t-36 98.5q1 60 28.5 122t76.5 104q73 63 156 63z
M420 455l-50 82q-12 20 -16 20q-6 0 -28 -22l-86 -82q-23 0 -23 20l134 189q9 13 23 13q16 0 20 -13l51 -189q-4 -16 -25 -18z" />
    <glyph glyph-name="otilde" unicode="&#xf5;" horiz-adv-x="468" 
d="M317 370q-23 0 -54 -38q-33 -42 -66 -119t-33 -142q0 -41 31 -41q33 0 74 67q26 43 51 111.5t25 119.5q0 42 -28 42zM310 414q75 0 111 -42.5t36 -103.5q0 -55 -25 -113t-68 -99q-73 -70 -170 -70q-72 0 -109 40.5t-36 98.5q1 60 28.5 122t76.5 104q73 63 156 63z
M394 514h-56q-58 0 -86 -49q-4 -3 -16 -1.5t-15 7.5q19 59 41 87q23 28 61 28h56q33 0 50 9t28 38q6 2 16.5 0.5t13.5 -5.5q-9 -50 -33 -86q-19 -28 -60 -28z" />
    <glyph glyph-name="odieresis" unicode="&#xf6;" horiz-adv-x="468" 
d="M317 370q-23 0 -54 -38q-33 -42 -66 -119t-33 -142q0 -41 31 -41q33 0 74 67q26 43 51 111.5t25 119.5q0 42 -28 42zM310 414q75 0 111 -42.5t36 -103.5q0 -55 -25 -113t-68 -99q-73 -70 -170 -70q-72 0 -109 40.5t-36 98.5q1 60 28.5 122t76.5 104q73 63 156 63z
M254 487q-27 0 -42.5 17t-11.5 45q4 27 22.5 44t45.5 17q26 0 42 -18t12 -46q-4 -26 -23 -42.5t-45 -16.5zM439 487q-27 0 -42.5 17t-11.5 45q4 27 23 44t46 17q26 0 41.5 -18t11.5 -46q-5 -26 -23 -42.5t-45 -16.5z" />
    <glyph glyph-name="divide" unicode="&#xf7;" horiz-adv-x="520" 
d="M271 10q-25 0 -43 18t-18 43t18 42.5t43 17.5q23 0 41 -17.5t18 -42.5t-17.5 -43t-41.5 -18zM271 295q-25 0 -43 17.5t-18 43.5q0 25 18 42.5t43 17.5q23 0 41 -18t18 -42q0 -25 -17.5 -43t-41.5 -18zM471 177h-401v72h401v-72z" />
    <glyph glyph-name="oslash" unicode="&#xf8;" horiz-adv-x="468" 
d="M156 96l188 262q-10 12 -30 12q-30 0 -65 -39q-32 -35 -62.5 -103.5t-32.5 -129.5zM351 307l-187 -262q10 -15 30 -15q44 0 89 67q24 36 47 97.5t23 110.5zM437 423l-30 -40q50 -37 50 -117q0 -53 -26 -110.5t-69 -99.5q-73 -70 -165 -70q-38 0 -71 12l-38 -51
q-9 -1 -17 5t-9 18l35 47q-49 42 -47 116q1 54 28 115t76 103q73 63 157 63q37 0 65 -12l30 40q26 3 31 -19z" />
    <glyph glyph-name="ugrave" unicode="&#xf9;" horiz-adv-x="543" 
d="M258 414q17 0 31 -13.5t14 -28.5q0 -16 -5 -28l-99 -243q-11 -27 8 -27q13 0 38 21q87 74 200 311q18 8 37 8q42 0 70 -22l-114 -295q-9 -28 5 -28q11 0 40.5 22t50.5 43q18 -3 18 -23q-24 -42 -88 -83.5t-122 -41.5q-20 0 -31.5 15t-2.5 36l56 142h-2
q-50 -70 -119.5 -131.5t-123.5 -61.5q-25 0 -40 15t-15 37q0 20 15 59l83 209q4 10 3 18t-7 8q-7 0 -19 -7t-22 -14.5t-26 -21l-22 -18.5q-18 7 -17 24q32 43 92.5 81t113.5 38zM363 649l53 -176q-2 -20 -26 -16l-108 135q-16 21 -15 37q0 15 30 34q23 15 40 15t26 -29z" />
    <glyph glyph-name="uacute" unicode="&#xfa;" horiz-adv-x="543" 
d="M258 414q17 0 31 -13.5t14 -28.5q0 -16 -5 -28l-99 -243q-11 -27 8 -27q13 0 38 21q87 74 200 311q18 8 37 8q42 0 70 -22l-114 -295q-9 -28 5 -28q11 0 40.5 22t50.5 43q18 -3 18 -23q-24 -42 -88 -83.5t-122 -41.5q-20 0 -31.5 15t-2.5 36l56 142h-2
q-50 -70 -119.5 -131.5t-123.5 -61.5q-25 0 -40 15t-15 37q0 20 15 59l83 209q4 10 3 18t-7 8q-7 0 -19 -7t-22 -14.5t-26 -21l-22 -18.5q-18 7 -17 24q32 43 92.5 81t113.5 38zM332 473l103 168q17 28 33 26q14 -1 36 -18q24 -24 23 -37q-2 -17 -24 -34l-148 -123
q-21 -2 -23 18z" />
    <glyph glyph-name="ucircumflex" unicode="&#xfb;" horiz-adv-x="543" 
d="M258 414q17 0 31 -13.5t14 -28.5q0 -16 -5 -28l-99 -243q-11 -27 8 -27q13 0 38 21q87 74 200 311q18 8 37 8q42 0 70 -22l-114 -295q-9 -28 5 -28q11 0 40.5 22t50.5 43q18 -3 18 -23q-24 -42 -88 -83.5t-122 -41.5q-20 0 -31.5 15t-2.5 36l56 142h-2
q-50 -70 -119.5 -131.5t-123.5 -61.5q-25 0 -40 15t-15 37q0 20 15 59l83 209q4 10 3 18t-7 8q-7 0 -19 -7t-22 -14.5t-26 -21l-22 -18.5q-18 7 -17 24q32 43 92.5 81t113.5 38zM465 455l-50 82q-12 20 -16 20q-6 0 -28 -22l-86 -82q-23 0 -23 20l134 189q9 13 23 13
q16 0 20 -13l51 -189q-4 -16 -25 -18z" />
    <glyph glyph-name="udieresis" unicode="&#xfc;" horiz-adv-x="543" 
d="M258 414q17 0 31 -13.5t14 -28.5q0 -16 -5 -28l-99 -243q-11 -27 8 -27q13 0 38 21q87 74 200 311q18 8 37 8q42 0 70 -22l-114 -295q-9 -28 5 -28q11 0 40.5 22t50.5 43q18 -3 18 -23q-24 -42 -88 -83.5t-122 -41.5q-20 0 -31.5 15t-2.5 36l56 142h-2
q-50 -70 -119.5 -131.5t-123.5 -61.5q-25 0 -40 15t-15 37q0 20 15 59l83 209q4 10 3 18t-7 8q-7 0 -19 -7t-22 -14.5t-26 -21l-22 -18.5q-18 7 -17 24q32 43 92.5 81t113.5 38zM283 487q-27 0 -42.5 17t-11.5 45q4 27 22.5 44t45.5 17q26 0 42 -18t12 -46q-4 -26 -23 -42.5
t-45 -16.5zM468 487q-27 0 -42.5 17t-11.5 45q4 27 23 44t46 17q26 0 41.5 -18t11.5 -46q-5 -26 -23 -42.5t-45 -16.5z" />
    <glyph glyph-name="yacute" unicode="&#xfd;" horiz-adv-x="425" 
d="M176 414q41 0 64 -41.5t25 -139.5q2 -115 -8 -205h3q66 128 91 283q9 51 10 61q5 42 34 42q25 0 43.5 -11.5t19.5 -33.5q0 -10 -10.5 -46t-35.5 -96t-56 -116q-117 -210 -190 -286q-89 -94 -175 -94q-30 0 -53 18.5t-24 49.5q-1 28 17 46.5t43 18.5q24 0 44 -29
q24 -34 46 -34q17 0 40 26q31 36 42 94q15 77 12 206q-5 198 -39 198q-14 0 -32 -26t-31 -55q-7 -6 -18.5 -3t-14.5 11q9 26 20.5 49.5t30 51.5t45 44.5t57.5 16.5zM261 466l103 168q17 28 33 26q14 -1 36 -18q24 -24 23 -37q-2 -17 -24 -34l-148 -123q-21 -2 -23 18z" />
    <glyph glyph-name="thorn" unicode="&#xfe;" horiz-adv-x="508" 
d="M160 -21l-45 -133q-6 -19 -7 -30.5t6.5 -20.5t25.5 -11l42 -4q9 -4 7.5 -17.5t-12.5 -16.5h-71q-76 0 -206 -11q-9 4 -10.5 16.5t5.5 18.5l32 5q31 5 44 21.5t31 68.5l158 464q-39 -8 -104 -43q-9 1 -13 11.5t1 17.5q13 15 58.5 38t74.5 31l55 159q9 27 7.5 38.5
t-14.5 18.5l-28 16q-6 15 5 24q24 10 85.5 21.5t98.5 12.5q10 -1 10 -10q-6 -19 -13 -38.5l-17 -46.5l-17 -46l-48 -136q18 3 28 3q88 0 127.5 -40.5t39.5 -106.5q0 -42 -21 -91.5t-54 -82.5q-91 -93 -206 -93q-19 0 -41 10q-9 -1 -14 -17zM286 346l-89 -259q-9 -27 5 -41
q15 -16 31 -16q26 0 59 40q33 39 54.5 93t21.5 103q0 41 -19 61.5t-47 20.5q-4 0 -16 -2z" />
    <glyph glyph-name="ydieresis" unicode="&#xff;" horiz-adv-x="425" 
d="M176 414q41 0 64 -41.5t25 -139.5q2 -115 -8 -205h3q66 128 91 283q9 51 10 61q5 42 34 42q25 0 43.5 -11.5t19.5 -33.5q0 -10 -10.5 -46t-35.5 -96t-56 -116q-117 -210 -190 -286q-89 -94 -175 -94q-30 0 -53 18.5t-24 49.5q-1 28 17 46.5t43 18.5q24 0 44 -29
q24 -34 46 -34q17 0 40 26q31 36 42 94q15 77 12 206q-5 198 -39 198q-14 0 -32 -26t-31 -55q-7 -6 -18.5 -3t-14.5 11q9 26 20.5 49.5t30 51.5t45 44.5t57.5 16.5zM211 488q-27 0 -42.5 17t-11.5 45q4 27 22.5 44t45.5 17q26 0 42 -18t12 -46q-4 -26 -23 -42.5t-45 -16.5z
M396 488q-27 0 -42.5 17t-11.5 45q4 27 23 44t46 17q26 0 41.5 -18t11.5 -46q-5 -26 -23 -42.5t-45 -16.5z" />
    <glyph glyph-name="Amacron" unicode="&#x100;" horiz-adv-x="600" 
d="M353 226h-124q-18 0 -23 -0.5t-10 -4.5t-11 -15l-66 -106q-19 -34 -19 -44q0 -12 33 -18l36 -5q8 -5 6 -18.5t-11 -17.5q-75 3 -135 3q-54 0 -96 -3q-10 4 -11 17.5t6 18.5l24 4q38 6 56.5 21t56.5 70l269 396q60 91 64 109q16 1 32 6t28.5 11t22.5 12t15 10l6 4h2
q18 0 18 -16q0 -88 -3.5 -266t-3.5 -266q0 -57 7 -73t41 -20l24 -3q6 -4 5 -18t-8 -17q-56 3 -141 3t-132 -3q-9 3 -9.5 16.5t4.5 18.5l23 3q32 4 41.5 13.5t10.5 29.5l4 127q1 15 -4 18t-28 3zM265 279h96q18 0 21.5 4t4.5 23l6 123q3 82 5 107h-2l-63 -98l-87 -137
q-9 -13 -5.5 -17.5t24.5 -4.5zM601 722h-253q-9 12 -7 37t15 37h253q9 -12 6.5 -37t-14.5 -37z" />
    <glyph glyph-name="amacron" unicode="&#x101;" horiz-adv-x="505" 
d="M347 400q21 0 44 -23l23 47q10 7 27 7q19 0 37 -6q28 -8 37 -26q-77 -191 -120 -316q-6 -21 2 -21q11 0 41.5 19.5t52.5 42.5q8 0 14 -6t5 -16q-34 -48 -91.5 -82.5t-108.5 -34.5q-18 0 -28.5 12.5t-10.5 26.5q0 13 11 42l30 77h-4q-48 -64 -112 -110.5t-116 -46.5
q-24 0 -42.5 19t-18.5 43q0 48 43 128t107 138q96 86 178 86zM367 318q-16 38 -42 38t-67 -52q-39 -49 -69 -113t-30 -105v-9q2 -16 14 -16q15 0 48 32t59 67q25 33 51 81.5t36 76.5zM496 506h-233q-7 12 -3 37.5t15 34.5h233q8 -12 4 -36t-16 -36z" />
    <glyph glyph-name="Abreve" unicode="&#x102;" horiz-adv-x="600" 
d="M353 226h-124q-18 0 -23 -0.5t-10 -4.5t-11 -15l-66 -106q-19 -34 -19 -44q0 -12 33 -18l36 -5q8 -5 6 -18.5t-11 -17.5q-75 3 -135 3q-54 0 -96 -3q-10 4 -11 17.5t6 18.5l24 4q38 6 56.5 21t56.5 70l269 396q60 91 64 109q16 1 32 6t28.5 11t22.5 12t15 10l6 4h2
q18 0 18 -16q0 -88 -3.5 -266t-3.5 -266q0 -57 7 -73t41 -20l24 -3q6 -4 5 -18t-8 -17q-56 3 -141 3t-132 -3q-9 3 -9.5 16.5t4.5 18.5l23 3q32 4 41.5 13.5t10.5 29.5l4 127q1 15 -4 18t-28 3zM265 279h96q18 0 21.5 4t4.5 23l6 123q3 82 5 107h-2l-63 -98l-87 -137
q-9 -13 -5.5 -17.5t24.5 -4.5zM473 720q-70 0 -97.5 38.5t-10.5 112.5q13 6 29 0q-4 -44 19 -63.5t70 -19.5q90 0 121 83q15 6 30 0q-23 -151 -161 -151z" />
    <glyph glyph-name="abreve" unicode="&#x103;" horiz-adv-x="505" 
d="M347 400q21 0 44 -23l23 47q10 7 27 7q19 0 37 -6q28 -8 37 -26q-77 -191 -120 -316q-6 -21 2 -21q11 0 41.5 19.5t52.5 42.5q8 0 14 -6t5 -16q-34 -48 -91.5 -82.5t-108.5 -34.5q-18 0 -28.5 12.5t-10.5 26.5q0 13 11 42l30 77h-4q-48 -64 -112 -110.5t-116 -46.5
q-24 0 -42.5 19t-18.5 43q0 48 43 128t107 138q96 86 178 86zM367 318q-16 38 -42 38t-67 -52q-39 -49 -69 -113t-30 -105v-9q2 -16 14 -16q15 0 48 32t59 67q25 33 51 81.5t36 76.5zM365 475q-56 0 -81.5 42.5t-6.5 114.5q14 8 32 0q-4 -40 17 -64t50 -24q34 0 62.5 23.5
t40.5 64.5q16 8 32 0q-8 -78 -42 -117.5t-104 -39.5z" />
    <glyph glyph-name="Aogonek" unicode="&#x104;" horiz-adv-x="600" 
d="M264 279h97q18 0 21.5 4t4.5 23l5 121q0 6 1 47t2 58h-2l-60 -97l-88 -134q-9 -13 -5.5 -17.5t24.5 -4.5zM353 226h-125q-18 0 -23 -0.5t-10 -4.5t-11 -15l-66 -107q-20 -35 -20 -46q0 -10 35 -16l27 -4q8 -5 6 -18.5t-11 -17.5q-75 3 -126 3q-54 0 -96 -3
q-10 4 -11 17.5t6 18.5l24 4q38 6 56.5 21t56.5 70l269 396q60 91 64 109q16 1 32 6t28.5 11t22.5 12t15 10l6 4h2q18 0 18 -16q0 -88 -3.5 -266t-3.5 -266q0 -57 7 -73t41 -20l24 -3q6 -4 5 -18t-8 -17q-56 3 -72 3q-56 -31 -86 -70t-30 -69q0 -47 47 -47q37 0 64 15
q11 -3 8 -26q-48 -56 -125 -56q-38 0 -64 21.5t-26 62.5q0 50 47.5 93.5t106.5 74.5q-103 1 -143 -2q-9 3 -9.5 16.5t4.5 18.5l23 3q32 4 41.5 13.5t10.5 29.5l4 127q1 15 -4 18t-28 3z" />
    <glyph glyph-name="aogonek" unicode="&#x105;" horiz-adv-x="505" 
d="M367 318q-16 38 -42 38t-67 -52q-39 -49 -69 -113t-30 -105v-9q2 -16 14 -16q15 0 48 32t59 67q25 33 51 81.5t36 76.5zM371 -188q24 0 54 14q9 -3 7 -21q-23 -28 -57 -43t-67 -15q-37 0 -61.5 21t-24.5 58q0 41 30.5 75.5t105.5 92.5q-27 -9 -48 -9q-18 0 -28.5 12.5
t-10.5 26.5q0 13 11 42l30 77h-4q-48 -64 -112 -110.5t-116 -46.5q-24 0 -42.5 19t-18.5 43q0 48 43 128t107 138q96 86 178 86q21 0 44 -23l23 47q10 7 27 7q19 0 37 -6q28 -8 37 -26q-77 -191 -120 -316q-6 -21 2 -21q11 0 41.5 19.5t52.5 42.5q8 0 14 -6t5 -16
q-21 -30 -64 -69q-49 -45 -71.5 -67.5t-40 -51.5t-17.5 -56q8 -46 54 -46z" />
    <glyph glyph-name="Cacute" unicode="&#x106;" horiz-adv-x="658" 
d="M97 247q1 92 41.5 175.5t101.5 137.5q130 116 324 116q108 0 200 -37q-20 -46 -49 -155q-5 -8 -20 -8t-18 8q7 76 -22.5 111t-99.5 35q-82 0 -154 -59.5t-112 -149t-40 -182.5q0 -112 45.5 -160.5t110.5 -48.5q59 0 107 34.5t103 108.5q8 6 21.5 4t15.5 -10
q-28 -88 -71 -158l-63 -13q-64 -12 -116 -12q-148 0 -227 73t-78 190zM441 730l157 118q21 16 32 16q17 0 33 -30q14 -26 10 -42q-5 -16 -31 -24l-190 -62q-16 6 -11 24z" />
    <glyph glyph-name="cacute" unicode="&#x107;" horiz-adv-x="379" 
d="M141 -14q-49 0 -75 31t-26 85q0 49 24.5 110t65.5 107q85 95 180 95q45 0 73.5 -20.5t28.5 -56.5q0 -28 -20 -45.5t-48 -17.5q-38 0 -40 37q-3 59 -20 59q-28 0 -62 -63q-49 -92 -49 -182q0 -66 42 -66q44 0 104 64q10 0 16 -6.5t5 -15.5q-28 -44 -83.5 -79.5
t-115.5 -35.5zM277 465l103 168q17 28 33 26q14 -1 36 -18q24 -24 23 -37q-2 -17 -24 -34l-148 -123q-21 -2 -23 18z" />
    <glyph glyph-name="Ccaron" unicode="&#x10c;" horiz-adv-x="658" 
d="M97 247q1 92 41.5 175.5t101.5 137.5q130 116 324 116q108 0 200 -37q-20 -46 -49 -155q-5 -8 -20 -8t-18 8q7 76 -22.5 111t-99.5 35q-82 0 -154 -59.5t-112 -149t-40 -182.5q0 -112 45.5 -160.5t110.5 -48.5q59 0 107 34.5t103 108.5q8 6 21.5 4t15.5 -10
q-28 -88 -71 -158l-63 -13q-64 -12 -116 -12q-148 0 -227 73t-78 190zM403 877l119 -64q18 -10 39 0l141 64q8 0 13 -10.5t2 -20.5l-165 -127q-30 -22 -49 0l-117 129q0 9 6 18.5t11 10.5z" />
    <glyph glyph-name="ccaron" unicode="&#x10d;" horiz-adv-x="379" 
d="M141 -14q-49 0 -75 31t-26 85q0 49 24.5 110t65.5 107q85 95 180 95q45 0 73.5 -20.5t28.5 -56.5q0 -28 -20 -45.5t-48 -17.5q-38 0 -40 37q-3 59 -20 59q-28 0 -62 -63q-49 -92 -49 -182q0 -66 42 -66q44 0 104 64q10 0 16 -6.5t5 -15.5q-28 -44 -83.5 -79.5
t-115.5 -35.5zM255 677l51 -83q12 -20 18 -20q5 0 27 22l86 83q23 0 23 -20l-136 -191q-9 -13 -23 -13q-16 0 -20 13l-52 191q4 16 26 18z" />
    <glyph glyph-name="Dcaron" unicode="&#x10e;" horiz-adv-x="771" 
d="M380 877l119 -64q18 -10 39 0l141 64q8 0 13 -10.5t2 -20.5l-165 -127q-30 -22 -49 0l-117 129q0 9 6 18.5t11 10.5zM120 144l118 377q17 51 15 68.5t-27 23.5l-29 7q-7 6 -5 18t11 16q97 9 218 9q173 -2 262 -61q109 -74 109 -218q0 -145 -102 -250q-137 -140 -402 -140
q-21 0 -67 3t-72 3q-68 0 -143 -3q-8 4 -6.5 18.5t11.5 15.5l29 5q33 5 46 22t34 86zM389 571l-131 -416q-14 -43 -14 -70q-1 -21 16.5 -33t49.5 -12q105 0 196 76q68 56 102 138t34 160q0 25 -3 48t-15 53t-32 51t-57 36t-86 15q-32 0 -41 -7t-19 -39z" />
    <glyph glyph-name="dcaron" unicode="&#x10f;" horiz-adv-x="528" 
d="M352 414q36 0 54 -25l65 195q9 27 7.5 38.5t-14.5 18.5l-28 16q-6 15 5 24q23 10 84 21t97 13q10 -1 10 -10q-17 -45 -46 -130l-145 -435q-15 -43 -17 -64q0 -12 9 -12t39 20t52 43q19 -2 16 -23q-25 -37 -81.5 -77.5t-121.5 -40.5q-38 0 -38 42q0 14 20 72l23 66h-2
q-23 -35 -42.5 -59.5t-50 -55.5t-67 -48t-75.5 -17q-33 0 -53 26.5t-19 68.5q2 62 36 131t91 119q94 83 192 83zM232 247q-35 -50 -60 -105.5t-25 -76.5q0 -22 15 -22q14 0 57.5 35t75.5 77q59 76 82 147q9 28 5 48t-17 20q-14 0 -37 -17q-46 -34 -96 -106zM752 715
q24 0 8 -55q-15 -51 -54 -103t-75 -74q-16 -4 -23 5q-4 5 0 9q45 54 59 106q3 15 -4 39q-5 15 -3 24q3 11 36.5 30t55.5 19z" />
    <glyph glyph-name="Dcroat" unicode="&#x110;" horiz-adv-x="777" 
d="M92 370h105l47 151q17 51 15 68.5t-27 23.5l-29 7q-7 6 -5 18t11 16q97 9 220 9q173 -2 261 -61q108 -73 108 -218t-102 -250q-137 -140 -402 -140q-21 0 -67 3t-72 3q-68 0 -143 -3q-8 4 -6.5 18.5t11.5 15.5l29 5q33 5 46 22t34 86l54 173h-100q-6 9 -2 27.5t14 25.5z
M432 317h-117l-51 -162q-14 -43 -14 -70q-1 -21 16.5 -33t49.5 -12q105 0 196 76q68 56 102 138t34 160q0 25 -3 48t-15 53t-32 51t-57 36t-86 15q-32 0 -41 -7t-19 -39l-63 -201h112q5 -10 2 -28.5t-14 -24.5z" />
    <glyph glyph-name="dcroat" unicode="&#x111;" horiz-adv-x="528" 
d="M232 247q-35 -50 -60 -105.5t-25 -76.5q0 -22 15 -22q14 0 57.5 35t75.5 77q59 76 82 147q9 28 5 48t-17 20q-14 0 -37 -17q-46 -34 -96 -106zM643 568l-18 -47h-57l-127 -381q-15 -43 -17 -64q0 -12 9 -12t39 20t52 43q19 -2 16 -23q-25 -37 -81.5 -77.5t-121.5 -40.5
q-38 0 -38 42q0 14 20 72l23 66h-2q-23 -35 -42.5 -59.5t-50 -55.5t-67 -48t-75.5 -17q-33 0 -53 26.5t-19 68.5q2 62 36 131t91 119q94 83 192 83q36 0 54 -25l44 132h-109l14 47h111l5 16q9 27 7.5 38.5t-14.5 18.5l-28 16q-6 15 5 24q23 10 84 21t97 13q10 -1 10 -10
q-37 -96 -46 -130l-2 -7h59z" />
    <glyph glyph-name="Emacron" unicode="&#x112;" horiz-adv-x="596" 
d="M599 725h-253q-9 12 -7 36t15 33h253q9 -12 6.5 -34.5t-14.5 -34.5zM336 660h222q114 0 136 3q-26 -64 -51 -157q-4 -8 -18.5 -9t-19.5 5q4 52 -4 77q-12 35 -84 35h-78q-26 0 -33 -6t-16 -34l-55 -174q-7 -21 -4 -25.5t23 -4.5h66q39 0 55.5 10t35.5 46l13 24
q8 7 22 6.5t16 -7.5q-6 -16 -37 -106q-2 -5 -30 -106q-6 -6 -20.5 -6.5t-17.5 5.5l3 25q4 36 -6.5 46t-49.5 10h-66q-20 0 -26 -5t-12 -25l-38 -122q-24 -74 -14 -95q7 -14 26.5 -19t71.5 -5q51 0 75.5 5t56.5 30t72 80q8 6 22 4.5t18 -10.5q-13 -39 -37 -88.5t-40 -69.5
q-97 3 -241 3h-130q-70 0 -145 -3q-8 4 -6.5 18t11.5 17l34 5q36 5 49.5 21.5t34.5 85.5l117 372q20 61 16.5 81.5t-37.5 26.5l-24 4q-7 5 -5 18t12 17q70 -3 137 -3z" />
    <glyph glyph-name="emacron" unicode="&#x113;" horiz-adv-x="401" 
d="M332 414q43 0 70 -23t27 -57q0 -107 -252 -172q-5 -15 -5 -48q0 -22 11 -38.5t32 -16.5q60 0 130 70q8 0 14.5 -6.5t5.5 -16.5q-36 -57 -93.5 -88.5t-124.5 -31.5q-52 0 -79.5 32t-27.5 83q0 67 38 138.5t97 116.5q76 58 157 58zM297 370q-20 0 -43 -26q-48 -52 -69 -138
q55 16 95 57q15 15 25 40t11 44q0 9 -5 16t-14 7zM429 496h-223q-7 12 -3 37.5t15 34.5h223q8 -12 4 -36t-16 -36z" />
    <glyph glyph-name="Edotaccent" unicode="&#x116;" horiz-adv-x="596" 
d="M468 712q-27 0 -42.5 17t-11.5 45q3 26 22 43.5t46 17.5q26 0 42 -18t12 -46q-4 -26 -23 -42.5t-45 -16.5zM336 660h222q114 0 136 3q-26 -64 -51 -157q-4 -8 -18.5 -9t-19.5 5q4 52 -4 77q-12 35 -84 35h-78q-26 0 -33 -6t-16 -34l-55 -174q-7 -21 -4 -25.5t23 -4.5h66
q39 0 55.5 10t35.5 46l13 24q8 7 22 6.5t16 -7.5q-6 -16 -37 -106q-2 -5 -30 -106q-6 -6 -20.5 -6.5t-17.5 5.5l3 25q4 36 -6.5 46t-49.5 10h-66q-20 0 -26 -5t-12 -25l-38 -122q-24 -74 -14 -95q7 -14 26.5 -19t71.5 -5q51 0 75.5 5t56.5 30t72 80q8 6 22 4.5t18 -10.5
q-13 -39 -37 -88.5t-40 -69.5q-97 3 -241 3h-130q-70 0 -145 -3q-8 4 -6.5 18t11.5 17l34 5q36 5 49.5 21.5t34.5 85.5l117 372q20 61 16.5 81.5t-37.5 26.5l-24 4q-7 5 -5 18t12 17q70 -3 137 -3z" />
    <glyph glyph-name="edotaccent" unicode="&#x117;" horiz-adv-x="401" 
d="M332 414q43 0 70 -23t27 -57q0 -107 -252 -172q-5 -15 -5 -48q0 -22 11 -38.5t32 -16.5q60 0 130 70q8 0 14.5 -6.5t5.5 -16.5q-36 -57 -93.5 -88.5t-124.5 -31.5q-52 0 -79.5 32t-27.5 83q0 67 38 138.5t97 116.5q76 58 157 58zM297 370q-20 0 -43 -26q-48 -52 -69 -138
q55 16 95 57q15 15 25 40t11 44q0 9 -5 16t-14 7zM316 489q-27 0 -42.5 17t-11.5 45q3 27 22 44.5t46 17.5q26 0 42.5 -18.5t12.5 -46.5q-5 -26 -24 -42.5t-45 -16.5z" />
    <glyph glyph-name="Eogonek" unicode="&#x118;" horiz-adv-x="596" 
d="M272 0h-130q-70 0 -145 -3q-8 4 -6.5 18t11.5 17l34 5q36 5 49.5 21.5t34.5 85.5l117 372q20 61 16.5 81.5t-37.5 26.5l-24 4q-7 5 -5 18t12 17q64 -3 137 -3h222q114 0 136 3q-26 -64 -51 -157q-4 -8 -18.5 -9t-19.5 5q4 52 -4 77q-12 35 -84 35h-78q-26 0 -33 -6
t-16 -34l-55 -174q-7 -21 -4 -25.5t23 -4.5h66q39 0 55.5 10t35.5 46l13 24q8 7 22 6.5t16 -7.5q-6 -16 -37 -106q-2 -5 -30 -106q-6 -6 -20.5 -6.5t-17.5 5.5l3 25q4 36 -6.5 46t-49.5 10h-66q-20 0 -26 -5t-12 -25l-38 -122q-24 -74 -14 -95q7 -14 26.5 -19t71.5 -5
q51 0 75.5 5t56.5 30t72 80q8 6 22 4.5t18 -10.5q-13 -39 -37 -88.5t-40 -69.5h-22q-112 -68 -112 -141q4 -23 14.5 -32.5t33.5 -9.5q34 0 63 15q11 -3 8 -27q-23 -26 -57.5 -40.5t-66.5 -14.5q-42 0 -66.5 22.5t-24.5 62.5q0 85 153 166q-78 2 -164 2z" />
    <glyph glyph-name="eogonek" unicode="&#x119;" horiz-adv-x="401" 
d="M297 370q-20 0 -43 -26q-48 -52 -69 -138q55 16 95 57q15 15 25 40t11 44q0 9 -5 16t-14 7zM147 -14q-52 0 -79.5 32t-27.5 83q0 67 38 138.5t97 116.5q76 58 157 58q43 0 70 -23t27 -57q0 -107 -252 -172q-5 -15 -5 -48q0 -22 11 -38.5t32 -16.5q60 0 130 70
q8 0 14.5 -6.5t5.5 -16.5q-30 -40 -79 -81q-65 -55 -92.5 -93.5t-27.5 -79.5q7 -44 52 -44q25 0 55 14q10 -3 8 -20q-44 -55 -120 -55q-37 0 -62 20.5t-25 58.5q0 39 32.5 77t96.5 90q-30 -7 -56 -7z" />
    <glyph glyph-name="Ecaron" unicode="&#x11a;" horiz-adv-x="596" 
d="M354 877l119 -64q17 -9 38 0l142 64q8 0 13 -10.5t1 -20.5l-165 -127q-28 -22 -48 0l-118 129q0 10 6 19t12 10zM336 660h222q114 0 136 3q-26 -64 -51 -157q-4 -8 -18.5 -9t-19.5 5q4 52 -4 77q-12 35 -84 35h-78q-26 0 -33 -6t-16 -34l-55 -174q-7 -21 -4 -25.5
t23 -4.5h66q39 0 55.5 10t35.5 46l13 24q8 7 22 6.5t16 -7.5q-6 -16 -37 -106q-2 -5 -30 -106q-6 -6 -20.5 -6.5t-17.5 5.5l3 25q4 36 -6.5 46t-49.5 10h-66q-20 0 -26 -5t-12 -25l-38 -122q-24 -74 -14 -95q7 -14 26.5 -19t71.5 -5q51 0 75.5 5t56.5 30t72 80q8 6 22 4.5
t18 -10.5q-13 -39 -37 -88.5t-40 -69.5q-97 3 -241 3h-130q-70 0 -145 -3q-8 4 -6.5 18t11.5 17l34 5q36 5 49.5 21.5t34.5 85.5l117 372q20 61 16.5 81.5t-37.5 26.5l-24 4q-7 5 -5 18t12 17q70 -3 137 -3z" />
    <glyph glyph-name="ecaron" unicode="&#x11b;" horiz-adv-x="401" 
d="M332 414q43 0 70 -23t27 -57q0 -107 -252 -172q-5 -15 -5 -48q0 -22 11 -38.5t32 -16.5q60 0 130 70q8 0 14.5 -6.5t5.5 -16.5q-36 -57 -93.5 -88.5t-124.5 -31.5q-52 0 -79.5 32t-27.5 83q0 67 38 138.5t97 116.5q76 58 157 58zM297 370q-20 0 -43 -26q-48 -52 -69 -138
q55 16 95 57q15 15 25 40t11 44q0 9 -5 16t-14 7zM265 672l48 -88q11 -20 18 -20q5 0 27 22l89 88q23 0 23 -20l-138 -191q-9 -13 -23 -13q-16 0 -20 13l-50 191q4 16 26 18z" />
    <glyph glyph-name="Gbreve" unicode="&#x11e;" horiz-adv-x="756" 
d="M750 265l-24 -4q-23 -4 -32 -16.5t-21 -53.5l-22 -76q-15 -53 -10 -62q3 -5 10 -6q3 -3 0 -12.5t-10 -11.5q-32 -5 -67 -15q-74 -24 -164 -24q-153 0 -230.5 73t-77.5 197q0 89 39 168.5t101 133.5q138 120 345 120q111 0 204 -37q-26 -59 -50 -157q-5 -8 -19.5 -8
t-17.5 8q8 77 -23 112.5t-105 35.5q-86 0 -162 -59.5t-119 -151.5t-43 -190q0 -105 49.5 -152t123.5 -47q41 0 58.5 14.5t30.5 59.5l26 86q11 40 2.5 52.5t-45.5 17.5l-32 5q-9 5 -7.5 17.5t10.5 17.5q102 -3 166 -3q76 0 117 3q8 -5 7 -17.5t-8 -17.5zM561 720
q-64 0 -89 35t-9 102q11 7 26 0q-3 -36 18 -53t63 -17q81 0 110 70q14 6 27 0q-20 -137 -146 -137z" />
    <glyph glyph-name="gbreve" unicode="&#x11f;" horiz-adv-x="416" 
d="M280 370q-25 0 -56 -41q-23 -31 -42.5 -80.5t-19.5 -82.5q0 -29 27 -29q32 0 72 74q16 28 30 67.5t14 59.5q0 15 -7.5 23.5t-17.5 8.5zM138 -269q-30 0 -59.5 4.5t-59.5 15t-49 31.5t-19 49q0 22 13 42t29 33t43 25.5t42.5 18t38.5 12.5q-39 27 -39 54q0 17 20.5 40
t42.5 39v2q-38 9 -63 37t-24 78q0 28 13.5 61t39.5 65.5t72.5 54t104.5 21.5q22 0 49 -10q7 -2 20 -9t18 -7q17 0 41 8q32 12 49 12q34 0 34 -41q0 -22 -10.5 -31.5t-22.5 -9.5t-28 6q-18 6 -25 6q-9 0 -7 -11q3 -24 3 -28q0 -84 -62 -143t-156 -63q-15 -13 -15 -24
q0 -17 70 -52q27 -13 38.5 -19t37 -23t38 -30.5t24 -34.5t11.5 -44q0 -37 -27 -65t-69 -42.5t-82 -21t-75 -6.5zM161 -64q-26 0 -54 -23q-32 -26 -32 -61q0 -33 33.5 -52.5t83.5 -19.5q42 0 69 14t27 37q0 35 -49 67q-60 38 -78 38zM284 471q-56 0 -81.5 42.5t-6.5 114.5
q14 8 32 0q-1 -38 19 -61t48 -23q34 0 62.5 22.5t40.5 61.5q16 8 32 0q-8 -78 -42 -117.5t-104 -39.5z" />
    <glyph glyph-name="Gcommaaccent" unicode="&#x122;" horiz-adv-x="756" 
d="M750 265l-24 -4q-23 -4 -32 -16.5t-21 -53.5l-22 -76q-15 -53 -10 -62q3 -5 10 -6q3 -3 0 -12.5t-10 -11.5q-32 -5 -67 -15q-74 -24 -164 -24q-153 0 -230.5 73t-77.5 197q0 89 39 168.5t101 133.5q138 120 345 120q111 0 204 -37q-26 -59 -50 -157q-5 -8 -19.5 -8
t-17.5 8q8 77 -23 112.5t-105 35.5q-86 0 -162 -59.5t-119 -151.5t-43 -190q0 -105 49.5 -152t123.5 -47q41 0 58.5 14.5t30.5 59.5l26 86q11 40 2.5 52.5t-45.5 17.5l-32 5q-9 5 -7.5 17.5t10.5 17.5q102 -3 166 -3q76 0 117 3q8 -5 7 -17.5t-8 -17.5zM355 -32
q25 0 46.5 -22t21.5 -61q0 -48 -41.5 -85t-109.5 -54q-9 2 -11.5 11t3.5 15q33 10 56.5 32t23.5 45t-26 38q-15 7 -15 30q0 20 15.5 35.5t36.5 15.5z" />
    <glyph glyph-name="gcommaaccent" unicode="&#x123;" horiz-adv-x="416" 
d="M138 -269q-30 0 -59.5 4.5t-59.5 15t-49 31.5t-19 49q0 22 13 42t29 33t43 25.5t42.5 18t38.5 12.5q-39 27 -39 54q0 17 20.5 40t42.5 39v2q-38 9 -63 37t-24 78q0 28 13.5 61t39.5 65.5t72.5 54t104.5 21.5q22 0 49 -10q7 -2 20 -9t18 -7q17 0 41 8q32 12 49 12
q34 0 34 -41q0 -22 -10.5 -31.5t-22.5 -9.5t-28 6q-18 6 -25 6q-9 0 -7 -11q3 -24 3 -28q0 -84 -62 -143t-156 -63q-15 -13 -15 -24q0 -17 70 -52q27 -13 38.5 -19t37 -23t38 -30.5t24 -34.5t11.5 -44q0 -37 -27 -65t-69 -42.5t-82 -21t-75 -6.5zM280 370q-25 0 -56 -41
q-23 -31 -42.5 -80.5t-19.5 -82.5q0 -29 27 -29q32 0 72 74q16 28 30 67.5t14 59.5q0 15 -7.5 23.5t-17.5 8.5zM161 -64q-26 0 -54 -23q-32 -26 -32 -61q0 -33 33.5 -52.5t83.5 -19.5q42 0 69 14t27 37q0 35 -49 67q-60 38 -78 38zM312 474q-25 0 -46.5 22.5t-21.5 61.5
q0 49 42 86.5t110 54.5q8 -3 10.5 -12t-2.5 -19q-33 -9 -56.5 -31t-23.5 -46q0 -19 25 -35q16 -8 16 -29t-15.5 -37t-37.5 -16z" />
    <glyph glyph-name="Imacron" unicode="&#x12a;" horiz-adv-x="366" 
d="M280 37l28 -5q5 -4 2.5 -17.5t-9.5 -17.5q-79 3 -150 3q-70 0 -145 -3q-8 4 -6 18.5t13 16.5l27 5q33 6 46 22.5t34 84.5l117 372q20 61 16 80.5t-41 26.5l-28 5q-6 4 -4 17.5t11 17.5q84 -3 154 -3q66 0 141 3q8 -4 6.5 -18t-11.5 -17l-29 -5q-33 -5 -46 -22t-34 -85
l-117 -372q-14 -44 -16.5 -63t6.5 -29t35 -15zM484 725h-253q-9 12 -7 36.5t15 33.5h253q10 -13 6.5 -37t-14.5 -33z" />
    <glyph glyph-name="imacron" unicode="&#x12b;" horiz-adv-x="309" 
d="M294 326l-104 -245q-7 -15 4 -15q10 0 42 22t52 41q9 0 15 -7t4 -17q-33 -44 -93 -81.5t-117 -37.5q-18 0 -32 14.5t-14 25.5q0 13 12 43l104 249q5 14 -2 14q-11 0 -42 -21t-47 -36q-9 1 -14 9t-2 15q39 48 99.5 81.5t101.5 33.5q17 0 31.5 -14t14.5 -30q0 -11 -13 -44z
M375 507h-223q-7 12 -3 36t15 36h223q8 -12 4 -36t-16 -36z" />
    <glyph glyph-name="Iogonek" unicode="&#x12e;" horiz-adv-x="366" 
d="M120 144l117 372q20 61 16 80.5t-41 26.5l-28 5q-6 4 -4 17.5t11 17.5q84 -3 154 -3q66 0 141 3q8 -4 6.5 -18t-11.5 -17l-29 -5q-33 -5 -46 -22t-34 -85l-117 -372q-14 -44 -16.5 -63t6.5 -29t35 -15l28 -5q5 -4 2.5 -17.5t-9.5 -17.5q-74 2 -105 2q-24 -26 -35.5 -40
t-25.5 -43.5t-14 -58.5q0 -43 46 -43q41 0 64 15q11 -3 8 -27q-47 -55 -125 -55q-38 0 -64.5 22t-26.5 63q0 77 130 168q-77 0 -147 -3q-8 4 -6 18.5t13 16.5l27 5q33 6 46 22.5t34 84.5z" />
    <glyph glyph-name="iogonek" unicode="&#x12f;" horiz-adv-x="309" 
d="M261 414q17 0 31.5 -14t14.5 -30q0 -11 -13 -44l-104 -245q-7 -15 4 -15q10 0 42 22t52 41q9 0 15 -7t4 -17q-36 -49 -124 -99q-93 -85 -93 -153q0 -45 55 -45q31 0 52 15q11 -3 9 -19q-46 -57 -120 -57q-36 0 -62 20t-26 62q0 28 24.5 63t45 53.5t55.5 47.5q-1 0 -7 -2
t-11.5 -3.5t-7.5 -1.5q-18 0 -32 14.5t-14 25.5q0 13 12 43l104 249q5 14 -2 14q-11 0 -42 -21t-47 -36q-9 1 -14 9t-2 15q39 48 99.5 81.5t101.5 33.5zM215 545q0 34 22.5 58.5t56.5 24.5q25 0 40.5 -16t15.5 -43q0 -34 -21 -57.5t-55 -23.5q-27 0 -43 16t-16 41z" />
    <glyph glyph-name="Idotaccent" unicode="&#x130;" horiz-adv-x="366" 
d="M280 37l28 -5q5 -4 2.5 -17.5t-9.5 -17.5q-79 3 -150 3q-70 0 -145 -3q-8 4 -6 18.5t13 16.5l27 5q33 6 46 22.5t34 84.5l117 372q20 61 16 80.5t-41 26.5l-28 5q-6 4 -4 17.5t11 17.5q84 -3 154 -3q66 0 141 3q8 -4 6.5 -18t-11.5 -17l-29 -5q-33 -5 -46 -22t-34 -85
l-117 -372q-14 -44 -16.5 -63t6.5 -29t35 -15zM353 712q-27 0 -42.5 17t-11.5 45q3 26 22 43.5t46 17.5q26 0 42 -18t12 -46q-4 -26 -23 -42.5t-45 -16.5z" />
    <glyph glyph-name="dotlessi" unicode="&#x131;" horiz-adv-x="309" 
d="M294 326l-104 -245q-7 -15 4 -15q10 0 42 22t52 41q9 0 15 -7t4 -17q-33 -44 -93 -81.5t-117 -37.5q-18 0 -32 14.5t-14 25.5q0 13 12 43l104 249q5 14 -2 14q-11 0 -42 -21t-47 -36q-9 1 -14 9t-2 15q39 48 99.5 81.5t101.5 33.5q17 0 31.5 -14t14.5 -30q0 -11 -13 -44z
" />
    <glyph glyph-name="Kcommaaccent" unicode="&#x136;" horiz-adv-x="692" 
d="M120 144l117 372q20 61 16 80.5t-41 26.5l-27 5q-8 4 -6 17.5t11 17.5q83 -3 153 -3q69 0 142 3q8 -4 7 -18t-11 -17l-29 -4q-33 -5 -45.5 -22t-34.5 -86l-41 -130q-9 -29 4 -29q33 0 100 62l122 115q52 52 60 61q11 11 11 18t-17 11l-21 5q-7 6 -6 18t12 16
q84 -3 133 -3q79 0 122 3q9 -3 9.5 -16.5t-7.5 -18.5q-60 -11 -91 -22q-55 -20 -178 -125l-69 -59q-37 -30 -37 -43q0 -9 10 -37q31 -82 113 -265q16 -35 52 -41l27 -4q6 -6 4.5 -18t-7.5 -17q-69 3 -140 3q-61 0 -133 -3q-9 4 -10 17.5t7 17.5l31 6q29 5 22 28q-1 4 -36 94
l-32 79q-20 49 -29.5 63.5t-24.5 14.5q-16 0 -23.5 -13.5t-20.5 -54.5l-33 -105q-14 -44 -16.5 -63.5t6.5 -30t35 -14.5l26 -4q6 -4 4.5 -17.5t-8.5 -17.5q-81 3 -153 3q-68 0 -143 -3q-8 4 -6.5 18t11.5 17l29 5q33 5 46 22t34 85zM323 -32q25 0 46.5 -22t21.5 -61
q0 -48 -41.5 -85t-109.5 -54q-9 2 -11.5 11t3.5 15q33 10 56.5 32t23.5 45t-26 38q-15 7 -15 30q0 20 15.5 35.5t36.5 15.5z" />
    <glyph glyph-name="kcommaaccent" unicode="&#x137;" horiz-adv-x="493" 
d="M440 414q41 0 63 -21.5t22 -52.5q0 -56 -56 -103q-41 -34 -123 -56q-10 -3 -6 -17l3.5 -17.5t4.5 -20l5 -18.5t6 -18t7 -13.5t9 -10t11 -3.5q22 0 72 52q7 2 13.5 -3.5t8.5 -13.5q-21 -42 -65.5 -77t-96.5 -35q-42 0 -61 39q-15 30 -29 93q-6 28 -20 28q-15 0 -22 -7.5
t-15 -28.5l-41 -106q-7 -18 -47 -18q-25 0 -45 9.5t-13 30.5l189 558q9 27 7.5 38t-15.5 19l-28 16q-6 15 5 24q24 10 85.5 21t98.5 13q10 -1 10 -10l-48 -130l-99 -282h3q40 50 85 81q57 40 122 40zM361 343q-53 0 -140 -112q-21 -26 -21 -40q0 -7 16 -7q45 0 106 41
q71 49 71 86q0 15 -9 23.5t-23 8.5zM224 -42q28 0 51.5 -24.5t23.5 -67.5q0 -53 -46 -95.5t-121 -61.5q-10 6 -12 16t4 17q36 11 62 35.5t26 49.5q0 27 -29 42q-16 9 -16 33q0 22 17 39t40 17z" />
    <glyph glyph-name="Lacute" unicode="&#x139;" horiz-adv-x="582" 
d="M368 730l157 118q21 16 32 16q17 0 33 -30q14 -26 10 -42q-5 -16 -31 -24l-190 -62q-16 6 -11 24zM373 516l-111 -351q-22 -68 -13 -94q5 -14 24 -19.5t68 -5.5q51 0 75.5 5t56.5 30t72 80q8 6 22 4.5t18 -10.5q-12 -37 -36 -87.5t-40 -70.5q-113 3 -242 3h-115
q-66 0 -146 -3q-9 4 -8.5 18t10.5 17l33 5q33 5 46 22t34 85l117 372q20 61 16 81.5t-41 26.5l-26 4q-8 4 -5.5 18t12.5 17q78 -3 152 -3q72 0 136 3q9 -4 8 -18t-11 -17l-26 -5q-33 -6 -46 -22.5t-34 -84.5z" />
    <glyph glyph-name="lacute" unicode="&#x13a;" horiz-adv-x="275" 
d="M96 -14q-64 0 -64 43q0 21 14 60l171 495q9 27 7.5 38.5t-14.5 18.5l-28 16q-6 15 5 24q24 10 85.5 21.5t98.5 12.5q10 -1 10 -10q-2 -5 -19 -52.5l-28 -78.5l-164 -475q-16 -46 1 -46q15 0 46.5 29.5t57.5 59.5q8 1 14 -5.5t5 -16.5q-69 -134 -198 -134zM250 760
l157 118q21 16 32 16q17 0 33 -30q14 -26 10 -42q-5 -16 -31 -24l-190 -62q-16 6 -11 24z" />
    <glyph glyph-name="Lcommaaccent" unicode="&#x13b;" horiz-adv-x="582" 
d="M288 -32q25 0 46.5 -22t21.5 -61q0 -48 -41.5 -85t-109.5 -54q-9 2 -11.5 11t3.5 15q33 10 56.5 32t23.5 45t-26 38q-15 7 -15 30q0 20 15.5 35.5t36.5 15.5zM373 516l-111 -351q-22 -68 -13 -94q5 -14 24 -19.5t68 -5.5q51 0 75.5 5t56.5 30t72 80q8 6 22 4.5t18 -10.5
q-12 -37 -36 -87.5t-40 -70.5q-113 3 -242 3h-115q-66 0 -146 -3q-9 4 -8.5 18t10.5 17l33 5q33 5 46 22t34 85l117 372q20 61 16 81.5t-41 26.5l-26 4q-8 4 -5.5 18t12.5 17q78 -3 152 -3q72 0 136 3q9 -4 8 -18t-11 -17l-26 -5q-33 -6 -46 -22.5t-34 -84.5z" />
    <glyph glyph-name="lcommaaccent" unicode="&#x13c;" horiz-adv-x="275" 
d="M96 -14q-64 0 -64 43q0 21 14 60l171 495q9 27 7.5 38.5t-14.5 18.5l-28 16q-6 15 5 24q24 10 85.5 21.5t98.5 12.5q10 -1 10 -10q-2 -5 -19 -52.5l-28 -78.5l-164 -475q-16 -46 1 -46q15 0 46.5 29.5t57.5 59.5q8 1 14 -5.5t5 -16.5q-69 -134 -198 -134zM75 -42
q28 0 51.5 -24.5t23.5 -67.5q0 -53 -46 -95.5t-121 -61.5q-10 6 -12 16t4 17q36 11 62 35.5t26 49.5q0 27 -29 42q-16 9 -16 33q0 22 17 39t40 17z" />
    <glyph glyph-name="Lcaron" unicode="&#x13d;" horiz-adv-x="582" 
d="M606 700q27 0 49 -23.5t22 -65.5q0 -51 -43.5 -91t-112.5 -57q-9 2 -12 11.5t3 16.5q34 10 58.5 33.5t24.5 49.5q0 24 -27 40q-15 8 -15 31q0 22 15.5 38.5t37.5 16.5zM373 516l-111 -351q-22 -68 -13 -94q5 -14 24 -19.5t68 -5.5q51 0 75.5 5t56.5 30t72 80q8 6 22 4.5
t18 -10.5q-12 -37 -36 -87.5t-40 -70.5q-113 3 -242 3h-115q-66 0 -146 -3q-9 4 -8.5 18t10.5 17l33 5q33 5 46 22t34 85l117 372q20 61 16 81.5t-41 26.5l-26 4q-8 4 -5.5 18t12.5 17q78 -3 152 -3q72 0 136 3q9 -4 8 -18t-11 -17l-26 -5q-33 -6 -46 -22.5t-34 -84.5z" />
    <glyph glyph-name="lcaron" unicode="&#x13e;" horiz-adv-x="275" 
d="M96 -14q-64 0 -64 43q0 21 14 60l171 495q9 27 7.5 38.5t-14.5 18.5l-28 16q-6 15 5 24q24 10 85.5 21.5t98.5 12.5q10 -1 10 -10q-2 -5 -19 -52.5l-28 -78.5l-164 -475q-16 -46 1 -46q15 0 46.5 29.5t57.5 59.5q8 1 14 -5.5t5 -16.5q-69 -134 -198 -134zM498 715
q24 0 8 -55q-15 -51 -54 -103t-75 -74q-16 -4 -23 5q-4 5 0 9q45 54 59 106q3 15 -4 39q-5 15 -3 24q3 11 36.5 30t55.5 19z" />
    <glyph glyph-name="Lslash" unicode="&#x141;" horiz-adv-x="588" 
d="M494 383l-182 -72l-46 -146q-22 -68 -13 -94q5 -14 24 -19.5t68 -5.5q51 0 75.5 5t56.5 30t72 80q8 6 22 4t18 -11q-12 -37 -36 -87t-40 -70q-113 3 -242 3h-115q-70 0 -145 -3q-9 5 -9 18.5t10 16.5l33 5q33 5 46 22t34 85l39 123l-89 -33q-19 13 -14 40l121 46l60 196
q20 61 16 81.5t-41 26.5l-26 4q-8 4 -5.5 18t12.5 17q81 -3 152 -3q72 0 136 3q9 -4 7.5 -18t-12.5 -17l-24 -4q-33 -5 -46 -22t-34 -86l-49 -151l155 58q20 -11 11 -40z" />
    <glyph glyph-name="lslash" unicode="&#x142;" horiz-adv-x="289" 
d="M372 398l-108 -52l-86 -247q-16 -46 1 -46q15 0 46.5 29.5t57.5 59.5q8 1 14 -5.5t5 -16.5q-69 -134 -198 -134q-64 0 -64 43q0 21 14 60l75 212l-73 -31q-16 7 -7 37l96 45l81 232q9 27 7.5 38.5t-14.5 18.5l-28 16q-6 15 5 24q24 10 85.5 21.5t98.5 12.5q10 -1 10 -10
l-47 -131l-62 -175l86 39q8 -3 8.5 -18t-3.5 -22z" />
    <glyph glyph-name="Nacute" unicode="&#x143;" horiz-adv-x="722" 
d="M150 251l82 265q20 61 16.5 82t-40.5 26l-28 4q-7 4 -4.5 17.5t11.5 17.5q78 -3 126 -3q47 0 80 3q-2 -14 2.5 -33.5t18.5 -55t23.5 -57.5l33.5 -76l47 -104q43 -96 63 -134q8 12 23 62l43 144q30 103 39 143q9 37 2 52t-44 20l-30 4q-7 7 -5 18.5t12 16.5q79 -3 124 -3
q47 0 116 3q6 -4 5.5 -17t-7.5 -18l-24 -5q-34 -7 -50 -20.5t-29 -49.5q-31 -87 -48 -144l-73 -239q-13 -43 -47 -167q-13 -11 -63 -11q-1 0 -9 20.5l-22 56.5t-26 63l-107 243q-60 139 -65 149q-7 -16 -25 -78l-59 -195q-33 -108 -39 -143q-8 -37 -1 -51t43 -20l30 -5
q4 -6 3.5 -18t-8.5 -17q-81 3 -126 3q-48 0 -115 -3q-7 4 -7 17t9 18l23 5q35 8 50.5 21.5t28.5 48.5q22 64 47 144zM473 730l157 118q21 16 32 16q17 0 33 -30q14 -26 10 -42q-5 -16 -31 -24l-190 -62q-16 6 -11 24z" />
    <glyph glyph-name="nacute" unicode="&#x144;" horiz-adv-x="544" 
d="M236 414q21 0 30.5 -11.5t8.5 -24.5t-6 -27l-47 -123h4q29 40 49 65t51.5 57t65 48t68.5 16q31 0 47 -18t16 -40q0 -37 -20 -89l-74 -179q-9 -22 4 -22q11 0 39.5 22.5t49.5 45.5q8 2 14.5 -3.5t5.5 -15.5q-26 -46 -84.5 -87.5t-125.5 -41.5q-17 0 -30 12.5t-13 26.5
q0 18 15 54q62 145 85 209q13 35 13 47q0 14 -13 14q-26 0 -76 -64q-59 -75 -155 -281q-9 -18 -48 -18q-25 0 -43 9.5t-11 30.5l96 271q13 36 -4 36q-29 0 -85 -54q-16 0 -18 16q21 43 77.5 81t113.5 38zM327 475l103 168q17 28 33 26q14 -1 36 -18q24 -24 23 -37
q-2 -17 -24 -34l-148 -123q-21 -2 -23 18z" />
    <glyph glyph-name="Ncommaaccent" unicode="&#x145;" horiz-adv-x="722" 
d="M150 251l82 265q20 61 16.5 82t-40.5 26l-28 4q-7 4 -4.5 17.5t11.5 17.5q78 -3 126 -3q47 0 80 3q-2 -14 2.5 -33.5t18.5 -55t23.5 -57.5l33.5 -76l47 -104q43 -96 63 -134q8 12 23 62l43 144q30 103 39 143q9 37 2 52t-44 20l-30 4q-7 7 -5 18.5t12 16.5q79 -3 124 -3
q47 0 116 3q6 -4 5.5 -17t-7.5 -18l-24 -5q-34 -7 -50 -20.5t-29 -49.5q-31 -87 -48 -144l-73 -239q-13 -43 -47 -167q-13 -11 -63 -11q-1 0 -9 20.5l-22 56.5t-26 63l-107 243q-60 139 -65 149q-7 -16 -25 -78l-59 -195q-33 -108 -39 -143q-8 -37 -1 -51t43 -20l30 -5
q4 -6 3.5 -18t-8.5 -17q-81 3 -126 3q-48 0 -115 -3q-7 4 -7 17t9 18l23 5q35 8 50.5 21.5t28.5 48.5q22 64 47 144zM338 -32q25 0 46.5 -22t21.5 -61q0 -48 -41.5 -85t-109.5 -54q-9 2 -11.5 11t3.5 15q33 10 56.5 32t23.5 45t-26 38q-15 7 -15 30q0 20 15.5 35.5
t36.5 15.5z" />
    <glyph glyph-name="ncommaaccent" unicode="&#x146;" horiz-adv-x="544" 
d="M236 414q21 0 30.5 -11.5t8.5 -24.5t-6 -27l-47 -123h4q29 40 49 65t51.5 57t65 48t68.5 16q31 0 47 -18t16 -40q0 -37 -20 -89l-74 -179q-9 -22 4 -22q11 0 39.5 22.5t49.5 45.5q8 2 14.5 -3.5t5.5 -15.5q-26 -46 -84.5 -87.5t-125.5 -41.5q-17 0 -30 12.5t-13 26.5
q0 18 15 54q62 145 85 209q13 35 13 47q0 14 -13 14q-26 0 -76 -64q-59 -75 -155 -281q-9 -18 -48 -18q-25 0 -43 9.5t-11 30.5l96 271q13 36 -4 36q-29 0 -85 -54q-16 0 -18 16q21 43 77.5 81t113.5 38zM239 -42q28 0 51.5 -24.5t23.5 -67.5q0 -53 -46 -95.5t-121 -61.5
q-10 6 -12 16t4 17q36 11 62 35.5t26 49.5q0 27 -29 42q-16 9 -16 33q0 22 17 39t40 17z" />
    <glyph glyph-name="Ncaron" unicode="&#x147;" horiz-adv-x="722" 
d="M150 251l82 265q20 61 16.5 82t-40.5 26l-28 4q-7 4 -4.5 17.5t11.5 17.5q78 -3 126 -3q47 0 80 3q-2 -14 2.5 -33.5t18.5 -55t23.5 -57.5l33.5 -76l47 -104q43 -96 63 -134q8 12 23 62l43 144q30 103 39 143q9 37 2 52t-44 20l-30 4q-7 7 -5 18.5t12 16.5q79 -3 124 -3
q47 0 116 3q6 -4 5.5 -17t-7.5 -18l-24 -5q-34 -7 -50 -20.5t-29 -49.5q-31 -87 -48 -144l-73 -239q-13 -43 -47 -167q-13 -11 -63 -11q-1 0 -9 20.5l-22 56.5t-26 63l-107 243q-60 139 -65 149q-7 -16 -25 -78l-59 -195q-33 -108 -39 -143q-8 -37 -1 -51t43 -20l30 -5
q4 -6 3.5 -18t-8.5 -17q-81 3 -126 3q-48 0 -115 -3q-7 4 -7 17t9 18l23 5q35 8 50.5 21.5t28.5 48.5q22 64 47 144zM397 877l119 -64q17 -9 38 0l142 64q8 0 13 -10.5t1 -20.5l-165 -127q-28 -22 -48 0l-118 129q0 10 6 19t12 10z" />
    <glyph glyph-name="ncaron" unicode="&#x148;" horiz-adv-x="544" 
d="M236 414q21 0 30.5 -11.5t8.5 -24.5t-6 -27l-47 -123h4q29 40 49 65t51.5 57t65 48t68.5 16q31 0 47 -18t16 -40q0 -37 -20 -89l-74 -179q-9 -22 4 -22q11 0 39.5 22.5t49.5 45.5q8 2 14.5 -3.5t5.5 -15.5q-26 -46 -84.5 -87.5t-125.5 -41.5q-17 0 -30 12.5t-13 26.5
q0 18 15 54q62 145 85 209q13 35 13 47q0 14 -13 14q-26 0 -76 -64q-59 -75 -155 -281q-9 -18 -48 -18q-25 0 -43 9.5t-11 30.5l96 271q13 36 -4 36q-29 0 -85 -54q-16 0 -18 16q21 43 77.5 81t113.5 38zM302 677l51 -83q12 -20 18 -20q5 0 27 22l86 83q23 0 23 -20
l-136 -191q-9 -13 -23 -13q-16 0 -20 13l-52 191q4 16 26 18z" />
    <glyph glyph-name="Omacron" unicode="&#x14c;" horiz-adv-x="758" 
d="M99 251q0 95 43 184.5t117 150.5q110 90 247 90q39 0 75.5 -8.5t73.5 -29t64.5 -51.5t44.5 -81t17 -112q0 -78 -33.5 -158.5t-89.5 -137.5q-45 -46 -117.5 -80t-156.5 -34q-81 0 -140 25.5t-89 68t-43 85t-13 88.5zM517 630q-52 0 -107 -43q-65 -52 -116.5 -163
t-51.5 -227q0 -75 33.5 -121t94.5 -46q74 0 137 72q66 76 98.5 171.5t32.5 191.5q0 84 -32.5 124.5t-88.5 40.5zM680 725h-253q-9 12 -7 37t15 37h253q9 -16 6.5 -39t-14.5 -35z" />
    <glyph glyph-name="omacron" unicode="&#x14d;" horiz-adv-x="468" 
d="M317 370q-23 0 -54 -38q-33 -42 -66 -119t-33 -142q0 -41 31 -41q33 0 74 67q26 43 51 111.5t25 119.5q0 42 -28 42zM310 414q75 0 111 -42.5t36 -103.5q0 -55 -25 -113t-68 -99q-73 -70 -170 -70q-72 0 -109 40.5t-36 98.5q1 60 28.5 122t76.5 104q73 63 156 63z
M451 501h-223q-7 12 -3 37.5t15 34.5h223q8 -12 4 -36t-16 -36z" />
    <glyph glyph-name="Ohungarumlaut" unicode="&#x150;" horiz-adv-x="758" 
d="M99 251q0 95 43 184.5t117 150.5q110 90 247 90q39 0 75.5 -8.5t73.5 -29t64.5 -51.5t44.5 -81t17 -112q0 -78 -33.5 -158.5t-89.5 -137.5q-45 -46 -117.5 -80t-156.5 -34q-81 0 -140 25.5t-89 68t-43 85t-13 88.5zM517 630q-52 0 -107 -43q-65 -52 -116.5 -163
t-51.5 -227q0 -75 33.5 -121t94.5 -46q74 0 137 72q66 76 98.5 171.5t32.5 191.5q0 84 -32.5 124.5t-88.5 40.5zM603 726l73 134q14 20 27 20q16 0 38 -19q24 -23 24 -42q0 -12 -32 -36l-106 -77q-6 0 -14.5 6.5t-9.5 13.5zM431 726l73 134q14 20 27 20q17 0 41 -21
q22 -19 22 -40q0 -12 -33 -36l-106 -77q-6 0 -14.5 6.5t-9.5 13.5z" />
    <glyph glyph-name="ohungarumlaut" unicode="&#x151;" horiz-adv-x="468" 
d="M317 370q-23 0 -54 -38q-33 -42 -66 -119t-33 -142q0 -41 31 -41q33 0 74 67q26 43 51 111.5t25 119.5q0 42 -28 42zM310 414q75 0 111 -42.5t36 -103.5q0 -55 -25 -113t-68 -99q-73 -70 -170 -70q-72 0 -109 40.5t-36 98.5q1 60 28.5 122t76.5 104q73 63 156 63z
M240 472l49 177q8 28 24 28q17 0 36 -10q26 -14 29 -29q2 -13 -13 -36l-98 -145q-20 -3 -27 15zM391 472l51 177q8 28 23 28q17 0 34 -10q27 -13 30 -29q2 -14 -12 -36l-99 -145q-19 -3 -27 15z" />
    <glyph glyph-name="OE" unicode="&#x152;" horiz-adv-x="1020" 
d="M803 660h179q114 0 136 3q-26 -64 -51 -157q-4 -8 -18.5 -9t-19.5 5q4 52 -4 77q-12 35 -84 35h-78q-26 0 -33 -6t-16 -34l-55 -174q-7 -21 -4 -25.5t23 -4.5h66q39 0 55.5 10t35.5 46l13 24q8 7 22 6.5t16 -7.5q-6 -16 -37 -106q-2 -5 -30 -106q-6 -6 -20.5 -6.5
t-17.5 5.5l3 25q4 36 -6.5 46t-49.5 10h-66q-20 0 -26 -5t-12 -25l-38 -122q-22 -69 -14 -94q5 -13 25.5 -19t72.5 -6q51 0 75.5 5t56.5 30t72 80q8 6 22 4.5t18 -10.5q-13 -39 -37 -88.5t-40 -69.5q-62 2 -113 2q-42 1 -128 1h-85q-45 0 -88 -3q-10 0 -27 -1t-31.5 -1.5
t-26.5 -0.5q-76 0 -135.5 17t-96.5 43.5t-60.5 62.5t-33 71t-9.5 73q0 184 148 301q130 104 338 104q70 0 121 -3q6 0 40.5 -1.5t52.5 -1.5zM539 121l135 436q12 40 -13 53q-19 10 -59 10q-81 0 -149.5 -37t-112 -94t-67.5 -123.5t-24 -128.5q0 -93 47 -145t139 -52
q41 0 65.5 17t38.5 64z" />
    <glyph glyph-name="oe" unicode="&#x153;" horiz-adv-x="652" 
d="M345 328q0 42 -26 42q-24 0 -55 -38q-33 -42 -66 -119t-33 -142q0 -41 31 -41q32 0 73 67q26 43 51 111.5t25 119.5zM418 339q4 5 17 16q74 59 148 59q43 0 70 -23t27 -57q0 -106 -251 -172q-5 -15 -5 -48q0 -22 11 -38.5t31 -16.5q60 0 130 70q8 0 14.5 -6.5t5.5 -16.5
q-36 -56 -91.5 -88t-113.5 -32q-66 0 -84 67q-67 -67 -144 -67q-64 0 -99 41t-34 106q1 54 28 114.5t77 103.5q73 63 157 63q39 0 68 -19.5t38 -55.5zM437 206q52 11 94 57q15 15 25 40t11 44q0 9 -5 16t-13 7q-21 0 -44 -26q-25 -27 -43.5 -67t-24.5 -71z" />
    <glyph glyph-name="Racute" unicode="&#x154;" horiz-adv-x="626" 
d="M119 144l120 377q12 36 14.5 53t-3 25.5t-21.5 12.5l-32 8q-7 6 -5 18t11 16q106 9 198 9q128 0 195 -32q37 -18 60 -53.5t23 -81.5q0 -68 -47.5 -111t-114.5 -60q-13 -3 -15.5 -8t-0.5 -15q39 -216 66 -245q13 -14 60 -24q7 -5 5.5 -15.5t-8.5 -15.5q-24 -6 -92 -6
q-55 0 -79 15q-36 24 -49 91l-28 146q-5 25 -15.5 34.5t-33.5 9.5q-18 0 -24 -4t-11 -19l-41 -125q-21 -61 -17 -81t42 -27l26 -5q7 -4 5 -17t-10 -17q-73 3 -147 3q-68 0 -143 -3q-8 5 -8 19t9 15l31 5q33 5 45.5 22t34.5 86zM533 511q0 45 -22 75.5t-72 30.5
q-27 0 -34.5 -5.5t-14.5 -27.5l-68 -215q-7 -22 1 -27.5t43 -5.5q69 0 118 53.5t49 121.5zM404 731l165 124q22 17 34 17q18 0 35 -32q14 -27 10 -44q-5 -16 -32 -25l-200 -65q-6 2 -10 10t-2 15z" />
    <glyph glyph-name="racute" unicode="&#x155;" horiz-adv-x="397" 
d="M397 414q49 0 49 -60q0 -40 -22 -69t-44 -29q-9 0 -15 7t-8.5 14.5t-5.5 24.5q-4 23 -16 23q-20 0 -69 -87q-13 -23 -24.5 -46t-23.5 -50.5l-18.5 -43l-20.5 -49.5t-18 -45q-8 -18 -48 -18q-25 0 -43.5 9.5t-11.5 30.5q16 52 49.5 151.5l44.5 131.5q10 32 -4 32
q-13 0 -37.5 -18t-45.5 -43q-9 1 -14.5 8t-3.5 15q19 38 63.5 74.5t93.5 36.5q75 0 43 -96l-36 -106h5q52 93 83 133q51 69 98 69zM267 472l103 168q17 28 33 26q14 -1 36 -18q24 -24 23 -37q-2 -17 -24 -34l-148 -123q-21 -2 -23 18z" />
    <glyph glyph-name="Rcommaaccent" unicode="&#x156;" horiz-adv-x="626" 
d="M119 144l120 377q12 36 14.5 53t-3 25.5t-21.5 12.5l-32 8q-7 6 -5 18t11 16q106 9 198 9q128 0 195 -32q37 -18 60 -53.5t23 -81.5q0 -68 -47.5 -111t-114.5 -60q-13 -3 -15.5 -8t-0.5 -15q39 -216 66 -245q13 -14 60 -24q7 -5 5.5 -15.5t-8.5 -15.5q-24 -6 -92 -6
q-55 0 -79 15q-36 24 -49 91l-28 146q-5 25 -15.5 34.5t-33.5 9.5q-18 0 -24 -4t-11 -19l-41 -125q-21 -61 -17 -81t42 -27l26 -5q7 -4 5 -17t-10 -17q-73 3 -147 3q-68 0 -143 -3q-8 5 -8 19t9 15l31 5q33 5 45.5 22t34.5 86zM533 511q0 45 -22 75.5t-72 30.5
q-27 0 -34.5 -5.5t-14.5 -27.5l-68 -215q-7 -22 1 -27.5t43 -5.5q69 0 118 53.5t49 121.5zM310 -32q25 0 46.5 -22t21.5 -61q0 -48 -41.5 -85t-109.5 -54q-9 2 -11.5 11t3.5 15q33 10 56.5 32t23.5 45t-26 38q-15 7 -15 30q0 20 15.5 35.5t36.5 15.5z" />
    <glyph glyph-name="rcommaaccent" unicode="&#x157;" horiz-adv-x="397" 
d="M397 414q49 0 49 -60q0 -40 -22 -69t-44 -29q-9 0 -15 7t-8.5 14.5t-5.5 24.5q-4 23 -16 23q-20 0 -69 -87q-13 -23 -24.5 -46t-23.5 -50.5l-18.5 -43l-20.5 -49.5t-18 -45q-8 -18 -48 -18q-25 0 -43.5 9.5t-11.5 30.5q16 52 49.5 151.5l44.5 131.5q10 32 -4 32
q-13 0 -37.5 -18t-45.5 -43q-9 1 -14.5 8t-3.5 15q19 38 63.5 74.5t93.5 36.5q75 0 43 -96l-36 -106h5q52 93 83 133q51 69 98 69zM71 -52q28 0 51.5 -24.5t23.5 -67.5q0 -53 -46 -95.5t-121 -61.5q-10 6 -12 16t4 17q36 11 62 35.5t26 49.5q0 27 -29 42q-16 9 -16 33
q0 22 17 39t40 17z" />
    <glyph glyph-name="Rcaron" unicode="&#x158;" horiz-adv-x="626" 
d="M119 144l120 377q12 36 14.5 53t-3 25.5t-21.5 12.5l-32 8q-7 6 -5 18t11 16q106 9 198 9q128 0 195 -32q37 -18 60 -53.5t23 -81.5q0 -68 -47.5 -111t-114.5 -60q-13 -3 -15.5 -8t-0.5 -15q39 -216 66 -245q13 -14 60 -24q7 -5 5.5 -15.5t-8.5 -15.5q-24 -6 -92 -6
q-55 0 -79 15q-36 24 -49 91l-28 146q-5 25 -15.5 34.5t-33.5 9.5q-18 0 -24 -4t-11 -19l-41 -125q-21 -61 -17 -81t42 -27l26 -5q7 -4 5 -17t-10 -17q-73 3 -147 3q-68 0 -143 -3q-8 5 -8 19t9 15l31 5q33 5 45.5 22t34.5 86zM533 511q0 45 -22 75.5t-72 30.5
q-27 0 -34.5 -5.5t-14.5 -27.5l-68 -215q-7 -22 1 -27.5t43 -5.5q69 0 118 53.5t49 121.5zM339 877l119 -64q17 -9 38 0l142 64q8 0 13 -10.5t1 -20.5l-165 -127q-28 -22 -48 0l-118 129q0 10 6 19t12 10z" />
    <glyph glyph-name="rcaron" unicode="&#x159;" horiz-adv-x="397" 
d="M397 414q49 0 49 -60q0 -40 -22 -69t-44 -29q-9 0 -15 7t-8.5 14.5t-5.5 24.5q-4 23 -16 23q-20 0 -69 -87q-13 -23 -24.5 -46t-23.5 -50.5l-18.5 -43l-20.5 -49.5t-18 -45q-8 -18 -48 -18q-25 0 -43.5 9.5t-11.5 30.5q16 52 49.5 151.5l44.5 131.5q10 32 -4 32
q-13 0 -37.5 -18t-45.5 -43q-9 1 -14.5 8t-3.5 15q19 38 63.5 74.5t93.5 36.5q75 0 43 -96l-36 -106h5q52 93 83 133q51 69 98 69zM249 677l51 -83q12 -20 18 -20q5 0 27 22l86 83q23 0 23 -20l-136 -191q-9 -13 -23 -13q-16 0 -20 13l-52 191q4 16 26 18z" />
    <glyph glyph-name="Sacute" unicode="&#x15a;" horiz-adv-x="528" 
d="M376 730l157 118q21 16 32 16q17 0 33 -30q14 -26 10 -42q-5 -16 -31 -24l-190 -62q-16 6 -11 24zM245 -16q-72 0 -127 26.5t-74 60.5q-2 72 19 145q4 6 19 5.5t20 -7.5q4 -63 29 -105q45 -79 130 -79q49 0 84 32t35 89q0 72 -84 132l-25 18q-109 79 -109 167
q0 94 69.5 151.5t175.5 56.5q113 -2 183 -54q-25 -55 -44 -133q-6 -9 -20 -8t-19 8q10 58 -18 99.5t-88 41.5q-54 0 -87 -33.5t-33 -74.5q0 -60 85 -117l31 -21q114 -77 114 -186q0 -95 -70 -154.5t-196 -59.5z" />
    <glyph glyph-name="sacute" unicode="&#x15b;" horiz-adv-x="324" 
d="M254 414q41 0 69.5 -23t28.5 -57q0 -26 -15.5 -39t-30.5 -13q-11 0 -23 14q-50 57 -79 57q-10 0 -18 -8t-8 -18q0 -19 26 -45l38 -39q51 -52 51 -102q0 -62 -60 -111q-52 -44 -125 -44q-38 0 -68.5 21t-30.5 56q0 24 14.5 41t34.5 17q9 0 31 -22q49 -52 79 -52
q13 0 23.5 9t10.5 20q0 21 -29 51l-33 35q-49 51 -49 101q0 60 56 109q51 42 107 42zM240 469l103 168q17 28 33 26q14 -1 36 -18q24 -24 23 -37q-2 -17 -24 -34l-148 -123q-21 -2 -23 18z" />
    <glyph glyph-name="Scedilla" unicode="&#x15e;" horiz-adv-x="528" 
d="M175 -105l61 90q-69 1 -121.5 27t-70.5 59q-2 72 19 145q4 6 19 5.5t20 -7.5q4 -63 29 -105q45 -79 130 -79q49 0 84 32t35 89q0 72 -84 132l-25 18q-109 79 -109 167q0 94 69.5 151.5t175.5 56.5q113 -2 183 -54q-25 -55 -44 -133q-6 -9 -20 -8t-19 8q10 58 -18 99.5
t-88 41.5q-54 0 -87 -33.5t-33 -74.5q0 -60 85 -117l31 -21q114 -77 114 -186q0 -85 -57.5 -142.5t-162.5 -68.5l-29 -39q-6 -8 -4.5 -11.5t12.5 -11.5q48 -38 48 -82q0 -40 -38 -66t-88 -26q-77 0 -77 44q0 14 9 23t23 9t35.5 -18t31.5 -18t18 6.5t8 18.5q0 46 -61 70z" />
    <glyph glyph-name="scedilla" unicode="&#x15f;" horiz-adv-x="324" 
d="M254 414q41 0 69.5 -23t28.5 -57q0 -26 -15.5 -39t-30.5 -13q-11 0 -23 14q-50 57 -79 57q-10 0 -18 -8t-8 -18q0 -19 26 -45l38 -39q51 -52 51 -102q0 -62 -60 -111q-33 -29 -79 -38l-32 -44q-6 -8 -4.5 -11.5t12.5 -11.5q48 -38 48 -82q0 -40 -38 -66t-88 -26
q-77 0 -77 44q0 14 9 23t23 9t35.5 -18t31.5 -18t18 6.5t8 18.5q0 46 -61 70l-4 9l63 93q-35 2 -62 22t-27 53q0 24 14.5 41t34.5 17q9 0 31 -22q49 -52 79 -52q13 0 23.5 9t10.5 20q0 21 -29 51l-33 35q-49 51 -49 101q0 60 56 109q51 42 107 42z" />
    <glyph glyph-name="Scaron" unicode="&#x160;" horiz-adv-x="528" 
d="M313 877l119 -64q18 -10 39 0l141 64q8 0 13 -10.5t2 -20.5l-165 -127q-30 -22 -49 0l-117 129q0 10 5.5 19t11.5 10zM245 -16q-72 0 -127 26.5t-74 60.5q-2 72 19 145q4 6 19 5.5t20 -7.5q4 -63 29 -105q45 -79 130 -79q49 0 84 32t35 89q0 72 -84 132l-25 18
q-109 79 -109 167q0 94 69.5 151.5t175.5 56.5q113 -2 183 -54q-25 -55 -44 -133q-6 -9 -20 -8t-19 8q10 58 -18 99.5t-88 41.5q-54 0 -87 -33.5t-33 -74.5q0 -60 85 -117l31 -21q114 -77 114 -186q0 -95 -70 -154.5t-196 -59.5z" />
    <glyph glyph-name="scaron" unicode="&#x161;" horiz-adv-x="324" 
d="M254 414q41 0 69.5 -23t28.5 -57q0 -26 -15.5 -39t-30.5 -13q-11 0 -23 14q-50 57 -79 57q-10 0 -18 -8t-8 -18q0 -19 26 -45l38 -39q51 -52 51 -102q0 -62 -60 -111q-52 -44 -125 -44q-38 0 -68.5 21t-30.5 56q0 24 14.5 41t34.5 17q9 0 31 -22q49 -52 79 -52
q13 0 23.5 9t10.5 20q0 21 -29 51l-33 35q-49 51 -49 101q0 60 56 109q51 42 107 42zM215 674l51 -83q12 -20 18 -20q5 0 27 22l86 83q23 0 23 -20l-136 -191q-9 -13 -23 -13q-16 0 -20 13l-52 191q4 16 26 18z" />
    <glyph glyph-name="uni0162" unicode="&#x162;" horiz-adv-x="645" 
d="M203 -105l72 105q-57 0 -137 -3q-8 4 -7.5 18t10.5 17l39 5q33 5 46 21.5t34 85.5l139 442q6 19 2 23.5t-28 4.5h-41q-54 0 -84 -23q-42 -33 -71 -84q-7 -5 -22 -1t-15 13q56 116 75 167q11 11 28 1q0 -16 14.5 -21.5t63.5 -5.5h374q50 0 70 26q6 4 18 3t15 -6
q-42 -87 -62 -173q-5 -8 -20.5 -8t-19.5 8q6 73 -9 86q-23 18 -72 18h-44q-23 0 -28 -3.5t-12 -24.5l-136 -442q-20 -61 -16 -81.5t41 -25.5l37 -5q5 -4 3 -17.5t-9 -17.5q-71 3 -123 3l-38 -52q-6 -8 -4.5 -11.5t12.5 -11.5q48 -38 48 -82q0 -40 -38 -66t-88 -26
q-77 0 -77 44q0 14 9 23t23 9t35.5 -18t31.5 -18t18 6.5t8 18.5q0 46 -61 70z" />
    <glyph glyph-name="uni0163" unicode="&#x163;" horiz-adv-x="321" 
d="M380 348h-101l-93 -259q-8 -23 6 -23q13 0 44 23t62 54q22 -1 20 -23q-20 -30 -61.5 -64.5t-85.5 -53.5l-40 -54q-6 -8 -4.5 -11.5t12.5 -11.5q48 -38 48 -82q0 -40 -38 -66t-88 -26q-77 0 -77 44q0 14 9 23t23 9t35.5 -18t31.5 -18t18 6.5t8 18.5q0 46 -61 70l-4 9
l62 91h-6q-20 0 -33 13t-13 30q0 21 11 54l91 265h-74q-7 6 -4 19.5t12 18.5l87 18l72 96q12 8 34 8q28 0 37 -17l-27 -91h92q11 -11 7.5 -28.5t-12.5 -23.5z" />
    <glyph glyph-name="Tcaron" unicode="&#x164;" horiz-adv-x="645" 
d="M321 660h374q50 0 70 26q6 4 18 3t15 -6q-42 -87 -62 -173q-5 -8 -20.5 -8t-19.5 8q6 73 -9 86q-23 18 -72 18h-44q-23 0 -28 -3.5t-12 -24.5l-136 -442q-20 -61 -16 -81.5t41 -25.5l37 -5q5 -4 3 -17.5t-9 -17.5q-95 3 -160 3q-63 0 -153 -3q-8 4 -7.5 18t10.5 17l39 5
q33 5 46 21.5t34 85.5l139 442q6 19 2 23.5t-28 4.5h-41q-54 0 -84 -23q-42 -33 -71 -84q-7 -5 -22 -1t-15 13q56 116 75 167q11 11 28 1q0 -16 14.5 -21.5t63.5 -5.5zM379 877l119 -64q17 -9 38 0l142 64q8 0 13 -10.5t1 -20.5l-165 -127q-28 -22 -48 0l-118 129q0 10 6 19
t12 10z" />
    <glyph glyph-name="tcaron" unicode="&#x165;" horiz-adv-x="321" 
d="M380 348h-101l-93 -259q-8 -23 6 -23q13 0 44 23t62 54q22 -1 20 -23q-30 -45 -96 -89.5t-122 -44.5q-20 0 -33 13t-13 30q0 21 11 54l91 265h-74q-7 6 -4 19.5t12 18.5l87 18l72 96q12 8 34 8q28 0 37 -17l-27 -91h92q11 -11 7.5 -28.5t-12.5 -23.5zM489 715q24 0 8 -55
q-15 -51 -54 -103t-75 -74q-16 -4 -23 5q-4 5 0 9q45 54 59 106q3 15 -4 39q-5 15 -3 24q3 11 36.5 30t55.5 19z" />
    <glyph glyph-name="Umacron" unicode="&#x16a;" horiz-adv-x="731" 
d="M468 629l-25 -5q-32 -6 -45 -23t-34 -85l-72 -231q-19 -63 -21 -110q-2 -137 129 -137q82 0 131.5 62t82.5 168l44 141q26 85 39 143q9 37 2 51.5t-44 20.5l-30 5q-5 6 -4 17.5t9 16.5q81 -3 126 -3q47 0 116 3q7 -4 6.5 -16.5t-8.5 -17.5l-24 -6q-35 -9 -50.5 -22
t-28.5 -48q-20 -51 -49 -144l-46 -147q-24 -76 -48.5 -125t-66.5 -86q-35 -31 -89 -49t-112 -18q-223 0 -223 176q0 44 19 106l77 250q20 61 16 81.5t-41 27.5l-24 4q-8 4 -5 17t14 17q72 -3 145 -3q68 0 139 3q8 -4 6.5 -17.5t-11.5 -16.5zM667 725h-253q-9 12 -7 36t15 33
h253q9 -12 6.5 -34.5t-14.5 -34.5z" />
    <glyph glyph-name="umacron" unicode="&#x16b;" horiz-adv-x="543" 
d="M258 414q17 0 31 -13.5t14 -28.5q0 -16 -5 -28l-99 -243q-11 -27 8 -27q13 0 38 21q87 74 200 311q18 8 37 8q42 0 70 -22l-114 -295q-9 -28 5 -28q11 0 40.5 22t50.5 43q18 -3 18 -23q-24 -42 -88 -83.5t-122 -41.5q-20 0 -31.5 15t-2.5 36l56 142h-2
q-50 -70 -119.5 -131.5t-123.5 -61.5q-25 0 -40 15t-15 37q0 20 15 59l83 209q4 10 3 18t-7 8q-7 0 -19 -7t-22 -14.5t-26 -21l-22 -18.5q-18 7 -17 24q32 43 92.5 81t113.5 38zM490 498h-223q-7 12 -3 37.5t15 34.5h223q8 -12 4 -36t-16 -36z" />
    <glyph glyph-name="Uring" unicode="&#x16e;" horiz-adv-x="731" 
d="M468 629l-25 -5q-32 -6 -45 -23t-34 -85l-72 -231q-19 -63 -21 -110q-2 -137 129 -137q82 0 131.5 62t82.5 168l44 141q26 85 39 143q9 37 2 51.5t-44 20.5l-30 5q-5 6 -4 17.5t9 16.5q81 -3 126 -3q47 0 116 3q7 -4 6.5 -16.5t-8.5 -17.5l-24 -6q-35 -9 -50.5 -22
t-28.5 -48q-20 -51 -49 -144l-46 -147q-24 -76 -48.5 -125t-66.5 -86q-35 -31 -89 -49t-112 -18q-223 0 -223 176q0 44 19 106l77 250q20 61 16 81.5t-41 27.5l-24 4q-8 4 -5 17t14 17q72 -3 145 -3q68 0 139 3q8 -4 6.5 -17.5t-11.5 -16.5zM560 886q46 0 74.5 -29.5
t28.5 -68.5q0 -40 -28.5 -69.5t-74.5 -29.5t-74.5 29.5t-28.5 69.5q0 39 28.5 68.5t74.5 29.5zM560 850q-21 -1 -33 -19t-12 -44t12 -44t33 -18t33 18t12 44t-12 44t-33 19z" />
    <glyph glyph-name="uring" unicode="&#x16f;" horiz-adv-x="543" 
d="M258 414q17 0 31 -13.5t14 -28.5q0 -16 -5 -28l-99 -243q-11 -27 8 -27q13 0 38 21q87 74 200 311q18 8 37 8q42 0 70 -22l-114 -295q-9 -28 5 -28q11 0 40.5 22t50.5 43q18 -3 18 -23q-24 -42 -88 -83.5t-122 -41.5q-20 0 -31.5 15t-2.5 36l56 142h-2
q-50 -70 -119.5 -131.5t-123.5 -61.5q-25 0 -40 15t-15 37q0 20 15 59l83 209q4 10 3 18t-7 8q-7 0 -19 -7t-22 -14.5t-26 -21l-22 -18.5q-18 7 -17 24q32 43 92.5 81t113.5 38zM379 455q-44 0 -70.5 28t-26.5 66t26.5 65.5t70.5 27.5t70.5 -27.5t26.5 -65.5t-26.5 -66
t-70.5 -28zM379 491q20 0 31.5 16.5t11.5 41.5t-11.5 42t-31.5 18q-20 -1 -31.5 -18t-11.5 -42t11.5 -41.5t31.5 -16.5z" />
    <glyph glyph-name="Uhungarumlaut" unicode="&#x170;" horiz-adv-x="731" 
d="M468 629l-25 -5q-32 -6 -45 -23t-34 -85l-72 -231q-19 -63 -21 -110q-2 -137 129 -137q82 0 131.5 62t82.5 168l44 141q26 85 39 143q9 37 2 51.5t-44 20.5l-30 5q-5 6 -4 17.5t9 16.5q81 -3 126 -3q47 0 116 3q7 -4 6.5 -16.5t-8.5 -17.5l-24 -6q-35 -9 -50.5 -22
t-28.5 -48q-20 -51 -49 -144l-46 -147q-24 -76 -48.5 -125t-66.5 -86q-35 -31 -89 -49t-112 -18q-223 0 -223 176q0 44 19 106l77 250q20 61 16 81.5t-41 27.5l-24 4q-8 4 -5 17t14 17q72 -3 145 -3q68 0 139 3q8 -4 6.5 -17.5t-11.5 -16.5zM605 726l73 134q14 20 27 20
q16 0 38 -19q24 -23 24 -42q0 -12 -32 -36l-106 -77q-6 0 -14.5 6.5t-9.5 13.5zM433 726l73 134q14 20 27 20q17 0 41 -21q22 -19 22 -40q0 -12 -33 -36l-106 -77q-6 0 -14.5 6.5t-9.5 13.5z" />
    <glyph glyph-name="uhungarumlaut" unicode="&#x171;" horiz-adv-x="543" 
d="M258 414q17 0 31 -13.5t14 -28.5q0 -16 -5 -28l-99 -243q-11 -27 8 -27q13 0 38 21q87 74 200 311q18 8 37 8q42 0 70 -22l-114 -295q-9 -28 5 -28q11 0 40.5 22t50.5 43q18 -3 18 -23q-24 -42 -88 -83.5t-122 -41.5q-20 0 -31.5 15t-2.5 36l56 142h-2
q-50 -70 -119.5 -131.5t-123.5 -61.5q-25 0 -40 15t-15 37q0 20 15 59l83 209q4 10 3 18t-7 8q-7 0 -19 -7t-22 -14.5t-26 -21l-22 -18.5q-18 7 -17 24q32 43 92.5 81t113.5 38zM281 469l49 177q8 28 24 28q17 0 36 -10q26 -14 29 -29q2 -13 -13 -36l-98 -145q-20 -3 -27 15
zM432 469l51 177q8 28 23 28q16 0 34 -10q26 -13 30 -29q2 -14 -12 -36l-99 -145q-19 -3 -27 15z" />
    <glyph glyph-name="Uogonek" unicode="&#x172;" horiz-adv-x="731" 
d="M152 266l77 250q20 61 16 81.5t-41 27.5l-24 4q-8 4 -5 17t14 17q72 -3 145 -3q68 0 139 3q8 -4 6.5 -17.5t-11.5 -16.5l-25 -5q-32 -6 -45 -23t-34 -85l-72 -231q-19 -63 -21 -110q-2 -137 129 -137q82 0 131.5 62t82.5 168l44 141q26 85 39 143q9 37 2 51.5t-44 20.5
l-30 5q-5 6 -4 17.5t9 16.5q81 -3 126 -3q47 0 116 3q7 -4 6.5 -16.5t-8.5 -17.5l-24 -6q-35 -9 -50.5 -22t-28.5 -48q-20 -51 -49 -144l-46 -147q-23 -72 -48 -121t-68 -86q-38 -33 -89 -57q-52 -24 -89 -60.5t-37 -74.5q0 -22 13 -35t36 -13q41 0 63 14q11 -3 9 -25
q-45 -56 -123 -58q-44 -1 -68.5 22.5t-24.5 63.5q0 45 35 80.5t104 75.5q-13 -3 -54 -3q-90 0 -144 43.5t-54 131.5q0 44 19 106z" />
    <glyph glyph-name="uogonek" unicode="&#x173;" horiz-adv-x="543" 
d="M342 -14q-20 0 -31.5 15t-2.5 36l56 142h-2q-50 -70 -119.5 -131.5t-123.5 -61.5q-25 0 -40 15t-15 37q0 20 15 59l83 209q4 10 3 18t-7 8q-7 0 -19 -7t-22 -14.5t-26 -21l-22 -18.5q-18 7 -17 24q32 43 92.5 81t113.5 38q17 0 31 -13.5t14 -28.5q0 -16 -5 -28l-99 -243
q-11 -27 8 -27q13 0 38 21q87 74 200 311q18 8 37 8q42 0 70 -22l-114 -295q-9 -28 5 -28q11 0 40.5 22t50.5 43q18 -3 18 -23q-9 -15 -71 -73q-70 -64 -100 -103.5t-30 -82.5q0 -44 54 -44q31 0 53 14q10 -3 8 -20q-44 -55 -115 -55q-38 0 -64.5 19.5t-26.5 56.5
q0 30 20.5 62t42 52t65.5 57q-24 -8 -46 -8z" />
    <glyph glyph-name="Ydieresis" unicode="&#x178;" horiz-adv-x="594" 
d="M398 37l37 -5q5 -4 3 -17.5t-9 -17.5q-95 3 -162 3q-61 0 -151 -3q-8 4 -7 18t9 17l40 6q33 5 45.5 21t34.5 85l14 44q19 61 9 125l-41 227q-8 48 -17.5 65t-37.5 20l-22 3q-6 7 -4 19.5t11 15.5q80 -3 134 -3q62 0 131 3q9 -3 8.5 -17t-7.5 -18l-37 -7q-32 -6 -32 -22
q0 -15 6 -57q17 -118 39 -217l140 174q75 93 75 104t-21 16l-36 9q-8 5 -6 18t11 17q84 -3 125 -3q58 0 96 3q8 -3 7.5 -16.5t-8.5 -18.5l-25 -4q-27 -4 -43.5 -15t-50.5 -47q-76 -81 -188 -218q-33 -40 -46.5 -64t-25.5 -63l-23 -73q-14 -44 -16.5 -63.5t6.5 -29.5t35 -14z
M380 833q27 0 42.5 -17.5t11.5 -44.5q-4 -26 -22.5 -42.5t-45.5 -16.5q-25 0 -40 17.5t-11 43.5t22 43t43 17zM579 833q27 0 42.5 -17.5t11.5 -44.5q-4 -26 -22.5 -42.5t-45.5 -16.5q-25 0 -40 17.5t-11 43.5t22 43t43 17z" />
    <glyph glyph-name="Zacute" unicode="&#x179;" horiz-adv-x="643" 
d="M434 730l157 118q21 16 32 16q17 0 33 -30q14 -26 10 -42q-5 -16 -31 -24l-190 -62q-16 6 -11 24zM513 614h-122q-62 0 -96 -23q-42 -28 -85 -91q-10 -5 -23.5 -1.5t-14.5 13.5q68 152 77 176q4 3 13 3t15 -2q0 -17 13.5 -23t63.5 -6h303q77 0 101 3q6 -2 7 -9.5
t-4 -13.5q-20 -14 -87.5 -80t-119.5 -122l-161 -174q-181 -196 -181 -205q0 -13 91 -13h85q76 0 111 19q56 31 107 107q6 6 21 4t17 -11q-16 -45 -41 -97.5t-42 -70.5q-174 3 -211 3h-259q-77 0 -93 -3q-16 4 -10 21q52 42 133 129l401 432q16 18 16 28q0 7 -25 7z" />
    <glyph glyph-name="zacute" unicode="&#x17a;" horiz-adv-x="442" 
d="M-1 25q0 25 51 69q49 41 131 104l109 84q13 11 -2 17q-69 25 -130 25q-10 0 -17 -5.5t-7 -13.5q0 -9 11.5 -23t11.5 -21q0 -12 -11 -21.5t-27 -10.5q-22 -1 -37 13t-15 34q0 43 54 91q47 40 111 40q33 0 85 -19q38 -13 57 -13q28 0 53 34q18 2 31.5 -13t7.5 -36
l-294 -236v-4q39 0 92 -29q67 -36 86 -36q29 0 29 20q0 11 -12 36t-12 38q0 11 8.5 19.5t22.5 8.5q27 0 45.5 -22.5t17.5 -46.5q-1 -51 -52 -90q-50 -39 -108 -39q-47 0 -106 32q-46 24 -72 24q-35 0 -53 -48q-30 -2 -44.5 10t-14.5 28zM264 466l103 168q17 28 33 26
q14 -1 36 -18q24 -24 23 -37q-2 -17 -24 -34l-148 -123q-21 -2 -23 18z" />
    <glyph glyph-name="Zdotaccent" unicode="&#x17b;" horiz-adv-x="643" 
d="M492 712q-27 0 -42.5 17t-11.5 45q3 26 22 43.5t46 17.5q26 0 42 -18t12 -46q-4 -26 -23 -42.5t-45 -16.5zM513 614h-122q-62 0 -96 -23q-42 -28 -85 -91q-10 -5 -23.5 -1.5t-14.5 13.5q68 152 77 176q4 3 13 3t15 -2q0 -17 13.5 -23t63.5 -6h303q77 0 101 3q6 -2 7 -9.5
t-4 -13.5q-20 -14 -87.5 -80t-119.5 -122l-161 -174q-181 -196 -181 -205q0 -13 91 -13h85q76 0 111 19q56 31 107 107q6 6 21 4t17 -11q-16 -45 -41 -97.5t-42 -70.5q-174 3 -211 3h-259q-77 0 -93 -3q-16 4 -10 21q52 42 133 129l401 432q16 18 16 28q0 7 -25 7z" />
    <glyph glyph-name="zdotaccent" unicode="&#x17c;" horiz-adv-x="442" 
d="M-1 25q0 25 51 69q49 41 131 104l109 84q13 11 -2 17q-69 25 -130 25q-10 0 -17 -5.5t-7 -13.5q0 -9 11.5 -23t11.5 -21q0 -12 -11 -21.5t-27 -10.5q-22 -1 -37 13t-15 34q0 43 54 91q47 40 111 40q33 0 85 -19q38 -13 57 -13q28 0 53 34q18 2 31.5 -13t7.5 -36
l-294 -236v-4q39 0 92 -29q67 -36 86 -36q29 0 29 20q0 11 -12 36t-12 38q0 11 8.5 19.5t22.5 8.5q27 0 45.5 -22.5t17.5 -46.5q-1 -51 -52 -90q-50 -39 -108 -39q-47 0 -106 32q-46 24 -72 24q-35 0 -53 -48q-30 -2 -44.5 10t-14.5 28zM312 490q-27 0 -42.5 17t-11.5 45
q3 27 22 44.5t46 17.5q26 0 42.5 -18.5t12.5 -46.5q-5 -26 -24 -42.5t-45 -16.5z" />
    <glyph glyph-name="Zcaron" unicode="&#x17d;" horiz-adv-x="643" 
d="M371 877l119 -64q18 -10 39 0l141 64q8 0 13 -10.5t2 -20.5l-165 -127q-30 -22 -49 0l-117 129q0 9 6 18.5t11 10.5zM513 614h-122q-62 0 -96 -23q-42 -28 -85 -91q-10 -5 -23.5 -1.5t-14.5 13.5q68 152 77 176q4 3 13 3t15 -2q0 -17 13.5 -23t63.5 -6h303q77 0 101 3
q6 -2 7 -9.5t-4 -13.5q-20 -14 -87.5 -80t-119.5 -122l-161 -174q-181 -196 -181 -205q0 -13 91 -13h85q76 0 111 19q56 31 107 107q6 6 21 4t17 -11q-16 -45 -41 -97.5t-42 -70.5q-174 3 -211 3h-259q-77 0 -93 -3q-16 4 -10 21q52 42 133 129l401 432q16 18 16 28
q0 7 -25 7z" />
    <glyph glyph-name="zcaron" unicode="&#x17e;" horiz-adv-x="442" 
d="M-1 25q0 25 51 69q49 41 131 104l109 84q13 11 -2 17q-69 25 -130 25q-10 0 -17 -5.5t-7 -13.5q0 -9 11.5 -23t11.5 -21q0 -12 -11 -21.5t-27 -10.5q-22 -1 -37 13t-15 34q0 43 54 91q47 40 111 40q33 0 85 -19q38 -13 57 -13q28 0 53 34q18 2 31.5 -13t7.5 -36
l-294 -236v-4q39 0 92 -29q67 -36 86 -36q29 0 29 20q0 11 -12 36t-12 38q0 11 8.5 19.5t22.5 8.5q27 0 45.5 -22.5t17.5 -46.5q-1 -51 -52 -90q-50 -39 -108 -39q-47 0 -106 32q-46 24 -72 24q-35 0 -53 -48q-30 -2 -44.5 10t-14.5 28zM243 668l51 -83q12 -20 18 -20
q5 0 27 22l86 83q23 0 23 -20l-136 -191q-9 -13 -23 -13q-16 0 -20 13l-52 191q4 16 26 18z" />
    <glyph glyph-name="florin" unicode="&#x192;" horiz-adv-x="520" 
d="M178 427h81q27 82 61 137q30 49 87 91t126 42q39 0 58 -14.5t17 -34.5q-4 -25 -24.5 -44t-40.5 -19q-13 0 -22 18q-16 41 -33 41q-34 0 -100 -217h110q6 -4 1 -20t-16 -25h-109q-11 -31 -45 -145q-43 -143 -76.5 -204.5t-84.5 -105.5q-59 -49 -122 -49q-67 0 -65 69
q1 21 13.5 39t21.5 18t25 -19q21 -28 32 -39t23 -11q9 0 15.5 10.5t14.5 34.5q29 86 120 402h-83q-5 8 0.5 24.5t14.5 20.5z" />
    <glyph glyph-name="Scommaaccent" unicode="&#x218;" horiz-adv-x="528" 
d="M231 -52q25 0 46.5 -22t21.5 -61q0 -48 -41.5 -85t-109.5 -54q-9 2 -11.5 11t3.5 15q33 10 56.5 32t23.5 45t-26 38q-15 7 -15 30q0 20 15.5 35.5t36.5 15.5zM245 -16q-72 0 -127 26.5t-74 60.5q-2 72 19 145q4 6 19 5.5t20 -7.5q4 -63 29 -105q45 -79 130 -79
q49 0 84 32t35 89q0 72 -84 132l-25 18q-109 79 -109 167q0 94 69.5 151.5t175.5 56.5q113 -2 183 -54q-25 -55 -44 -133q-6 -9 -20 -8t-19 8q10 58 -18 99.5t-88 41.5q-54 0 -87 -33.5t-33 -74.5q0 -60 85 -117l31 -21q114 -77 114 -186q0 -95 -70 -154.5t-196 -59.5z" />
    <glyph glyph-name="scommaaccent" unicode="&#x219;" horiz-adv-x="324" 
d="M254 414q41 0 69.5 -23t28.5 -57q0 -26 -15.5 -39t-30.5 -13q-11 0 -23 14q-50 57 -79 57q-10 0 -18 -8t-8 -18q0 -19 26 -45l38 -39q51 -52 51 -102q0 -62 -60 -111q-52 -44 -125 -44q-38 0 -68.5 21t-30.5 56q0 24 14.5 41t34.5 17q9 0 31 -22q49 -52 79 -52
q13 0 23.5 9t10.5 20q0 21 -29 51l-33 35q-49 51 -49 101q0 60 56 109q51 42 107 42zM114 -42q28 0 51.5 -24.5t23.5 -67.5q0 -53 -46 -95.5t-121 -61.5q-10 6 -12 16t4 17q36 11 62 35.5t26 49.5q0 27 -29 42q-16 9 -16 33q0 22 17 39t40 17z" />
    <glyph glyph-name="uni021A" unicode="&#x21a;" horiz-adv-x="645" 
d="M321 660h374q50 0 70 26q6 4 18 3t15 -6q-42 -87 -62 -173q-5 -8 -20.5 -8t-19.5 8q6 73 -9 86q-23 18 -72 18h-44q-23 0 -28 -3.5t-12 -24.5l-136 -442q-20 -61 -16 -81.5t41 -25.5l37 -5q5 -4 3 -17.5t-9 -17.5q-95 3 -160 3q-63 0 -153 -3q-8 4 -7.5 18t10.5 17l39 5
q33 5 46 21.5t34 85.5l139 442q6 19 2 23.5t-28 4.5h-41q-54 0 -84 -23q-42 -33 -71 -84q-7 -5 -22 -1t-15 13q56 116 75 167q11 11 28 1q0 -16 14.5 -21.5t63.5 -5.5zM285 -32q25 0 46.5 -22t21.5 -61q0 -48 -41.5 -85t-109.5 -54q-9 2 -11.5 11t3.5 15q33 10 56.5 32
t23.5 45t-26 38q-15 7 -15 30q0 20 15.5 35.5t36.5 15.5z" />
    <glyph glyph-name="uni021B" unicode="&#x21b;" horiz-adv-x="321" 
d="M380 348h-101l-93 -259q-8 -23 6 -23q13 0 44 23t62 54q22 -1 20 -23q-30 -45 -96 -89.5t-122 -44.5q-20 0 -33 13t-13 30q0 21 11 54l91 265h-74q-7 6 -4 19.5t12 18.5l87 18l72 96q12 8 34 8q28 0 37 -17l-27 -91h92q11 -11 7.5 -28.5t-12.5 -23.5zM118 -42
q28 0 51.5 -24.5t23.5 -67.5q0 -53 -46 -95.5t-121 -61.5q-10 6 -12 16t4 17q36 11 62 35.5t26 49.5q0 27 -29 42q-16 9 -16 33q0 22 17 39t40 17z" />
    <glyph glyph-name="circumflex" unicode="&#x2c6;" horiz-adv-x="380" 
d="M423 455l-52 81q-12 20 -19 20q-4 0 -26 -22l-83 -81q-23 0 -23 20l134 189q9 13 23 13q16 0 20 -13l51 -189q-4 -16 -25 -18z" />
    <glyph glyph-name="caron" unicode="&#x2c7;" horiz-adv-x="380" 
d="M269 677l51 -83q12 -20 18 -20q5 0 27 22l86 83q23 0 23 -20l-136 -191q-9 -13 -23 -13q-16 0 -20 13l-52 191q4 16 26 18z" />
    <glyph glyph-name="uni02C9" unicode="&#x2c9;" horiz-adv-x="380" 
d="M408 506h-223q-7 12 -3 37.5t15 34.5h223q8 -12 4 -36t-16 -36z" />
    <glyph glyph-name="breve" unicode="&#x2d8;" horiz-adv-x="380" 
d="M288 485q-56 0 -81.5 42.5t-6.5 114.5q14 8 32 0q-4 -40 17 -64t50 -24q34 0 62.5 23.5t40.5 64.5q16 8 32 0q-8 -78 -42 -117.5t-104 -39.5z" />
    <glyph glyph-name="dotaccent" unicode="&#x2d9;" horiz-adv-x="380" 
d="M305 489q-27 0 -42.5 17t-11.5 45q3 27 22 44.5t46 17.5q26 0 42.5 -18.5t12.5 -46.5q-5 -26 -24 -42.5t-45 -16.5z" />
    <glyph glyph-name="ring" unicode="&#x2da;" horiz-adv-x="380" 
d="M340 459q-44 0 -70.5 28t-26.5 66t26.5 65.5t70.5 27.5t70.5 -27.5t26.5 -65.5t-26.5 -66t-70.5 -28zM340 495q20 0 31.5 16.5t11.5 41.5t-11.5 42.5t-31.5 17.5t-31.5 -17.5t-11.5 -42.5t11.5 -41.5t31.5 -16.5z" />
    <glyph glyph-name="ogonek" unicode="&#x2db;" horiz-adv-x="380" 
d="M212 5h54q-35 -25 -56.5 -43t-42.5 -49t-21 -61q8 -46 54 -46q28 0 53 16q10 -3 8 -20q-44 -55 -115 -55q-38 0 -64.5 19.5t-26.5 56.5q0 53 51 103.5t106 78.5z" />
    <glyph glyph-name="tilde" unicode="&#x2dc;" horiz-adv-x="380" 
d="M368 520h-56q-58 0 -86 -49q-4 -3 -16 -1.5t-15 7.5q19 59 41 87q23 28 61 28h56q33 0 50 9t28 38q6 2 16.5 0.5t13.5 -5.5q-9 -50 -33 -86q-19 -28 -60 -28z" />
    <glyph glyph-name="hungarumlaut" unicode="&#x2dd;" horiz-adv-x="380" 
d="M209 476l49 177q8 28 24 28q17 0 36 -10q26 -14 29 -29q2 -13 -13 -36l-98 -145q-20 -3 -27 15zM360 476l51 177q8 28 23 28q16 0 34 -10q26 -13 30 -29q2 -14 -12 -36l-99 -145q-19 -3 -27 15z" />
    <glyph glyph-name="pi" unicode="&#x3c0;" horiz-adv-x="570" 
d="M410 314h-132q-60 -161 -94 -236q-41 -92 -89 -92q-23 0 -37 13t-14 37q0 15 7 23t23 16q68 33 147 239q-43 0 -68.5 -9.5t-52.5 -36.5q-10 -10 -21 -6.5t-7 19.5q15 67 67 96q40 23 108 23h217q97 0 121 10l3 -9q-6 -20 -20.5 -47t-23.5 -39q-34 -5 -77 -3
q-45 -81 -59 -166q-6 -35 1.5 -53.5t22.5 -18.5q34 0 68 33q14 12 22 7.5t-2 -23.5q-60 -105 -161 -105q-34 0 -51.5 21.5t-16.5 49t5 53.5q16 68 114 204z" />
    <glyph glyph-name="uni2010" unicode="&#x2010;" horiz-adv-x="320" 
d="M63 237l239 22q14 -16 14 -42q0 -23 -13 -39l-240 -22q-15 15 -15 40q0 22 15 41z" />
    <glyph glyph-name="figuredash" unicode="&#x2012;" horiz-adv-x="520" 
d="M112 349h436l-22 -69h-436z" />
    <glyph glyph-name="endash" unicode="&#x2013;" horiz-adv-x="500" 
d="M22 242h500l-18 -69h-500z" />
    <glyph glyph-name="emdash" unicode="&#x2014;" horiz-adv-x="1000" 
d="M22 242h1000l-18 -69h-1000z" />
    <glyph glyph-name="quoteleft" unicode="&#x2018;" horiz-adv-x="262" 
d="M255 428q-32 0 -58.5 27t-26.5 77q0 60 52 106.5t137 67.5q10 -4 13 -14.5t-3 -19.5q-41 -12 -70.5 -39.5t-29.5 -56.5t32 -47q19 -9 19 -37q0 -25 -19 -44.5t-46 -19.5z" />
    <glyph glyph-name="quoteright" unicode="&#x2019;" horiz-adv-x="262" 
d="M265 700q32 0 58.5 -27t26.5 -77q0 -60 -52 -106.5t-137 -67.5q-10 4 -13 14.5t3 19.5q41 12 70.5 39.5t29.5 56.5t-32 47q-19 9 -19 37q0 25 19 44.5t46 19.5z" />
    <glyph glyph-name="quotesinglbase" unicode="&#x201a;" horiz-adv-x="262" 
d="M103 160q32 0 58.5 -27t26.5 -77q0 -60 -52 -106.5t-137 -67.5q-10 4 -13 14.5t3 19.5q41 12 70.5 39.5t29.5 56.5t-32 47q-19 9 -19 37q0 25 19 44.5t46 19.5z" />
    <glyph glyph-name="quotedblleft" unicode="&#x201c;" horiz-adv-x="480" 
d="M256 428q-32 0 -58.5 27t-26.5 77q0 60 52 106.5t137 67.5q10 -4 13 -14.5t-3 -19.5q-41 -12 -70.5 -39.5t-29.5 -56.5t32 -47q19 -9 19 -37q0 -25 -19 -44.5t-46 -19.5zM472 428q-32 0 -58.5 27t-26.5 77q0 60 52 106.5t137 67.5q10 -4 13 -14.5t-3 -19.5
q-41 -12 -70.5 -39.5t-29.5 -56.5t32 -47q19 -9 19 -37q0 -25 -19 -44.5t-46 -19.5z" />
    <glyph glyph-name="quotedblright" unicode="&#x201d;" horiz-adv-x="480" 
d="M264 700q32 0 58.5 -27t26.5 -77q0 -60 -52 -106.5t-137 -67.5q-10 4 -13 14.5t3 19.5q41 12 70.5 39.5t29.5 56.5t-32 47q-19 9 -19 37q0 25 19 44.5t46 19.5zM480 700q32 0 58.5 -27t26.5 -77q0 -60 -52 -106.5t-137 -67.5q-10 4 -13 14.5t3 19.5q41 12 70.5 39.5
t29.5 56.5t-32 47q-19 9 -19 37q0 25 19 44.5t46 19.5z" />
    <glyph glyph-name="quotedblbase" unicode="&#x201e;" horiz-adv-x="480" 
d="M104 160q32 0 58.5 -27t26.5 -77q0 -60 -52 -106.5t-137 -67.5q-10 4 -13 14.5t3 19.5q41 12 70.5 39.5t29.5 56.5t-32 47q-19 9 -19 37q0 25 19 44.5t46 19.5zM320 160q32 0 58.5 -27t26.5 -77q0 -60 -52 -106.5t-137 -67.5q-10 4 -13 14.5t3 19.5q41 12 70.5 39.5
t29.5 56.5t-32 47q-19 9 -19 37q0 25 19 44.5t46 19.5z" />
    <glyph glyph-name="dagger" unicode="&#x2020;" horiz-adv-x="490" 
d="M199 -127h-58l37 127q36 124 36 262q53 48 86 158q-28 0 -65 -16t-54 -16q-25 0 -39 15.5t-9 41.5q4 23 22 37.5t41 14.5q18 0 54 -16t63 -16q11 44 5.5 85t-2.5 56q7 31 29 50.5t54 19.5q31 0 46 -20t7 -50q-5 -17 -34.5 -57t-44.5 -84q27 0 65 16t56 16
q26 0 40.5 -15.5t8.5 -42.5q-4 -23 -22.5 -37t-42.5 -14q-19 0 -55 16t-63 16q-32 -108 -6 -158q-82 -137 -118 -262z" />
    <glyph glyph-name="daggerdbl" unicode="&#x2021;" horiz-adv-x="490" 
d="M179 -124q-32 0 -46.5 21.5t-6.5 47.5q7 23 37 65t42 83q-33 0 -70 -15.5t-51 -15.5q-25 0 -39.5 16t-8.5 43q5 20 22.5 34t41.5 14q13 0 49.5 -15.5t68.5 -15.5q33 111 2 149q54 42 83 141q-33 0 -70 -15.5t-51 -15.5q-25 0 -39.5 16t-8.5 43q5 20 22.5 34t41.5 14
q13 0 49.5 -15.5t68.5 -15.5q10 43 5.5 82t-0.5 56q6 26 25 45.5t52 19.5q36 0 47 -20t6 -45q-4 -19 -33.5 -58.5t-43.5 -79.5q31 0 69 15.5t54 15.5q24 0 38 -16t10 -42q-4 -21 -21 -35t-43 -14q-13 0 -48.5 15.5t-71.5 15.5q-29 -99 1 -141q-52 -38 -86 -149q31 0 69 15.5
t54 15.5q24 0 38 -16t10 -42q-4 -21 -21 -35t-43 -14q-13 0 -48 15.5t-72 15.5q-12 -42 -7.5 -85t-0.5 -68q-16 -64 -76 -64z" />
    <glyph glyph-name="bullet" unicode="&#x2022;" horiz-adv-x="414" 
d="M273 492q65 0 110.5 -45.5t45.5 -110.5q0 -66 -45.5 -111.5t-110.5 -45.5q-64 0 -109.5 45.5t-45.5 111.5q0 65 45 110.5t110 45.5z" />
    <glyph glyph-name="onedotenleader" unicode="&#x2024;" horiz-adv-x="500" 
d="M235 150q30 0 48.5 -20t18.5 -54q0 -38 -24.5 -64t-60.5 -26q-30 0 -49.5 19t-19.5 51q0 37 24.5 65.5t62.5 28.5z" />
    <glyph glyph-name="twodotenleader" unicode="&#x2025;" horiz-adv-x="500" 
d="M112 150q30 0 48.5 -20t18.5 -54q0 -38 -24.5 -64t-60.5 -26q-30 0 -49.5 19t-19.5 51q0 37 24.5 65.5t62.5 28.5zM362 150q30 0 48.5 -20t18.5 -54q0 -38 -24.5 -64t-60.5 -26q-30 0 -49.5 19t-19.5 51q0 37 24.5 65.5t62.5 28.5z" />
    <glyph glyph-name="ellipsis" unicode="&#x2026;" horiz-adv-x="1000" 
d="M460 -14q-30 0 -49.5 19t-19.5 51q0 37 24.5 65.5t62.5 28.5q30 0 48.5 -20t18.5 -54q0 -38 -24.5 -64t-60.5 -26zM793 -14q-30 0 -49.5 19t-19.5 51q0 37 24.5 65.5t62.5 28.5q30 0 48.5 -20t18.5 -54q0 -38 -24.5 -64t-60.5 -26zM127 -14q-30 0 -49.5 19t-19.5 51
q0 37 24.5 65.5t62.5 28.5q30 0 48.5 -20t18.5 -54q0 -38 -24.5 -64t-60.5 -26z" />
    <glyph glyph-name="perthousand" unicode="&#x2030;" horiz-adv-x="1201" 
d="M698 355q61 0 93.5 -35t32.5 -98q0 -84 -58 -160t-148 -76q-61 0 -93.5 34.5t-32.5 91.5q0 90 60 166.5t146 76.5zM581 78q0 -54 38 -54q35 0 62 52q20 39 39 98t19 94q0 49 -37 49q-33 0 -62 -49q-23 -39 -41 -95t-18 -95zM342 640q61 0 93.5 -35t32.5 -98
q0 -84 -58 -160t-148 -76q-61 0 -93.5 34.5t-32.5 91.5q0 90 60 166.5t146 76.5zM225 363q0 -54 38 -54q35 0 62 52q20 39 39 98t19 94q0 49 -37 49q-33 0 -62 -49q-23 -39 -41 -95t-18 -95zM1058 355q61 0 93.5 -35t32.5 -98q0 -84 -58 -160t-148 -76q-61 0 -93.5 34.5
t-32.5 91.5q0 90 60 166.5t146 76.5zM941 78q0 -54 38 -54q35 0 62 52q20 39 39 98t19 94q0 49 -37 49q-33 0 -62 -49q-23 -39 -41 -95t-18 -95zM745 630l-497 -670q-14 -3 -25.5 4t-14.5 20l497 670q12 2 25.5 -5t14.5 -19z" />
    <glyph glyph-name="guilsinglleft" unicode="&#x2039;" horiz-adv-x="292" 
d="M286 382l-110 -159q-9 -14 -5 -28l46 -163q-5 -18 -26 -16q-81 122 -119 174q-14 18 7 36l182 173q22 0 25 -17z" />
    <glyph glyph-name="guilsinglright" unicode="&#x203a;" horiz-adv-x="292" 
d="M46 33l110 159q9 14 5 28l-46 163q5 18 26 16q81 -122 119 -174q14 -18 -7 -36l-182 -173q-22 0 -25 17z" />
    <glyph glyph-name="fraction" unicode="&#x2044;" horiz-adv-x="100" 
d="M393 624l-537 -664q-15 -3 -27.5 7t-11.5 27l533 660q40 2 43 -30z" />
    <glyph glyph-name="zero.superior" unicode="&#x2070;" 
d="M362 708q65 0 97.5 -40.5t30.5 -108.5q-2 -51 -23.5 -104t-59.5 -90q-59 -57 -136 -57q-61 1 -94 42t-30 107q2 55 24.5 107t60.5 88q60 56 130 56zM243 387q0 -16 7.5 -29.5t20.5 -13.5q24 0 52 50q27 50 48 119.5t23 110.5q2 48 -25 48q-50 0 -102 -163
q-24 -77 -24 -122z" />
    <glyph glyph-name="four.superior" unicode="&#x2074;" 
d="M218 461h71q10 0 13.5 3t7.5 14l24 75q6 16 26 23q45 17 88 17q12 0 7 -10l-34 -105q-4 -11 -2.5 -14t11.5 -3h39q8 -3 5 -18t-13 -20h-44q-11 0 -14 -2.5t-7 -15.5l-4 -14q-10 -30 -7 -39t26 -11l13 -1q5 -4 3.5 -14t-8.5 -13q-88 2 -107 2q-44 0 -110 -2q-7 3 -6 13
t7 14l20 2q31 3 40 10.5t18 38.5l4 14q4 13 2.5 15.5t-11.5 2.5h-150q-13 7 -1 23l309 283q12 12 24 12h29q16 0 1 -17l-5 -5l-278 -248q-7 -9 13 -10z" />
    <glyph glyph-name="five.superior" unicode="&#x2075;" 
d="M444 624l-157 -18q-22 -3 -27 -10l-5 -8q-3 -4 1.5 -8t9.5 -5q25 -4 44 -8.5t43.5 -14.5t41 -23t28 -35t11.5 -49q0 -49 -32.5 -84.5t-84.5 -52.5t-104 -24t-104 -6q-8 6 -8.5 17.5t6.5 17.5q218 10 218 107q0 38 -35.5 55t-102.5 27q-22 3 -11 24l76 144q4 9 11 12t27 5
l190 21q12 0 12 -10q-14 -55 -48 -74z" />
    <glyph glyph-name="six.superior" unicode="&#x2076;" 
d="M296 308q-69 0 -108.5 37t-39.5 98q0 55 31 112.5t86 95.5q113 78 261 80q6 -3 7 -12.5t-5 -14.5q-96 -19 -168 -75q-48 -37 -75 -97t-27 -121q0 -26 10.5 -46.5t34.5 -20.5q29 0 44 34t15 74q0 57 -30 65q-11 3 -24 1q-9 9 -2 20q9 9 30.5 16.5t38.5 7.5q41 0 68 -26.5
t27 -71.5q0 -67 -50 -111.5t-124 -44.5z" />
    <glyph glyph-name="seven.superior" unicode="&#x2077;" 
d="M314 701h124q78 0 90 2q9 -1 8 -14l-20 -23.5l-29 -34.5l-31 -38l-242 -310q-13 -4 -24.5 4t-12.5 21l205 256q27 33 27 48q0 9 -18 9h-108q-26 0 -42.5 -8t-28.5 -30q-7 -5 -17.5 -1.5t-11.5 11.5q28 43 51 110q38 -2 80 -2z" />
    <glyph glyph-name="eight.superior" unicode="&#x2078;" 
d="M279 308q-64 0 -104.5 25.5t-40.5 73.5q0 81 107 109q-36 27 -36 70q0 55 43 88.5t105 33.5q56 0 90.5 -26.5t34.5 -70.5q0 -61 -86 -92q57 -34 57 -94q0 -53 -47.5 -85t-122.5 -32zM275 492q-22 -9 -38.5 -31t-16.5 -51t18.5 -48t48.5 -18q29 0 47 16t18 43q0 51 -77 89
zM361 544q13 7 24 27t11 45q0 24 -14 40t-37 16t-37 -15t-14 -37q0 -42 67 -76z" />
    <glyph glyph-name="nine.superior" unicode="&#x2079;" 
d="M108 278q-10 4 -10.5 15t9.5 16q110 22 180 81q42 36 67 97.5t25 120.5q0 64 -40 64q-27 0 -44 -35t-17 -80q0 -60 47 -68q7 -10 0 -17q-22 -17 -55 -17q-45 0 -72.5 27t-27.5 73q0 63 49 108t118 45q71 0 110.5 -37.5t39.5 -107.5q0 -62 -37.5 -123t-103.5 -98
q-50 -28 -116.5 -45t-121.5 -19z" />
    <glyph glyph-name="parenleft.superior" unicode="&#x207d;" horiz-adv-x="280" 
d="M177 442q0 77 34.5 147t98.5 119q54 41 136 60q7 -2 9.5 -9t-0.5 -12q-63 -38 -106 -95q-85 -113 -85 -252q0 -82 27 -138q0 -7 -6 -11t-13 -3q-47 32 -71 86t-24 108z" />
    <glyph glyph-name="parenright.superior" unicode="&#x207e;" horiz-adv-x="280" 
d="M341 574q0 -77 -34.5 -147t-98.5 -119q-54 -41 -136 -60q-7 2 -9.5 9t0.5 12q63 38 106 95q85 113 85 252q0 82 -27 138q0 7 6 11t13 3q47 -32 71 -86t24 -108z" />
    <glyph glyph-name="n.superior" unicode="&#x207f;" horiz-adv-x="430" 
d="M261 608q47 0 31 -44l-29 -73h2q2 2 5 6q26 32 44 50.5t53 39.5t68 21q25 0 37.5 -12.5t12.5 -29.5q0 -32 -13 -62q-1 -2 -54 -119q-6 -16 1 -16q15 0 68 48q6 1 11 -4.5t4 -13.5q-21 -33 -65.5 -62t-98.5 -29q-16 0 -27 9t-11 19q0 13 11 37q23 49 65 147q8 21 8 27
q0 10 -9 10q-15 0 -48 -39q-46 -54 -119 -197q-6 -13 -42 -13q-20 0 -35.5 6.5t-10.5 21.5q1 4 17 45l34 87t22 58q7 20 -4 20q-4 0 -10 -2t-13 -6.5t-12.5 -9t-14.5 -11t-14 -9.5q-15 2 -13 17q16 30 59.5 56.5t89.5 26.5z" />
    <glyph glyph-name="zero.inferior" unicode="&#x2080;" 
d="M201 222q65 0 97.5 -40.5t30.5 -108.5q-2 -51 -23.5 -104t-59.5 -90q-59 -57 -136 -57q-61 1 -94 42t-30 107q2 55 24.5 107t60.5 88q60 56 130 56zM82 -99q0 -16 7.5 -29.5t20.5 -13.5q24 0 52 50q27 50 48 119.5t23 110.5q2 48 -25 48q-50 0 -102 -163
q-24 -77 -24 -122z" />
    <glyph glyph-name="one.inferior" unicode="&#x2081;" 
d="M-8 -146l29 4q21 3 30.5 14.5t23.5 53.5l54 160q10 26 8 38.5t-22 15.5l-26 4q-5 4 -3.5 14t8.5 14q105 16 179 50q7 0 10.5 -2t2.5 -6q-2 -8 -14 -39.5t-18 -48.5l-66 -200q-13 -38 -10.5 -51.5t21.5 -16.5l26 -4q3 -4 1.5 -14t-7.5 -13q-84 2 -120 2q-46 0 -108 -2
q-7 3 -6 12.5t7 14.5z" />
    <glyph glyph-name="two.inferior" unicode="&#x2082;" 
d="M137 -171h-118q-54 0 -76 -2q-10 8 -3 20q49 33 118 88l58.5 47.5t40.5 38t31 43.5t8 42q0 25 -14.5 41.5t-41.5 16.5q-48 0 -87 -59q-9 -2 -16 3t-9 14q23 46 67.5 73t93.5 27q53 0 90 -29.5t37 -80.5q0 -58 -69 -107q-19 -13 -79 -49l-59 -35q-12 -7 -10.5 -13t16.5 -6
h78q25 0 36.5 5t29.5 26q16 7 24 -8q-24 -70 -54 -98q-54 2 -92 2z" />
    <glyph glyph-name="three.inferior" unicode="&#x2083;" 
d="M199 222q38 0 68 -20t30 -57q0 -54 -93 -77q-8 -2 -2 -7q3 -2 7 -2q32 -4 56.5 -29.5t24.5 -64.5q0 -81 -103 -136q-77 -39 -169 -39q-35 0 -60 13.5t-24 41.5q0 18 12 30t31 12q9 0 17.5 -5t13 -10t10.5 -14t7 -10q13 -18 35 -18q46 0 77 37.5t31 88.5q0 26 -16 44.5
t-42 18.5q-34 0 -63 -25q-14 4 -18.5 17t3.5 23q73 18 121 48q40 24 40 53q0 16 -12 25.5t-32 9.5q-43 0 -82 -42q-9 -2 -15 3.5t-5 14.5q61 76 152 76z" />
    <glyph glyph-name="four.inferior" unicode="&#x2084;" 
d="M57 -25h71q10 0 13.5 3t7.5 14l24 75q6 16 26 23q45 17 88 17q12 0 7 -10l-34 -105q-4 -11 -2.5 -14t11.5 -3h39q8 -3 5 -18t-13 -20h-44q-11 0 -14 -2.5t-7 -15.5l-4 -14q-10 -30 -7 -39t26 -11l13 -1q5 -4 3.5 -14t-8.5 -13q-88 2 -107 2q-44 0 -110 -2q-7 3 -6 13
t7 14l20 2q31 3 40 10.5t18 38.5l4 14q4 13 2.5 15.5t-11.5 2.5h-150q-13 7 -1 23l309 283q12 12 24 12h29q16 0 1 -17l-5 -5l-278 -248q-7 -9 13 -10z" />
    <glyph glyph-name="five.inferior" unicode="&#x2085;" 
d="M283 138l-157 -18q-22 -3 -27 -10l-5 -8q-3 -4 1.5 -8t9.5 -5q25 -4 44 -8.5t43.5 -14.5t41 -23t28 -35t11.5 -49q0 -49 -32.5 -84.5t-84.5 -52.5t-104 -24t-104 -6q-8 6 -8.5 17.5t6.5 17.5q218 10 218 107q0 38 -35.5 55t-102.5 27q-22 3 -11 24l76 144q4 9 11 12t27 5
l190 21q12 0 12 -10q-14 -55 -48 -74z" />
    <glyph glyph-name="six.inferior" unicode="&#x2086;" 
d="M135 -178q-69 0 -108.5 37t-39.5 98q0 55 31 112.5t86 95.5q113 78 261 80q6 -3 7 -12.5t-5 -14.5q-96 -19 -168 -75q-48 -37 -75 -97t-27 -121q0 -26 10.5 -46.5t34.5 -20.5q29 0 44 34t15 74q0 57 -30 65q-11 3 -24 1q-9 9 -2 20q9 9 30.5 16.5t38.5 7.5q41 0 68 -26.5
t27 -71.5q0 -67 -50 -111.5t-124 -44.5z" />
    <glyph glyph-name="seven.inferior" unicode="&#x2087;" 
d="M153 215h124q78 0 90 2q9 -1 8 -14l-20 -23.5l-29 -34.5l-31 -38l-242 -310q-13 -4 -24.5 4t-12.5 21l205 256q27 33 27 48q0 9 -18 9h-108q-26 0 -42.5 -8t-28.5 -30q-7 -5 -17.5 -1.5t-11.5 11.5q28 43 51 110q38 -2 80 -2z" />
    <glyph glyph-name="eight.inferior" unicode="&#x2088;" 
d="M118 -178q-64 0 -104.5 25.5t-40.5 73.5q0 81 107 109q-36 27 -36 70q0 55 43 88.5t105 33.5q56 0 90.5 -26.5t34.5 -70.5q0 -61 -86 -92q57 -34 57 -94q0 -53 -47.5 -85t-122.5 -32zM114 6q-22 -9 -38.5 -31t-16.5 -51t18.5 -48t48.5 -18q29 0 47 16t18 43q0 51 -77 89z
M200 58q13 7 24 27t11 45q0 24 -14 40t-37 16t-37 -15t-14 -37q0 -42 67 -76z" />
    <glyph glyph-name="nine.inferior" unicode="&#x2089;" 
d="M-53 -208q-10 4 -10.5 15t9.5 16q110 22 180 81q42 36 67 97.5t25 120.5q0 64 -40 64q-27 0 -44 -35t-17 -80q0 -60 47 -68q7 -10 0 -17q-22 -17 -55 -17q-45 0 -72.5 27t-27.5 73q0 63 49 108t118 45q71 0 110.5 -37.5t39.5 -107.5q0 -62 -37.5 -123t-103.5 -98
q-50 -28 -116.5 -45t-121.5 -19z" />
    <glyph glyph-name="parenleft.inferior" unicode="&#x208d;" horiz-adv-x="280" 
d="M22 -37q0 77 34.5 147t98.5 119q54 41 136 60q7 -2 9.5 -9t-0.5 -12q-63 -38 -106 -95q-85 -113 -85 -252q0 -83 27 -138q0 -7 -6 -11t-13 -3q-47 32 -71 86t-24 108z" />
    <glyph glyph-name="parenright.inferior" unicode="&#x208e;" horiz-adv-x="280" 
d="M186 95q0 -77 -34.5 -147t-98.5 -119q-54 -41 -136 -60q-7 2 -9.5 9t0.5 12q63 38 106 95q85 113 85 252q0 83 -27 138q0 7 6 11t13 3q47 -32 71 -86t24 -108z" />
    <glyph glyph-name="colonmonetary" unicode="&#x20a1;" horiz-adv-x="643" 
d="M220 -70l36 92q-73 26 -110.5 83t-37.5 134q1 84 38 159t92 125q101 91 255 103l29 75q17 10 42 0l-29 -73q31 0 57 -3l30 76q17 10 42 0l-32 -83q39 -7 85 -24q-7 -15 -13.5 -34.5l-11 -33t-11 -37l-9.5 -34.5q-4 -7 -17.5 -7t-16.5 7q7 77 -28 107l-202 -518
q46 6 85 37t84 90q7 5 19 3.5t15 -8.5q-23 -69 -65 -144q-6 -1 -58.5 -11t-96.5 -11l-28 -70q-25 -7 -43 0l28 72q-29 2 -53 9l-32 -81q-25 -7 -43 0zM284 92l190 487q-63 -18 -116 -72.5t-82.5 -127.5t-29.5 -147q0 -95 38 -140zM365 44l210 536q-21 6 -49 6h-7l-204 -523
q20 -14 50 -19z" />
    <glyph glyph-name="franc" unicode="&#x20a3;" horiz-adv-x="520" 
d="M60 210h62l88 280q20 66 18.5 81.5t-27.5 21.5l-25 3q-5 4 -0.5 17t12.5 16q67 -3 132 -3h184q102 0 122 3q-32 -103 -39 -128q-4 -7 -16.5 -8t-16.5 4q0 32 -11 54q-14 32 -77 32h-70q-21 0 -26.5 -5.5t-14.5 -33.5l-43 -137q-6 -19 -4 -23.5t19 -4.5h70q34 0 47 7.5
t32 35.5l8 12q7 7 19.5 6.5t14.5 -6.5q-14 -38 -28 -82q-12 -37 -22 -79q-6 -6 -19 -6.5t-16 5.5v22q0 21 -9 27.5t-43 6.5h-70q-17 0 -22 -4.5t-11 -23.5l-28 -90h161q5 -5 0 -21.5t-14 -23.5h-161l-9 -28q-21 -67 -18.5 -82.5t31.5 -19.5l39 -5q4 -4 0 -16t-10 -17
q-93 3 -145 3q-63 0 -132 -3q-4 4 0 16.5t10 16.5l24 5q29 6 40.5 21.5t32.5 80.5l9 28h-62q-5 5 1 23t13 22z" />
    <glyph glyph-name="lira" unicode="&#x20a4;" horiz-adv-x="520" 
d="M80 377h76q13 0 17 16q24 111 94 179t166 68q56 0 88 -29q10 -11 4 -33q-4 -18 -21 -35.5t-26 -17.5q-10 0 -21 10q-45 49 -75 49q-37 0 -65 -126q-9 -42 -12 -66q-1 -10 2.5 -12.5t16.5 -2.5h124q6 -7 1.5 -22t-16.5 -23h-118q-14 0 -18.5 -2.5t-5.5 -11.5l-6 -23
q-2 -10 1.5 -12.5t16.5 -2.5h121q5 -7 0.5 -22t-15.5 -23h-130q-8 0 -18 -15q-29 -48 -112 -110l1 -2q30 4 65 -5q23 -3 82 -32q52 -24 77 -24q42 0 32 68q-3 22 7.5 34.5t26.5 12.5q20 0 32.5 -17t3.5 -54q-9 -43 -59 -87t-107 -44q-50 0 -107 42q-68 49 -100 49
q-30 0 -44 -38q-4 -10 -30 -18.5t-44 -8.5q-19 0 -14 18q5 26 63 65q75 54 103 161q4 12 -12 12h-81q-4 7 0.5 23t14.5 22h80q7 0 10 3t5 13l4 17q3 12 -11 12h-82q-5 6 -0.5 22.5t15.5 22.5z" />
    <glyph glyph-name="peseta" unicode="&#x20a7;" horiz-adv-x="520" 
d="M294 461h141q6 51 -13 88.5t-60 37.5q-20 0 -27 -10t-18 -43zM89 461h79l1 5q13 42 18.5 61.5t5 33.5t-6.5 17.5t-21 5.5l-38 4q-5 4 -1 16.5t13 17.5q115 9 196 9q49 0 86 -7t69.5 -25t49.5 -52.5t17 -85.5h36q6 -5 0 -22.5t-14 -22.5h-31q-12 -52 -44.5 -89.5
t-72.5 -53.5t-70.5 -22.5t-55.5 -6.5q-20 0 -30 1q-4 4 -2 13t8 14q127 34 148 144h-150l-85 -272q-21 -70 -18 -86t38 -22l29 -5q6 -4 2 -17t-13 -17q-90 3 -141 3q-68 0 -134 -3q-6 4 -3 17t12 17l20 5q35 9 48 25t34 83l85 272h-79q-5 5 1 23t14 22z" />
    <glyph glyph-name="Euro" unicode="&#x20ac;" horiz-adv-x="520" 
d="M114 388h47q44 119 139.5 186.5t196.5 67.5q76 0 132 -28q-26 -65 -45 -147q-4 -8 -17.5 -8t-16.5 8q9 58 -8.5 94.5t-55.5 36.5q-54 0 -108.5 -62t-78.5 -148h224q5 -7 1 -20.5t-16 -24.5h-221q-6 -24 -9 -53h192q10 -21 -14 -45h-182q-5 -45 -5 -71q0 -76 22.5 -110
t54.5 -34q38 0 70 28.5t71 96.5q8 6 19.5 2t13.5 -12q-30 -91 -56 -136q-69 -23 -137 -23q-94 0 -143.5 69t-49.5 185v5h-55q-10 29 14 45h45q2 20 10 53h-49q-10 29 15 45z" />
    <glyph glyph-name="uni2113" unicode="&#x2113;" horiz-adv-x="450" 
d="M136 275l51 170q81 267 232 267q47 0 78 -28.5t31 -76.5q0 -32 -8.5 -62.5t-28 -58t-36.5 -48.5t-48.5 -46l-49 -38.5t-53 -37t-46.5 -31.5l-35 -112q-18 -65 -10 -93.5t33 -28.5q50 0 116 84q5 4 15.5 -6t8.5 -17q-75 -126 -193 -126q-64 0 -87.5 52t1.5 133l12 41
q-56 -35 -76 -43q-9 0 -15.5 13t0.5 26q22 12 61 37zM331 535l-52 -176q40 25 78 57.5t73 86.5t35 105q0 28 -12 45.5t-34 17.5q-28 0 -47 -32t-41 -104z" />
    <glyph glyph-name="trademark" unicode="&#x2122;" horiz-adv-x="710" 
d="M274 524v97q0 9 -1.5 10.5t-9.5 1.5h-8q-32 0 -45 -35q-2 -5 -10.5 -4t-9.5 7q8 51 14 71q2 4 8 4t7 -4q7 -8 11.5 -10t19.5 -2h127q18 0 30 12q2 4 7.5 4t7.5 -4q-7 -31 -5 -74q-1 -7 -9.5 -7t-9.5 5q-4 19 -12.5 28t-26.5 9h-13q-6 0 -7 -1.5t-1 -10.5v-100
q0 -25 3 -33.5t15 -10.5l16 -3q3 -2 2.5 -10.5t-3.5 -9.5q-22 1 -72 1q-40 0 -58 -1q-3 1 -3 8.5t2 11.5l16 3q11 2 14.5 12.5t3.5 34.5zM679 502l-2 98q0 10 -2 11q-1 0 -19 -43l-19 -44q-23 -54 -28 -70q-16 -5 -25 1q-2 7 -23 60l-23 55q-20 45 -23 47q-1 -3 -4 -52v-61
q1 -17 4.5 -22.5t15.5 -6.5l9 -1q2 -2 2 -9t-2 -11q-10 1 -47 1q-36 0 -47 -1q-2 1 -2.5 9t1.5 11l6 1q24 4 25 24q9 83 9 112q0 25 -24 28l-8 2q-6 2 -5.5 10.5t6.5 9.5q9 0 22 -0.5t18 -0.5q30 0 66 1q0 -12 23 -56l19 -37q8 -15 12 -15q5 0 12 12l17 37q15 32 23 59
q31 -1 48 -1q38 0 50 1q4 -1 4.5 -10t-3.5 -10l-10 -2q-12 -2 -15.5 -7t-3.5 -17q0 -66 3 -108q1 -17 3.5 -22t10.5 -7l15 -4q4 -2 4 -10t-4 -10q-14 1 -61 1q-40 0 -55 -1q-2 2 -2.5 10t2.5 10l15 4q8 2 10 6.5t2 17.5z" />
    <glyph glyph-name="Omega" unicode="&#x2126;" horiz-adv-x="840" 
d="M189 98h62q-59 78 -76 113q-29 60 -29 128q0 135 109.5 236t279.5 101q140 0 215 -70t75 -186q0 -29 -7 -56t-15 -47.5t-28.5 -44.5l-32 -37.5t-42 -37l-43 -32.5l-49.5 -34.5l-47 -32.5h52q63 0 94 13.5t70 62.5q10 7 24.5 -1t9.5 -19q-25 -38 -91 -161q-74 7 -114 7
h-185l7 30q245 201 245 408q0 91 -35.5 142.5t-102.5 51.5q-101 0 -173 -103.5t-72 -258.5q0 -41 6 -81.5t11.5 -60.5t18 -57t13.5 -41l-8 -30h-175q-6 0 -97 -7q-1 91 -13 181q5 8 20.5 8t16.5 -8q16 -41 39 -58.5t67 -17.5z" />
    <glyph glyph-name="estimated" unicode="&#x212e;" horiz-adv-x="810" 
d="M833 305h-591q-5 0 -5 -5v-178q0 -11 8 -21q91 -96 224 -96q69 0 130 28.5t105 79.5h53q-51 -59 -126.5 -93.5t-162.5 -34.5q-151 0 -258 96t-107 232t107 232.5t258 96.5t258 -96.5t107 -232.5v-8zM699 328v180q0 12 -9 21q-91 93 -221 93q-131 0 -223 -95q-9 -9 -9 -23
v-176q0 -5 5 -5h453q4 0 4 5z" />
    <glyph glyph-name="onethird" unicode="&#x2153;" horiz-adv-x="840" 
d="M86 272l29 4q21 3 30.5 14.5t23.5 53.5l54 160q10 26 8 38.5t-22 15.5l-26 4q-5 4 -3.5 14t8.5 14q105 16 179 50q7 0 10.5 -2t2.5 -6q-2 -8 -14 -39.5t-18 -48.5l-66 -200q-13 -38 -10.5 -51.5t21.5 -16.5l26 -4q3 -4 1.5 -14t-7.5 -13q-84 2 -120 2q-46 0 -108 -2
q-7 3 -6 12.5t7 14.5zM751 624l-537 -664q-15 -3 -27.5 7t-11.5 27l533 660q40 2 43 -30zM713 393q38 0 68 -20t30 -57q0 -54 -93 -77q-8 -2 -2 -7q3 -2 7 -2q32 -4 56.5 -29.5t24.5 -64.5q0 -81 -103 -136q-77 -39 -169 -39q-35 0 -60 13.5t-24 41.5q0 18 12 30t31 12
q9 0 17.5 -5t13 -10t10.5 -14t7 -10q13 -18 35 -18q46 0 77 37.5t31 88.5q0 26 -16 44.5t-42 18.5q-34 0 -63 -25q-14 4 -18.5 17t3.5 23q73 18 121 48q40 24 40 53q0 16 -12 25.5t-32 9.5q-43 0 -82 -42q-9 -2 -15 3.5t-5 14.5q61 76 152 76z" />
    <glyph glyph-name="twothirds" unicode="&#x2154;" horiz-adv-x="840" 
d="M263 247h-118q-54 0 -76 -2q-10 8 -3 20q49 33 118 88l58.5 47.5t40.5 38t31 43.5t8 42q0 25 -14.5 41.5t-41.5 16.5q-48 0 -87 -59q-9 -2 -16 3t-9 14q23 46 67.5 73t93.5 27q53 0 90 -29.5t37 -80.5q0 -58 -69 -107q-19 -13 -79 -49l-59 -35q-12 -7 -10.5 -13t16.5 -6
h78q25 0 36.5 5t29.5 26q16 7 24 -8q-24 -70 -54 -98q-54 2 -92 2zM779 624l-537 -664q-15 -3 -27.5 7t-11.5 27l533 660q40 2 43 -30zM723 393q38 0 68 -20t30 -57q0 -54 -93 -77q-8 -2 -2 -7q3 -2 7 -2q32 -4 56.5 -29.5t24.5 -64.5q0 -81 -103 -136q-77 -39 -169 -39
q-35 0 -60 13.5t-24 41.5q0 18 12 30t31 12q9 0 17.5 -5t13 -10t10.5 -14t7 -10q13 -18 35 -18q46 0 77 37.5t31 88.5q0 26 -16 44.5t-42 18.5q-34 0 -63 -25q-14 4 -18.5 17t3.5 23q73 18 121 48q40 24 40 53q0 16 -12 25.5t-32 9.5q-43 0 -82 -42q-9 -2 -15 3.5t-5 14.5
q61 76 152 76z" />
    <glyph glyph-name="oneeighth" unicode="&#x215b;" horiz-adv-x="840" 
d="M621 -7q-64 0 -104.5 25.5t-40.5 73.5q0 81 107 109q-36 27 -36 70q0 55 43 88.5t105 33.5q56 0 90.5 -26.5t34.5 -70.5q0 -61 -86 -92q57 -34 57 -94q0 -53 -47.5 -85t-122.5 -32zM617 177q-22 -9 -38.5 -31t-16.5 -51t18.5 -48t48.5 -18q29 0 47 16t18 43q0 51 -77 89z
M703 229q13 7 24 27t11 45q0 24 -14 40t-37 16t-37 -15t-14 -37q0 -42 67 -76zM88 272l29 4q21 3 30.5 14.5t23.5 53.5l54 160q10 26 8 38.5t-22 15.5l-26 4q-5 4 -3.5 14t8.5 14q105 16 179 50q7 0 10.5 -2t2.5 -6q-2 -8 -14 -39.5t-18 -48.5l-66 -200q-13 -38 -10.5 -51.5
t21.5 -16.5l26 -4q3 -4 1.5 -14t-7.5 -13q-84 2 -120 2q-46 0 -108 -2q-7 3 -6 12.5t7 14.5zM741 624l-537 -664q-15 -3 -27.5 7t-11.5 27l533 660q40 2 43 -30z" />
    <glyph glyph-name="threeeighths" unicode="&#x215c;" horiz-adv-x="840" 
d="M647 -7q-64 0 -104.5 25.5t-40.5 73.5q0 81 107 109q-36 27 -36 70q0 55 43 88.5t105 33.5q56 0 90.5 -26.5t34.5 -70.5q0 -61 -86 -92q57 -34 57 -94q0 -53 -47.5 -85t-122.5 -32zM643 177q-22 -9 -38.5 -31t-16.5 -51t18.5 -48t48.5 -18q29 0 47 16t18 43q0 51 -77 89z
M729 229q13 7 24 27t11 45q0 24 -14 40t-37 16t-37 -15t-14 -37q0 -42 67 -76zM325 640q38 0 68 -20t30 -57q0 -54 -93 -77q-8 -2 -2 -7q3 -2 7 -2q32 -4 56.5 -29.5t24.5 -64.5q0 -81 -103 -136q-77 -39 -169 -39q-35 0 -60 13.5t-24 41.5q0 18 12 30t31 12q9 0 17.5 -5
t13 -10t10.5 -14t7 -10q13 -18 35 -18q46 0 77 37.5t31 88.5q0 26 -16 44.5t-42 18.5q-34 0 -63 -25q-14 4 -18.5 17t3.5 23q73 18 121 48q40 24 40 53q0 16 -12 25.5t-32 9.5q-43 0 -82 -42q-9 -2 -15 3.5t-5 14.5q61 76 152 76zM771 624l-537 -664q-15 -3 -27.5 7
t-11.5 27l533 660q40 2 43 -30z" />
    <glyph glyph-name="fiveeighths" unicode="&#x215d;" horiz-adv-x="840" 
d="M637 -7q-64 0 -104.5 25.5t-40.5 73.5q0 81 107 109q-36 27 -36 70q0 55 43 88.5t105 33.5q56 0 90.5 -26.5t34.5 -70.5q0 -61 -86 -92q57 -34 57 -94q0 -53 -47.5 -85t-122.5 -32zM633 177q-22 -9 -38.5 -31t-16.5 -51t18.5 -48t48.5 -18q29 0 47 16t18 43q0 51 -77 89z
M719 229q13 7 24 27t11 45q0 24 -14 40t-37 16t-37 -15t-14 -37q0 -42 67 -76zM409 556l-157 -18q-22 -3 -27 -10l-5 -8q-3 -4 1.5 -8t9.5 -5q25 -4 44 -8.5t43.5 -14.5t41 -23t28 -35t11.5 -49q0 -49 -32.5 -84.5t-84.5 -52.5t-104 -24t-104 -6q-8 6 -8.5 17.5t6.5 17.5
q218 10 218 107q0 38 -35.5 55t-102.5 27q-22 3 -11 24l76 144q4 9 11 12t27 5l190 21q12 0 12 -10q-14 -55 -48 -74zM761 624l-537 -664q-15 -3 -27.5 7t-11.5 27l533 660q40 2 43 -30z" />
    <glyph glyph-name="seveneighths" unicode="&#x215e;" horiz-adv-x="840" 
d="M630 -7q-64 0 -104.5 25.5t-40.5 73.5q0 81 107 109q-36 27 -36 70q0 55 43 88.5t105 33.5q56 0 90.5 -26.5t34.5 -70.5q0 -61 -86 -92q57 -34 57 -94q0 -53 -47.5 -85t-122.5 -32zM626 177q-22 -9 -38.5 -31t-16.5 -51t18.5 -48t48.5 -18q29 0 47 16t18 43q0 51 -77 89z
M712 229q13 7 24 27t11 45q0 24 -14 40t-37 16t-37 -15t-14 -37q0 -42 67 -76zM284 633h124q78 0 90 2q9 -1 8 -14l-20 -23.5l-29 -34.5l-31 -38l-242 -310q-13 -4 -24.5 4t-12.5 21l205 256q27 33 27 48q0 9 -18 9h-108q-26 0 -42.5 -8t-28.5 -30q-7 -5 -17.5 -1.5
t-11.5 11.5q28 43 51 110q38 -2 80 -2zM736 624l-537 -664q-15 -3 -27.5 7t-11.5 27l533 660q40 2 43 -30z" />
    <glyph glyph-name="partialdiff" unicode="&#x2202;" horiz-adv-x="540" 
d="M308 417q76 0 111 -64q13 28 27 95q21 80 3 139t-79 59q-42 0 -143 -52q-6 -3 -11.5 7.5t-7.5 27t0 29.5q6 26 28 36q40 20 94 20q86 0 141.5 -54t72.5 -135t1 -173q-23 -135 -88 -227q-41 -58 -105 -98.5t-134 -40.5q-92 0 -135.5 58t-26.5 145q18 93 89 160.5t163 67.5
zM321 358q-41 0 -79.5 -61t-53.5 -138q-7 -38 -6 -66t11.5 -44.5t29.5 -16.5q26 0 54 27t51 71t40 85t30 82q-8 21 -28.5 41t-48.5 20z" />
    <glyph glyph-name="Delta" unicode="&#x2206;" horiz-adv-x="668" 
d="M570 0h-567q-15 0 9 46q4 8 7 12l178 239l190 261q39 54 42 70q37 7 84 48q15 0 15 -9q4 -44 13 -134l49 -467q2 -16 -5.5 -41t-14.5 -25zM138 63h282q23 0 28.5 6t4.5 22l-24 340q-4 57 -9 84h-3q-10 -13 -54 -76l-243 -350q-18 -26 18 -26z" />
    <glyph glyph-name="product" unicode="&#x220f;" horiz-adv-x="776" 
d="M636 654h-178q-34 0 -42 -4.5t-15 -27.5l-183 -583q-17 -54 -19.5 -76.5t4.5 -29t31 -9.5l20 -3q8 -6 4.5 -18.5t-10.5 -15.5q-70 3 -156 3q-68 0 -122 -3q-5 3 -1.5 16t10.5 18l16 3q38 7 52 23.5t37 91.5l162 517q10 32 14 50t5.5 30t-5.5 17.5t-14 7.5t-24 5l-20 3
q-3 5 1.5 18t11.5 16q69 -3 130 -3h433q69 0 114 3q5 -3 4 -16t-7 -18l-15 -3q-37 -7 -50.5 -23t-36.5 -87l-164 -522q-22 -76 -19 -91t37 -19l25 -3q2 -9 -1.5 -20t-10.5 -14q-70 3 -130 3q-94 0 -148 -3q-5 3 -1.5 16t10.5 18l16 3q37 7 51 24t36 86l185 588q7 22 1.5 27
t-38.5 5z" />
    <glyph glyph-name="summation" unicode="&#x2211;" horiz-adv-x="680" 
d="M738 700l-38 -153q-4 -10 -24 -7q-11 2 -10 7q-2 29 -5.5 44t-16 32t-40 24t-71.5 7h-191l127 -331q9 -22 -14 -42l-305 -281h292q54 0 84.5 14.5t67.5 64.5q6 8 21 3t13 -19q-52 -91 -88 -180q-6 1 -29 4t-36 3h-436q-27 0 -61 -2q-4 0 -5 6.5t2 15.5t9 14l350 321
q17 15 9 37l-145 386q-3 7 4 20.5t13 13.5q22 -2 92 -2h431z" />
    <glyph glyph-name="minus" unicode="&#x2212;" horiz-adv-x="520" 
d="M471 249v-72h-401v72h401z" />
    <glyph glyph-name="uni2215" unicode="&#x2215;" horiz-adv-x="100" 
d="M393 624l-537 -664q-15 -3 -27.5 7t-11.5 27l533 660q40 2 43 -30z" />
    <glyph glyph-name="uni2219" unicode="&#x2219;" horiz-adv-x="260" 
d="M162 292q30 0 48.5 -20t18.5 -54q0 -38 -24.5 -64t-60.5 -26q-30 0 -49.5 19t-19.5 51q0 37 24.5 65.5t62.5 28.5z" />
    <glyph glyph-name="radical" unicode="&#x221a;" horiz-adv-x="600" 
d="M144 414l-15 41l191 87l81 -357l298 708l53 -19l-401 -935l-122 510z" />
    <glyph glyph-name="infinity" unicode="&#x221e;" horiz-adv-x="850" 
d="M256 430q23 0 45 -5.5t36.5 -11t35.5 -20.5t29 -22t30 -28t28 -26q35 35 59 55t63.5 39t76.5 19q60 0 106 -47.5t46 -115.5q0 -74 -44 -120t-116 -46q-29 0 -56.5 8.5t-49.5 23.5t-37 27t-30.5 28.5t-18.5 18.5l-18 -19q-18 -19 -31 -29.5t-36 -26t-51 -23.5t-58 -8
q-74 0 -117 49t-43 120q0 69 45 114.5t106 45.5zM269 357q-41 0 -64.5 -28.5t-23.5 -58.5q0 -47 26.5 -74.5t63.5 -27.5q61 0 145 88q-2 2 -11.5 12.5l-12.5 14t-12.5 13t-14.5 13.5t-14 12t-15.5 12l-15.5 9.5t-16.5 8t-16.5 4.5t-18 2zM647 356q-19 0 -41.5 -11
t-34.5 -20.5t-37 -32t-28 -25.5q2 -3 13 -14.5t14.5 -15.5t14 -14.5t16 -14.5t15.5 -12t17 -11.5l16.5 -8t19 -6t19.5 -1.5q33 0 58.5 26t25.5 67q0 37 -24 65.5t-64 28.5z" />
    <glyph glyph-name="integral" unicode="&#x222b;" horiz-adv-x="390" 
d="M195 390l19 64q41 136 110 227q34 45 73 70.5t73 25.5q29 0 45.5 -14.5t11.5 -41.5q-4 -21 -21.5 -33.5t-36.5 -12.5q-25 0 -44 22q-18 25 -31 -9q-4 -11 -13 -59.5t-29.5 -136t-49.5 -182.5l-35 -115q-51 -166 -125 -254.5t-152 -88.5q-28 0 -45 14.5t-13 37.5
q6 36 38 52q35 17 60 -19q29 -40 54 33q3 12 7 26q67 270 104 394z" />
    <glyph glyph-name="approxequal" unicode="&#x2248;" horiz-adv-x="520" 
d="M440 378l44 -52q-83 -101 -183 -67l-84 29q-13 5 -25 7t-21.5 1t-18 -2t-15.5 -5.5l-12 -7.5t-11 -8.5t-8 -8t-6 -8.5l-5 -6l-49 46q76 111 184 73l89 -31q62 -22 121 40zM438 191l46 -55q-41 -48 -92.5 -63.5t-90.5 2.5l-84 30q-13 5 -25 7t-21.5 1.5t-18 -1.5
t-15.5 -5.5l-12 -7.5t-11 -8.5t-8 -8t-6 -8.5l-5 -6l-49 46q76 110 184 72l89 -32q27 -10 60 0t59 37z" />
    <glyph glyph-name="notequal" unicode="&#x2260;" horiz-adv-x="520" 
d="M70 322h230l61 92l68 -24l-45 -68h87v-72h-134l-48 -72h182v-72h-230l-70 -106l-68 24l54 82h-87v72h135l48 72h-183v72z" />
    <glyph glyph-name="lessequal" unicode="&#x2264;" horiz-adv-x="520" 
d="M54 295v71l401 174v-74l-314 -135l314 -135v-74zM54 0v72h401v-72h-401z" />
    <glyph glyph-name="greaterequal" unicode="&#x2265;" horiz-adv-x="520" 
d="M469 366v-71l-401 -173v74l314 135l-314 135v74zM469 72v-72h-401v72h401z" />
    <glyph glyph-name="lozenge" unicode="&#x25ca;" horiz-adv-x="600" 
d="M289 -40h-100l-74 382l311 373h100l77 -373zM513 347l-53 294l-255 -305l50 -302z" />
    <glyph glyph-name="Euro.fitted" unicode="&#xe000;" horiz-adv-x="670" 
d="M140 388h47q44 119 151 186.5t228 67.5q77 0 166 -35q-11 -26 -45 -147q-4 -8 -17.5 -8t-16.5 8q13 138 -95 138q-73 0 -137 -58.5t-96 -151.5h310q5 -7 1 -20.5t-16 -24.5h-308q-4 -17 -8 -53h278q10 -21 -14 -45h-267q-3 -116 31 -165.5t86 -49.5q47 0 88.5 32.5
t90.5 101.5q8 6 19.5 2t13.5 -12q-28 -84 -63 -145q-118 -24 -162 -23q-121 3 -183 72.5t-62 181.5v5h-55q-10 29 14 45h45q2 20 10 53h-49q-10 29 15 45z" />
    <glyph glyph-name="Euro.oldstyle" unicode="&#xe001;" horiz-adv-x="632" 
d="M114 329h49q29 75 95 127q98 76 244 76q23 0 44.5 -2t41 -6.5t30.5 -7.5t28.5 -9t18.5 -6q-17 -35 -42 -120q-4 -7 -18.5 -7t-15.5 7q3 54 -19.5 80.5t-79.5 26.5q-62 0 -114.5 -43t-81.5 -116h276q3 -12 -1.5 -26.5t-15.5 -18.5h-273q-1 -2 -9 -44h251q6 -30 -17 -45
h-237q-1 -85 32 -124t79 -39q41 0 76.5 26t79.5 77q7 6 20 1.5t14 -16.5q-21 -57 -56 -115l-39.5 -6.5t-64.5 -9t-54 -3.5q-107 0 -162 59t-56 150h-59q-3 12 1.5 26.5t15.5 18.5h44q4 30 8 44h-48q-3 12 1.5 26.5t13.5 18.5z" />
    <glyph glyph-name="bullet.001" unicode="&#xe007;" horiz-adv-x="850" 
d="M130 175q0 77 49 140t139 77q-1 62 -22.5 104t-56.5 42q-23 0 -29 -31q-1 -4 -5 -8q-10 -5 -19 -5q-19 0 -31 11.5t-12 30.5q0 20 16.5 35.5t43.5 15.5q66 0 110 -60t47 -131h2q71 0 123 -36l2 2q-62 52 -62 113q0 32 27 54t67 22q6 0 29.5 -1.5t30.5 -1.5q26 0 49.5 16
t23.5 48q0 25 -26 46q-6 5 -3.5 8.5t8.5 2.5q38 -6 65.5 -36.5t27.5 -74.5q0 -60 -58 -98q-18 -12 -90 -47q-37 -18 -37 -51q0 -8 4 -16q39 46 98 46q47 0 101 -48q38 -35 65 -35q38 0 59 37q3 5 7 5.5t5 -4.5q2 -6 2 -19q0 -47 -38.5 -90.5t-94.5 -43.5q-34 0 -64.5 14
t-72.5 56l-31 28.5t-21 15t-24 7.5q-10 -7 -10 -23q0 -5 1 -10.5t4 -12.5l5 -11.5t8 -13.5t8.5 -13.5t10.5 -15.5t11 -16q30 -44 40 -63.5t10 -43.5q0 -34 -27.5 -63t-60.5 -29q-7 0 -17 2q-14 3 -2 12q28 18 28 41q0 19 -12 31t-57 39q-75 46 -75 108q0 30 23.5 58.5
t58.5 45.5q-46 24 -109 24q-10 0 -13 -1q-6 -82 -54 -133t-120 -64q2 -32 14.5 -54.5t25.5 -29.5q9 -5 34 -5q2 -1 2.5 -5t-0.5 -6q-36 -34 -68 -34q-13 0 -25 15q-38 48 -38 131zM184 186q62 18 97 66q29 42 36 102q-60 -12 -96 -56q-36 -45 -37 -112z" />
    <glyph glyph-name="bullet.002" unicode="&#xe008;" horiz-adv-x="1141" 
d="M322 57q-106 -3 -174 74t-68 178q0 117 70.5 184t144.5 67q53 0 100 -30t47 -85q0 -34 -22.5 -55t-48.5 -21q-33 -1 -55.5 17.5t-22.5 44.5q0 13 7 22.5t27 23.5q18 17 18 30q0 25 -65 23q-52 -1 -93.5 -44.5t-41.5 -90.5q0 -19 3.5 -35.5t12 -29t16.5 -22.5t21.5 -18.5
l22.5 -14t25 -10.5l22.5 -7t22 -5.5t17.5 -4.5q48 -13 48 -55q0 -28 -8 -45q-9 -21 -9 -35t28 -14q83 0 199 165q-15 19 -17 45q-1 28 19.5 49.5t48.5 22.5q15 0 28 -5q69 98 125.5 140t136.5 44q98 2 166 -69t68 -184q0 -116 -62.5 -182t-144.5 -68q-54 -1 -96.5 25
t-42.5 73q0 31 21 55t50 24q37 0 53.5 -20t16.5 -43q0 -21 -14 -33q-13 -10 -13 -24q0 -9 11.5 -17.5t30.5 -7.5q43 1 87 38t44 102q0 62 -26.5 89t-100.5 48q-77 21 -77 61q0 12 10 47q6 22 6 30q0 16 -27 16q-49 -1 -93 -43t-100 -122q15 -17 17 -43q1 -30 -19.5 -51
t-50.5 -23q-14 0 -25 4q-65 -89 -128 -135.5t-146 -49.5z" />
    <glyph glyph-name="bullet.003" unicode="&#xe009;" horiz-adv-x="583" 
d="M338 693q48 1 73 -27t25 -62q0 -45 -32 -84q-17 -17 -17 -30q0 -4 4.5 -8.5t10.5 -4.5q2 0 14 6.5t31 13t39 6.5q36 1 66.5 -23.5t30.5 -73.5q0 -36 -22.5 -69t-74.5 -34q-62 -2 -97 53q-12 17 -26 17q-4 0 -13 -12.5t-16 -33.5t-7 -39q2 -60 110 -124q91 -53 92 -126
q1 -48 -37 -89t-98 -41q-62 0 -156 76q-44 37 -66 35q-26 0 -49 -56q-16 0 -16 14q8 46 31.5 67t48.5 22q12 0 24 -2.5t20.5 -5.5t21.5 -11.5l19.5 -13t23 -17.5t23.5 -18q63 -46 104 -46q24 0 40.5 18t16.5 46q0 8 -1.5 16t-6.5 16t-8 13.5t-11.5 13t-11.5 11t-14.5 11
t-14 9.5t-15.5 10t-14 9q-104 66 -104 128q0 40 26 84q12 19 12 28q0 7 -10 7q-12 0 -25 -16q-10 -13 -41.5 -32.5t-59.5 -20.5q-50 -1 -75.5 30.5t-25.5 70.5q0 49 30 73t70 25q16 0 32.5 -4t28 -8t13.5 -4q6 0 10 5.5t4 9.5q0 7 -16.5 35.5t-16.5 57.5q0 44 28 71t75 28z
M324 493q-20 0 -33 -15t-13 -34t14 -32.5t32 -13.5q21 0 34.5 13.5t13.5 34.5q0 18 -14 32.5t-34 14.5z" />
    <glyph glyph-name="uniF634" unicode="&#xf634;" horiz-adv-x="250" 
d="M102 -32q25 0 46.5 -22t21.5 -61q0 -48 -41.5 -85t-109.5 -54q-9 2 -11.5 11t3.5 15q33 10 56.5 32t23.5 45t-26 38q-15 7 -15 30q0 20 15.5 35.5t36.5 15.5z" />
    <glyph glyph-name="space_uni0326" unicode="&#xf6c3;" horiz-adv-x="380" 
d="M224 -42q28 0 51.5 -24.5t23.5 -67.5q0 -53 -46 -95.5t-121 -61.5q-10 6 -12 16t4 17q36 11 62 35.5t26 49.5q0 27 -29 42q-16 9 -16 33q0 22 17 39t40 17z" />
    <glyph glyph-name="acute.cap" unicode="&#xf6c9;" horiz-adv-x="380" 
d="M302 730l157 118q21 16 32 16q17 0 33 -30q14 -26 10 -42q-5 -16 -31 -24l-190 -62q-16 6 -11 24z" />
    <glyph glyph-name="caron.cap" unicode="&#xf6ca;" horiz-adv-x="380" 
d="M256 877l119 -64q17 -9 38 0l142 64q8 0 13 -10.5t1 -20.5l-165 -127q-28 -22 -48 0l-118 129q0 10 6 19t12 10z" />
    <glyph glyph-name="dieresis.cap" unicode="&#xf6cb;" horiz-adv-x="380" 
d="M273 833q27 0 42.5 -17.5t11.5 -44.5q-4 -26 -22.5 -42.5t-45.5 -16.5q-25 0 -40 17.5t-11 43.5t22 43t43 17zM472 833q27 0 42.5 -17.5t11.5 -44.5q-4 -26 -22.5 -42.5t-45.5 -16.5q-25 0 -40 17.5t-11 43.5t22 43t43 17z" />
    <glyph glyph-name="grave.cap" unicode="&#xf6ce;" horiz-adv-x="380" 
d="M263 850l157 -115q5 -15 -11 -29l-190 62q-26 8 -31 24q-4 16 10 42q16 30 33 30q13 0 32 -14z" />
    <glyph glyph-name="hungarumlaut.cap" unicode="&#xf6cf;" horiz-adv-x="380" 
d="M429 726l73 134q14 20 27 20q16 0 38 -19q24 -23 24 -42q0 -12 -32 -36l-106 -77q-6 0 -14.5 6.5t-9.5 13.5zM257 726l73 134q14 20 27 20q17 0 41 -21q22 -19 22 -40q0 -12 -33 -36l-106 -77q-6 0 -14.5 6.5t-9.5 13.5z" />
    <glyph glyph-name="macron.cap" unicode="&#xf6d0;" horiz-adv-x="380" 
d="M491 725h-253q-9 12 -7 37t15 37h253q9 -12 6.5 -37t-14.5 -37z" />
    <glyph glyph-name="R_p" unicode="&#xf6dd;" horiz-adv-x="1013" 
d="M506 484q0 41 -20.5 69.5t-65.5 28.5q-25 0 -30.5 -4t-12.5 -25l-64 -203q-7 -23 -1.5 -27t42.5 -4q62 0 107 50.5t45 114.5zM382 91l-25 144q-4 24 -14 32.5t-33 8.5q-13 0 -17 -3.5t-9 -18.5l-38 -118q-20 -57 -16 -76t40 -25l26 -4q5 -5 3 -17.5t-9 -16.5
q-76 3 -144 3q-60 0 -131 -3q-7 4 -6 17.5t11 16.5l27 4q31 5 43 20.5t33 80.5l112 357q16 49 14.5 65.5t-25.5 21.5l-27 6q-7 7 -5 18t10 16q108 8 187 8q120 0 178 -31q74 -39 74 -126q0 -68 -46 -109t-109 -55q-11 -2 -13.5 -5.5t-0.5 -15.5q32 -206 56 -232
q15 -15 59 -20l93 273q-37 -9 -94 -40q-9 1 -12.5 10.5t0.5 16.5q12 13 54 35t67 29l27 70q22 13 46 13t42.5 -5.5t21.5 -12.5l-18 -53q14 3 24 3q83 0 120.5 -38t37.5 -99q0 -39 -20 -85t-50 -77q-85 -87 -194 -87q-12 0 -37 9q-9 -1 -13 -16l-43 -129q-10 -24 -6 -39.5
t29 -18.5l39 -4q9 -3 7 -16t-12 -15h-66q-68 0 -195 -11q-9 4 -10 16t6 17l30 5q28 4 40 19.5t29 64.5l45 130q-29 -3 -79 -3q-53 0 -76 14q-26 16 -38 81zM800 322l-83 -241q-9 -25 4 -39q12 -14 28 -14q27 0 57 36q31 37 50 87.5t19 96.5q0 39 -17 57.5t-45 18.5
q-7 0 -13 -2z" />
    <glyph glyph-name="cent.inferior" unicode="&#xf6df;" 
d="M157 -80l90 247q-60 -1 -99.5 -51t-39.5 -109q0 -65 49 -87zM320 260l-22 -59q37 -5 61 -16q5 -7 5 -23q-1 -16 -8.5 -38t-15.5 -22q-4 0 -10 8q-23 38 -47 49l-90 -247q1 -1 4 -1q26 0 47 7t30.5 14t25.5 21q17 -6 14 -21q-47 -67 -140 -72l-24 -66q-8 -7 -21 -7t-18 7
l24 66q-65 6 -99 43.5t-34 97.5q0 87 71 145.5t172 58.5q11 0 16 -1l20 56q5 7 18.5 7t20.5 -7z" />
    <glyph glyph-name="cent.superior" unicode="&#xf6e0;" 
d="M312 399l90 247q-60 -1 -99.5 -51t-39.5 -109q0 -65 49 -87zM475 739l-22 -59q37 -5 61 -16q5 -8 5 -23q-1 -16 -8.5 -38t-15.5 -22q-4 0 -10 8q-23 38 -47 49l-90 -247q1 -1 4 -1q26 0 47 7t30.5 14t25.5 21q17 -6 14 -21q-47 -67 -140 -72l-24 -66q-7 -7 -20.5 -7
t-18.5 7l24 66q-65 6 -99 43.5t-34 97.5q0 87 71 145.5t172 58.5q11 0 16 -1l20 56q5 7 18.5 7t20.5 -7z" />
    <glyph glyph-name="comma.inferior" unicode="&#xf6e1;" horiz-adv-x="210" 
d="M20 -23q26 0 49.5 -24t24.5 -64q3 -62 -46.5 -107.5t-129.5 -62.5q-8 3 -11 12.5t4 17.5q41 13 71.5 38t30.5 54q0 8 -2 14.5t-4.5 10.5t-7.5 9t-7 6.5t-8 4.5l-6 4q-22 12 -20 36q1 20 18.5 35.5t43.5 15.5z" />
    <glyph glyph-name="comma.superior" unicode="&#xf6e2;" horiz-adv-x="210" 
d="M175 456q26 0 49.5 -24t24.5 -64q3 -62 -46.5 -107.5t-129.5 -62.5q-8 3 -11 12.5t4 17.5q41 13 71.5 38t30.5 54q0 8 -2 14.5t-4.5 10.5t-7.5 9t-7 6.5t-8 5.5l-6 3q-22 12 -20 36q1 20 18.5 35.5t43.5 15.5z" />
    <glyph glyph-name="dollar.inferior" unicode="&#xf6e3;" 
d="M171 -16l-45 -118q4 -1 9 -1q33 0 57 15t25 42q1 38 -46 62zM246 182l-40 -107l7 -3q96 -40 93 -120q-2 -57 -50.5 -90t-134.5 -33q-6 0 -9 1l-20 -52q-6 -5 -19.5 -5t-19.5 5l21 55q-40 6 -69 20t-37 29q-12 32 5 105q3 7 14.5 7t15.5 -7q4 -40 27.5 -70t58.5 -44
l48 126q-47 19 -73.5 43.5t-25.5 67.5q2 54 51 86.5t123 32.5h12l17 45q7 5 20 5t20 -5l-19 -50q24 -3 41 -10q15 -4 33 -12q10 -36 0 -103q-6 -6 -15 -6t-15 6q-11 64 -60 83zM171 89l38 100q-3 1 -9 1q-38 0 -58 -16t-21 -37q0 -26 50 -48z" />
    <glyph glyph-name="dollar.superior" unicode="&#xf6e4;" 
d="M326 463l-45 -118q4 -1 9 -1q34 0 57.5 15t24.5 42q1 38 -46 62zM401 661l-40 -107l7 -3q96 -40 93 -120q-2 -57 -50.5 -90t-134.5 -33q-6 0 -9 1l-20 -52q-6 -5 -19.5 -5t-19.5 5l21 55q-40 6 -69 20t-37 29q-12 32 5 105q3 8 14.5 8t15.5 -8q4 -40 27.5 -70t58.5 -44
l48 126q-47 19 -73.5 43.5t-25.5 67.5q2 54 51 86.5t123 32.5h12l17 45q7 5 19.5 5t20.5 -5l-19 -50q24 -3 41 -10q15 -5 33 -12q10 -36 0 -103q-6 -6 -15 -6t-15 6q-11 64 -60 83zM326 568l38 100q-3 1 -9 1q-38 0 -58 -16t-21 -37q0 -26 50 -48z" />
    <glyph glyph-name="hyphen.inferior" unicode="&#xf6e5;" horiz-adv-x="280" 
d="M207 4h-209q-10 8 -6.5 33t15.5 31h209q10 -6 6.5 -31t-15.5 -33z" />
    <glyph glyph-name="hyphen.superior" unicode="&#xf6e6;" horiz-adv-x="280" 
d="M362 483h-209q-10 8 -6.5 33t15.5 31h209q10 -6 6.5 -31t-15.5 -33z" />
    <glyph glyph-name="period.inferior" unicode="&#xf6e7;" horiz-adv-x="210" 
d="M33 -38q23 0 38.5 -15.5t16.5 -40.5q1 -30 -19 -53.5t-51 -23.5q-24 0 -39 15t-15 41q0 30 19.5 53.5t49.5 23.5z" />
    <glyph glyph-name="period.superior" unicode="&#xf6e8;" horiz-adv-x="210" 
d="M188 441q24 0 39 -15.5t16 -40.5q1 -30 -19 -53.5t-51 -23.5q-24 0 -39 15t-15 41q0 30 19.5 53.5t49.5 23.5z" />
    <glyph glyph-name="b.superior" unicode="&#xf6ea;" horiz-adv-x="416" 
d="M226 308q-42 0 -65 18.5t-23 51.5q0 32 29 107l83 212q5 13 3.5 19t-11.5 12l-19 11q-6 14 5 20q20 7 66.5 15t76.5 9q7 -1 9 -11l-37 -87l-66 -158h2q24 30 61.5 55.5t73.5 25.5q39 0 56.5 -22.5t17.5 -48.5q0 -73 -60 -137q-87 -92 -202 -92zM373 566q-12 0 -39 -21.5
t-54 -57.5q-23 -31 -37 -65t-14 -54q0 -11 5 -18t12 -7q22 0 61 42q36 39 59 85.5t23 69.5q0 26 -16 26z" />
    <glyph glyph-name="d.superior" unicode="&#xf6eb;" horiz-adv-x="424" 
d="M411 591l37 101q11 29 -6 36l-20 9q-8 14 2 23q19 7 66 15t75 8q8 0 10 -7l-33 -91l-98 -269q-11 -31 -13 -41q0 -8 7 -8t30 14t39 28q15 0 13 -19q-21 -27 -64 -54.5t-96 -27.5q-14 0 -22 8t-8 18q0 14 16 54l15 38h-2q-1 -2 -12 -15t-15 -17t-15 -16.5t-17.5 -18
l-18.5 -15.5t-21.5 -15t-22 -10.5t-25.5 -8t-27 -2.5q-26 0 -42.5 18t-15.5 49q3 98 96 175q71 58 150 58q24 0 38 -17zM388 530q6 20 3.5 31.5t-10.5 11.5q-11 0 -25 -8q-33 -20 -73 -74q-28 -38 -46.5 -76t-18.5 -50q0 -13 10 -13q11 0 43 23t55 51q43 54 62 104z" />
    <glyph glyph-name="e.superior" unicode="&#xf6ec;" horiz-adv-x="340" 
d="M334 608q42 0 65 -17.5t23 -44.5q0 -74 -194 -119q-4 -12 -4 -29q0 -12 10 -23t27 -11q41 0 101 49q7 0 12 -6t4 -13q-26 -36 -72 -61t-97 -25q-45 0 -68.5 24.5t-23.5 66.5q0 43 25 89t65 75q62 45 127 45zM233 462q37 7 68 40q11 11 18 27.5t7 26.5q0 18 -12 18
q-14 0 -33 -19q-17 -16 -30.5 -43.5t-17.5 -49.5z" />
    <glyph glyph-name="i.superior" unicode="&#xf6ed;" horiz-adv-x="247" 
d="M125 366l78 171q4 9 -3 9q-5 0 -29.5 -15.5t-35.5 -24.5q-7 0 -10.5 7.5t-1.5 13.5q30 35 76.5 58t82.5 23q13 0 24.5 -9.5t11.5 -21.5q0 -11 -9 -31l-77 -167q-5 -10 2 -10q6 0 30 15.5t40 28.5q7 0 11.5 -7t2.5 -14q-25 -31 -71 -57.5t-91 -26.5q-17 0 -28 10t-11 18
q0 11 8 30zM315 783q22 0 35 -12.5t13 -34.5q0 -26 -18 -44t-47 -18q-23 0 -36.5 12.5t-13.5 31.5q0 26 19.5 45.5t47.5 19.5z" />
    <glyph glyph-name="l.superior" unicode="&#xf6ee;" horiz-adv-x="237" 
d="M170 308q-53 0 -53 33q0 10 10 39l118 312q9 25 -9 36l-17 10q-3 4 -2.5 11t5.5 11q24 7 72.5 14.5t75.5 8.5q10 -2 8 -12q-16 -38 -34 -86l-113 -298q-11 -27 1 -27q20 0 79 62q6 -1 10.5 -6.5t3.5 -13.5q-53 -94 -155 -94z" />
    <glyph glyph-name="m.superior" unicode="&#xf6ef;" horiz-adv-x="607" 
d="M261 608q47 0 31 -44l-29 -73h2q2 2 5 6q27 32 44.5 50.5t51 39.5t64.5 21q21 0 30 -11.5t9 -25.5q0 -24 -29 -84l3 -1q48 62 87.5 92t80.5 30q26 0 38.5 -13t12.5 -32q0 -29 -13 -59q-1 -2 -54 -119q-6 -16 1 -16q15 0 68 48q6 1 11 -4.5t4 -13.5q-21 -33 -65.5 -62
t-98.5 -29q-16 0 -27 9t-11 19q0 13 11 37q23 49 65 147q8 16 8 27q0 10 -9 10q-15 0 -48 -39q-46 -54 -119 -197q-7 -13 -42 -13q-20 0 -35.5 6.5t-10.5 21.5l16 37q1 2 11.5 26.5l27.5 64.5l24 56q8 21 8 27q0 10 -9 10q-15 0 -48 -39q-46 -54 -119 -197q-6 -13 -42 -13
q-20 0 -35.5 6.5t-10.5 21.5q1 4 17 45l34 87t22 58q7 20 -4 20q-4 0 -10 -2t-13 -6.5t-12.5 -9t-14.5 -11t-14 -9.5q-15 2 -13 17q16 30 59.5 56.5t89.5 26.5z" />
    <glyph glyph-name="r.superior" unicode="&#xf6f1;" horiz-adv-x="325" 
d="M243 608q59 0 33 -68l-25 -65h4q36 59 58 85q41 48 79 48q16 0 28.5 -11.5t12.5 -34.5q0 -29 -19.5 -52.5t-40.5 -23.5q-15 0 -23 28q-4 16 -14 16q-15 0 -43 -48q-26 -43 -82 -161q-6 -13 -37 -13q-24 0 -40 6.5t-11 21.5l36.5 100.5l33.5 92.5q9 23 -2 23
q-8 0 -27.5 -13t-35.5 -29q-7 0 -11 7.5t-2 12.5q15 27 49.5 52.5t78.5 25.5z" />
    <glyph glyph-name="s.superior" unicode="&#xf6f2;" horiz-adv-x="280" 
d="M284 608q32 0 55 -16.5t23 -39.5q0 -26 -12 -37t-25 -11q-9 0 -19 13q-36 44 -65 44q-14 0 -14 -14q0 -15 21 -32l29 -23q44 -34 44 -75q0 -49 -48 -82q-42 -27 -102 -27q-30 0 -55 15.5t-25 40.5q0 22 12 35.5t28 13.5q15 0 31 -16q46 -43 62 -43q23 0 23 17t-23 35
l-28 21q-46 35 -46 73q0 46 48 79q44 29 86 29z" />
    <glyph glyph-name="t.superior" unicode="&#xf6f3;" horiz-adv-x="268" 
d="M374 552h-76l-65 -167q-6 -15 2 -15q23 0 81 54q17 -2 15 -22q-23 -32 -73 -63t-94 -31q-20 0 -31 9t-11 21q0 16 8 38l65 176h-56q-5 4 -1.5 16.5t11.5 15.5l64 12l61 68q9 5 27 5q23 0 30 -12l-21 -63h70q8 -7 5 -22.5t-11 -19.5z" />
    <glyph glyph-name="dollar.oldstyle" unicode="&#xf724;" horiz-adv-x="460" 
d="M266 163l-51 -138q3 -1 10 -1q39 0 65.5 18t27.5 53q1 41 -52 68zM265 283l43 117q-51 0 -74.5 -19.5t-24.5 -43.5q-2 -29 56 -54zM352 393l-47 -127l8 -3q50 -19 79 -53t28 -84q-2 -66 -57.5 -103t-152.5 -37q-7 0 -9 1l-27 -71q-7 -6 -23.5 -6t-21.5 6l28 74
q-46 6 -79 22.5t-44 33.5q-13 38 6 120q4 8 17 8t17 -8q4 -47 31 -82t68 -50l54 147l-7 3q-24 10 -40 19.5t-33.5 24t-25.5 34t-7 44.5q2 63 58 100t140 36q6 0 11 -1l22 58q11 6 25 6t21 -6l-23 -63q22 -3 48 -11q31 -10 38 -13q12 -42 0 -118q-6 -6 -16.5 -6.5t-17.5 6.5
q-3 74 -68 99z" />
    <glyph glyph-name="zero.oldstyle" unicode="&#xf730;" horiz-adv-x="500" 
d="M220 -14q-77 0 -115 43.5t-38 112.5q0 51 20.5 105.5t56.5 97.5q81 97 184 97q73 0 115.5 -44t42.5 -121q0 -56 -25.5 -116.5t-66.5 -101.5q-76 -73 -174 -73zM373 333q0 65 -39 65q-50 0 -99 -111q-55 -125 -55 -201q0 -56 41 -56q40 0 77 62q28 46 51.5 123t23.5 118z
" />
    <glyph glyph-name="one.oldstyle" unicode="&#xf731;" horiz-adv-x="380" 
d="M276 35l38 -5q7 -5 5 -17.5t-10 -15.5q-62 3 -152 3q-88 0 -151 -3q-7 3 -6 15.5t9 17.5l41 5q33 4 47 19t28 61l61 198q14 46 8.5 60.5t-35.5 19.5l-33 5q-7 5 -4.5 17.5t12.5 15.5q64 -3 147 -3q97 0 133 3q9 -4 8 -15.5t-8 -17.5l-29 -4q-33 -4 -47 -19.5t-28 -61.5
l-61 -198q-14 -46 -8.5 -61t35.5 -19z" />
    <glyph glyph-name="two.oldstyle" unicode="&#xf732;" horiz-adv-x="473" 
d="M244 89h74q39 0 61.5 11t47.5 41q23 4 28 -16q-28 -43 -68 -128q-61 3 -154 3h-126q-66 0 -96 -3q-6 3 -8 12t2 14q61 28 147 89q84 59 112 91q37 42 37 82q0 36 -18.5 58t-53.5 22q-61 0 -107 -75q-14 -2 -22.5 6t-7.5 20q30 55 82.5 90.5t116.5 35.5q70 0 110 -36.5
t40 -94.5q0 -85 -126 -158l-89 -52q0 -12 18 -12z" />
    <glyph glyph-name="three.oldstyle" unicode="&#xf733;" horiz-adv-x="413" 
d="M268 442q59 0 91.5 -27t32.5 -67q0 -39 -28 -69t-94 -58q-6 -2 -6 -7.5t7 -7.5q83 -25 83 -112q0 -50 -31.5 -100t-82.5 -90q-119 -92 -230 -92q-20 0 -34.5 14.5t-13.5 34.5q0 12 6.5 20.5t17.5 8.5q3 0 34.5 -5t56.5 -5q59 0 97.5 47.5t38.5 118.5q0 100 -65 100
q-29 0 -65 -32q-14 2 -21 19t3 28q110 46 148 75q49 37 49 76q0 27 -14 43t-38 16q-44 0 -86 -50q-11 -2 -20 7.5t-5 20.5q30 37 74.5 65t94.5 28z" />
    </font>
</defs>
</svg>
